# Blender v2.82 (sub 7) OBJ File: 'models.blend'
# www.blender.org
mtllib vaso03.mtl
o Cylinder.007_Cylinder.008
v 0.109867 0.001640 -0.552337
v 0.129708 1.459195 -0.652085
v 0.312874 0.001640 -0.468248
v 0.369377 1.459195 -0.552811
v 0.468249 0.001640 -0.312874
v 0.552811 1.459195 -0.369377
v 0.552336 0.001640 -0.109867
v 0.652085 1.459195 -0.129708
v 0.552336 0.001640 0.109866
v 0.652085 1.459195 0.129707
v 0.468249 0.001640 0.312873
v 0.552811 1.459195 0.369376
v 0.312874 0.001640 0.468247
v 0.369377 1.459195 0.552810
v 0.109867 0.001640 0.552335
v 0.129708 1.459195 0.652084
v -0.109866 0.001640 0.552335
v -0.129708 1.459195 0.652084
v -0.312873 0.001640 0.468247
v -0.369377 1.459195 0.552810
v -0.468248 0.001640 0.312872
v -0.552811 1.459195 0.369375
v -0.552336 0.001640 0.109865
v -0.652085 1.459195 0.129707
v -0.552335 0.001640 -0.109868
v -0.652085 1.459195 -0.129709
v -0.468247 0.001640 -0.312874
v -0.552810 1.459195 -0.369378
v -0.312872 0.001640 -0.468249
v -0.369375 1.459195 -0.552812
v -0.109865 0.001640 -0.552337
v -0.129706 1.459195 -0.652086
v 0.327516 1.063327 -0.490163
v 0.115009 1.063327 -0.578186
v 0.490162 1.063327 -0.327516
v 0.578186 1.063327 -0.115009
v 0.578186 1.063327 0.115008
v 0.490162 1.063327 0.327515
v 0.327516 1.063327 0.490162
v 0.115009 1.063327 0.578185
v -0.115008 1.063327 0.578185
v -0.327516 1.063327 0.490161
v -0.490162 1.063327 0.327515
v -0.578185 1.063327 0.115007
v -0.578185 1.063327 -0.115009
v -0.490162 1.063327 -0.327517
v -0.327515 1.063327 -0.490163
v -0.115007 1.063327 -0.578187
v 0.143742 1.218528 -0.722636
v 0.409340 1.218528 -0.612622
v 0.612621 1.218528 -0.409341
v 0.722636 1.218528 -0.143742
v 0.722636 1.218528 0.143740
v 0.612621 1.218528 0.409340
v 0.409340 1.218528 0.612620
v 0.143741 1.218528 0.722635
v -0.143741 1.218528 0.722635
v -0.409340 1.218528 0.612620
v -0.612621 1.218528 0.409339
v -0.722636 1.218528 0.143740
v -0.722635 1.218528 -0.143743
v -0.612620 1.218528 -0.409342
v -0.409339 1.218528 -0.612622
v -0.143740 1.218528 -0.722636
v 0.495060 1.442079 -0.740911
v 0.173842 1.442079 -0.873963
v 0.740910 1.442079 -0.495060
v 0.873963 1.442079 -0.173842
v 0.873963 1.442079 0.173841
v 0.740910 1.442079 0.495060
v 0.495060 1.442079 0.740909
v 0.173842 1.442079 0.873962
v -0.173842 1.442079 0.873962
v -0.495060 1.442079 0.740909
v -0.740910 1.442079 0.495059
v -0.873963 1.442079 0.173841
v -0.873962 1.442079 -0.173844
v -0.740909 1.442079 -0.495062
v -0.495059 1.442079 -0.740911
v -0.173840 1.442079 -0.873964
v 0.167143 1.201412 -0.840283
v 0.475982 1.201412 -0.712358
v 0.712357 1.201412 -0.475982
v 0.840282 1.201412 -0.167143
v 0.840282 1.201412 0.167142
v 0.712357 1.201412 0.475981
v 0.475982 1.201412 0.712356
v 0.167143 1.201412 0.840281
v -0.167142 1.201412 0.840281
v -0.475982 1.201412 0.712356
v -0.712357 1.201412 0.475981
v -0.840282 1.201412 0.167141
v -0.840282 1.201412 -0.167144
v -0.712356 1.201412 -0.475983
v -0.475980 1.201412 -0.712358
v -0.167141 1.201412 -0.840283
vt 0.373313 0.715299
vt 0.363642 0.715299
vt 0.363642 0.650707
vt 0.373313 0.650707
vt 0.353971 0.715299
vt 0.353971 0.650707
vt 0.344300 0.715299
vt 0.344300 0.650707
vt 0.334629 0.715299
vt 0.334629 0.650707
vt 0.324959 0.715299
vt 0.324959 0.650707
vt 0.315288 0.715299
vt 0.315288 0.650707
vt 0.305617 0.715299
vt 0.305617 0.650707
vt 0.295946 0.715299
vt 0.295946 0.650707
vt 0.286275 0.715299
vt 0.286275 0.650707
vt 0.276604 0.715299
vt 0.276604 0.650707
vt 0.266933 0.715299
vt 0.266933 0.650707
vt 0.257262 0.715299
vt 0.257262 0.650707
vt 0.247591 0.715299
vt 0.247591 0.650707
vt 0.237920 0.715299
vt 0.237920 0.650707
vt 0.228249 0.715299
vt 0.228249 0.650707
vt 0.120751 0.250484
vt 0.125532 0.262026
vt 0.125532 0.262026
vt 0.120751 0.250484
vt 0.346710 0.648446
vt 0.360097 0.642901
vt 0.370343 0.632655
vt 0.375888 0.619268
vt 0.375888 0.604778
vt 0.370343 0.591391
vt 0.360097 0.581145
vt 0.346710 0.575600
vt 0.332220 0.575600
vt 0.318833 0.581145
vt 0.308587 0.591391
vt 0.303042 0.604778
vt 0.303042 0.619268
vt 0.308587 0.632655
vt 0.318833 0.642901
vt 0.332220 0.648446
vt 0.373313 0.715299
vt 0.363642 0.715299
vt 0.288720 0.629811
vt 0.292975 0.632655
vt 0.282729 0.642901
vt 0.279886 0.638645
vt 0.293501 0.618269
vt 0.298520 0.619268
vt 0.293501 0.605776
vt 0.298520 0.604778
vt 0.288720 0.594234
vt 0.292975 0.591391
vt 0.279886 0.585401
vt 0.282729 0.581145
vt 0.268344 0.580620
vt 0.269342 0.575600
vt 0.255851 0.580620
vt 0.254853 0.575600
vt 0.244309 0.585401
vt 0.241466 0.581145
vt 0.235475 0.594234
vt 0.231220 0.591391
vt 0.230694 0.605776
vt 0.225675 0.604778
vt 0.230694 0.618269
vt 0.225675 0.619268
vt 0.235475 0.629811
vt 0.231220 0.632655
vt 0.244309 0.638645
vt 0.241466 0.642901
vt 0.255851 0.643426
vt 0.254853 0.648446
vt 0.268344 0.643426
vt 0.269343 0.648446
vt 0.100375 0.299676
vt 0.087882 0.299676
vt 0.076340 0.294895
vt 0.067507 0.286061
vt 0.062726 0.274519
vt 0.062726 0.262026
vt 0.067507 0.250484
vt 0.076340 0.241651
vt 0.087882 0.236870
vt 0.100375 0.236870
vt 0.111917 0.241651
vt 0.125532 0.274519
vt 0.120751 0.286061
vt 0.111917 0.294895
vt 0.067507 0.286061
vt 0.062726 0.274519
vt 0.111917 0.241651
vt 0.076340 0.294895
vt 0.100375 0.236870
vt 0.087882 0.299676
vt 0.087882 0.236870
vt 0.111917 0.294895
vt 0.100375 0.299676
vt 0.076340 0.241651
vt 0.120751 0.286061
vt 0.067507 0.250484
vt 0.125532 0.274519
vt 0.062726 0.262026
vt 0.237920 0.715299
vt 0.228249 0.715299
vt 0.353971 0.715299
vt 0.344300 0.715299
vt 0.334629 0.715299
vt 0.324959 0.715299
vt 0.315288 0.715299
vt 0.228249 0.728074
vt 0.373313 0.728074
vt 0.237920 0.728074
vt 0.247591 0.728074
vt 0.247591 0.715299
vt 0.257262 0.728074
vt 0.257262 0.715299
vt 0.266933 0.728074
vt 0.266933 0.715299
vt 0.276604 0.728074
vt 0.276604 0.715299
vt 0.286275 0.728074
vt 0.286275 0.715299
vt 0.295946 0.728074
vt 0.295946 0.715299
vt 0.305617 0.728074
vt 0.305617 0.715299
vt 0.315288 0.728074
vt 0.324959 0.728074
vt 0.334629 0.728074
vt 0.344300 0.728074
vt 0.353971 0.728074
vt 0.363642 0.728074
vn 0.3790 -0.1386 -0.9150
vn 0.7003 -0.1386 -0.7003
vn 0.9150 -0.1386 -0.3790
vn 0.9903 -0.1386 0.0000
vn 0.9150 -0.1386 0.3790
vn 0.7003 -0.1386 0.7003
vn 0.3790 -0.1386 0.9150
vn 0.0000 -0.1386 0.9903
vn -0.3790 -0.1386 0.9150
vn -0.7003 -0.1386 0.7003
vn -0.9150 -0.1386 0.3790
vn -0.9903 -0.1386 -0.0000
vn -0.9150 -0.1386 -0.3790
vn -0.7003 -0.1386 -0.7003
vn -0.3790 -0.1386 -0.9150
vn -0.9082 0.1835 -0.3762
vn 0.0000 -1.0000 0.0000
vn -0.0551 -0.9896 0.1330
vn 0.0544 0.9970 -0.0544
vn 0.0711 0.9970 -0.0294
vn 0.0769 0.9970 0.0000
vn 0.0711 0.9970 0.0294
vn 0.0544 0.9970 0.0544
vn 0.0294 0.9970 0.0711
vn 0.0000 0.9970 0.0769
vn -0.0294 0.9970 0.0711
vn -0.0544 0.9970 0.0544
vn -0.0711 0.9970 0.0294
vn -0.0769 0.9970 -0.0000
vn -0.0711 0.9970 -0.0294
vn -0.0544 0.9970 -0.0544
vn -0.0294 0.9970 -0.0711
vn 0.0000 0.9970 -0.0769
vn 0.0000 1.0000 0.0000
vn 0.9082 0.1835 0.3762
vn -0.6951 0.1835 -0.6951
vn 0.6951 0.1835 0.6951
vn -0.3762 0.1835 -0.9082
vn 0.3762 0.1835 0.9082
vn 0.0000 0.1835 -0.9830
vn -0.3762 0.1835 0.9082
vn -0.0000 0.1835 0.9830
vn 0.3762 0.1835 -0.9082
vn -0.6951 0.1835 0.6951
vn 0.6951 0.1835 -0.6951
vn -0.9082 0.1835 0.3762
vn 0.9082 0.1835 -0.3762
vn -0.9830 0.1835 0.0000
vn 0.9830 0.1835 0.0000
vn 0.0000 -0.1386 -0.9903
vn 0.0551 -0.9896 0.1330
vn -0.1018 -0.9896 0.1018
vn -0.0000 -0.9896 0.1440
vn -0.1330 -0.9896 0.0551
vn -0.1440 -0.9896 0.0000
vn -0.1330 -0.9896 -0.0551
vn -0.1018 -0.9896 -0.1018
vn 0.1018 -0.9896 0.1018
vn 0.1330 -0.9896 0.0551
vn 0.1440 -0.9896 0.0000
vn 0.1330 -0.9896 -0.0551
vn 0.1018 -0.9896 -0.1018
vn 0.0551 -0.9896 -0.1330
vn 0.0000 -0.9896 -0.1440
vn -0.0551 -0.9896 -0.1330
vn 0.0294 0.9970 -0.0711
usemtl mat_cute
s off
f 49/1/1 50/2/1 3/3/1 1/4/1
f 50/2/2 51/5/2 5/6/2 3/3/2
f 51/5/3 52/7/3 7/8/3 5/6/3
f 52/7/4 53/9/4 9/10/4 7/8/4
f 53/9/5 54/11/5 11/12/5 9/10/5
f 54/11/6 55/13/6 13/14/6 11/12/6
f 55/13/7 56/15/7 15/16/7 13/14/7
f 56/15/8 57/17/8 17/18/8 15/16/8
f 57/17/9 58/19/9 19/20/9 17/18/9
f 58/19/10 59/21/10 21/22/10 19/20/10
f 59/21/11 60/23/11 23/24/11 21/22/11
f 60/23/12 61/25/12 25/26/12 23/24/12
f 61/25/13 62/27/13 27/28/13 25/26/13
f 62/27/14 63/29/14 29/30/14 27/28/14
f 63/29/15 64/31/15 31/32/15 29/30/15
f 12/33/16 10/34/16 37/35/16 38/36/16
f 1/37/17 3/38/17 5/39/17 7/40/17 9/41/17 11/42/17 13/43/17 15/44/17 17/45/17 19/46/17 21/47/17 23/48/17 25/49/17 27/50/17 29/51/17 31/52/17
f 50/2/18 49/1/18 81/53/18 82/54/18
f 6/55/19 67/56/19 65/57/19 4/58/19
f 8/59/20 68/60/20 67/56/20 6/55/20
f 10/61/21 69/62/21 68/60/21 8/59/21
f 12/63/22 70/64/22 69/62/22 10/61/22
f 14/65/23 71/66/23 70/64/23 12/63/23
f 16/67/24 72/68/24 71/66/24 14/65/24
f 18/69/25 73/70/25 72/68/25 16/67/25
f 20/71/26 74/72/26 73/70/26 18/69/26
f 22/73/27 75/74/27 74/72/27 20/71/27
f 24/75/28 76/76/28 75/74/28 22/73/28
f 26/77/29 77/78/29 76/76/29 24/75/29
f 28/79/30 78/80/30 77/78/30 26/77/30
f 30/81/31 79/82/31 78/80/31 28/79/31
f 32/83/32 80/84/32 79/82/32 30/81/32
f 2/85/33 66/86/33 80/84/33 32/83/33
f 34/87/34 48/88/34 47/89/34 46/90/34 45/91/34 44/92/34 43/93/34 42/94/34 41/95/34 40/96/34 39/97/34 38/36/34 37/35/34 36/98/34 35/99/34 33/100/34
f 28/101/35 26/102/35 45/91/35 46/90/35
f 14/103/36 12/33/36 38/36/36 39/97/36
f 30/104/37 28/101/37 46/90/37 47/89/37
f 16/105/38 14/103/38 39/97/38 40/96/38
f 32/106/39 30/104/39 47/89/39 48/88/39
f 18/107/40 16/105/40 40/96/40 41/95/40
f 4/108/41 2/109/41 34/87/41 33/100/41
f 2/109/42 32/106/42 48/88/42 34/87/42
f 20/110/43 18/107/43 41/95/43 42/94/43
f 6/111/44 4/108/44 33/100/44 35/99/44
f 22/112/45 20/110/45 42/94/45 43/93/45
f 8/113/46 6/111/46 35/99/46 36/98/46
f 24/114/47 22/112/47 43/93/47 44/92/47
f 10/34/48 8/113/48 36/98/48 37/35/48
f 26/102/49 24/114/49 44/92/49 45/91/49
f 31/32/50 64/31/50 49/1/50 1/4/50
f 64/31/51 63/29/51 95/115/51 96/116/51
f 51/5/52 50/2/52 82/54/52 83/117/52
f 49/1/53 64/31/53 96/116/53 81/53/53
f 52/7/54 51/5/54 83/117/54 84/118/54
f 53/9/55 52/7/55 84/118/55 85/119/55
f 54/11/56 53/9/56 85/119/56 86/120/56
f 55/13/57 54/11/57 86/120/57 87/121/57
f 96/116/50 80/122/50 66/123/50 81/53/50
f 79/124/15 80/122/15 96/116/15 95/115/15
f 78/125/14 79/124/14 95/115/14 94/126/14
f 77/127/13 78/125/13 94/126/13 93/128/13
f 76/129/12 77/127/12 93/128/12 92/130/12
f 75/131/11 76/129/11 92/130/11 91/132/11
f 74/133/10 75/131/10 91/132/10 90/134/10
f 73/135/9 74/133/9 90/134/9 89/136/9
f 72/137/8 73/135/8 89/136/8 88/138/8
f 71/139/7 72/137/7 88/138/7 87/121/7
f 70/140/6 71/139/6 87/121/6 86/120/6
f 69/141/5 70/140/5 86/120/5 85/119/5
f 68/142/4 69/141/4 85/119/4 84/118/4
f 67/143/3 68/142/3 84/118/3 83/117/3
f 65/144/2 67/143/2 83/117/2 82/54/2
f 66/123/1 65/144/1 82/54/1 81/53/1
f 63/29/58 62/27/58 94/126/58 95/115/58
f 62/27/59 61/25/59 93/128/59 94/126/59
f 61/25/60 60/23/60 92/130/60 93/128/60
f 60/23/61 59/21/61 91/132/61 92/130/61
f 59/21/62 58/19/62 90/134/62 91/132/62
f 58/19/63 57/17/63 89/136/63 90/134/63
f 57/17/64 56/15/64 88/138/64 89/136/64
f 56/15/65 55/13/65 87/121/65 88/138/65
f 4/58/66 65/57/66 66/86/66 2/85/66
