# Blender v2.82 (sub 7) OBJ File: 'models.blend'
# www.blender.org
mtllib vaso02.mtl
o Cube
v 0.574431 1.620451 -0.574432
v 0.362977 0.000184 -0.362977
v 0.574431 1.620451 0.574432
v 0.362977 0.000184 0.362978
v -0.574433 1.620451 -0.574432
v -0.362978 0.000184 -0.362977
v -0.574433 1.620451 0.574432
v -0.362978 0.000184 0.362978
v 0.810133 1.620451 0.810134
v -0.810134 1.620451 0.810134
v 0.810133 1.620451 -0.810133
v -0.810134 1.620451 -0.810133
v 0.574431 1.237359 0.574432
v -0.574433 1.237359 0.574432
v 0.574431 1.237359 -0.574432
v -0.574433 1.237359 -0.574432
vt 0.039307 0.349864
vt 0.039307 0.275391
vt 0.069103 0.275391
vt 0.069103 0.349864
vt 0.826957 0.833984
vt 0.816566 0.777503
vt 0.854220 0.777503
vt 0.843828 0.833984
vt 0.881482 0.777503
vt 0.891874 0.833984
vt 0.854220 0.833984
vt 0.864612 0.777503
vt 0.843828 0.833984
vt 0.854220 0.890465
vt 0.816566 0.890465
vt 0.864612 0.890465
vt 0.891874 0.833984
vt 0.881482 0.890465
vt 0.897351 0.785424
vt 0.897351 0.824029
vt 0.891874 0.831949
vt 0.891874 0.777503
vt 0.924050 0.785424
vt 0.929528 0.777503
vt 0.924050 0.824029
vt 0.929528 0.831949
vt 0.098866 0.200917
vt 0.098866 0.275391
vt 0.009511 0.275391
vt 0.009511 0.200918
vt 0.128662 0.200917
vt 0.128662 0.275391
vt 0.098866 0.275391
vt 0.098866 0.200918
vt 0.158458 0.200917
vt 0.158458 0.275391
vt 0.128662 0.275391
vt 0.128662 0.200917
vt 0.009511 0.349864
vt 0.009511 0.275391
vt 0.039307 0.275391
vt 0.039307 0.349864
vn 1.0000 0.0000 0.0000
vn 0.0000 -0.2660 0.9640
vn -0.9640 -0.2660 0.0000
vn 0.9640 -0.2660 0.0000
vn 0.0000 -0.2660 -0.9640
vn 0.0000 1.0000 0.0000
vn 0.0000 0.0000 -1.0000
vn 0.0000 0.0000 1.0000
vn -1.0000 0.0000 0.0000
usemtl mat_cute
s off
f 5/1/1 7/2/1 14/3/1 16/4/1
f 4/5/2 9/6/2 10/7/2 8/8/2
f 8/9/3 10/10/3 12/11/3 6/12/3
f 2/13/4 11/14/4 9/15/4 4/5/4
f 6/16/5 12/11/5 11/17/5 2/18/5
f 3/19/6 7/20/6 10/21/6 9/22/6
f 1/23/6 3/19/6 9/22/6 11/24/6
f 7/20/6 5/25/6 12/26/6 10/21/6
f 5/25/6 1/23/6 11/24/6 12/26/6
f 15/27/6 16/28/6 14/29/6 13/30/6
f 7/31/7 3/32/7 13/33/7 14/34/7
f 1/35/8 5/36/8 16/37/8 15/38/8
f 3/39/9 1/40/9 15/41/9 13/42/9
