# Blender v2.82 (sub 7) OBJ File: 'models.blend'
# www.blender.org
mtllib vaso01.mtl
o vaso_cactus_Cylinder
v 0.644111 0.015437 -0.049661
v 0.494151 1.314195 -0.040007
v 0.610747 0.015437 0.201508
v 0.468508 1.314195 0.153040
v 0.483805 0.015437 0.420790
v 0.370941 1.314195 0.321579
v 0.282610 0.015437 0.574802
v 0.216304 1.314195 0.439952
v 0.037793 0.015437 0.640096
v 0.028139 1.314195 0.490136
v -0.213376 0.015437 0.606732
v -0.164908 1.314195 0.464493
v -0.432658 0.015437 0.479790
v -0.333447 1.314195 0.366926
v -0.586670 0.015437 0.278595
v -0.451820 1.314195 0.212289
v -0.651964 0.015437 0.033778
v -0.502005 1.314195 0.024124
v -0.618601 0.015437 -0.217391
v -0.476361 1.314195 -0.168923
v -0.491658 0.015437 -0.436673
v -0.378794 1.314195 -0.337462
v -0.290463 0.015437 -0.590685
v -0.224157 1.314195 -0.455835
v -0.045646 0.015437 -0.655979
v -0.035992 1.314195 -0.506019
v 0.205523 0.015437 -0.622616
v 0.157055 1.314195 -0.480376
v 0.424805 0.015437 -0.495673
v 0.325594 1.314195 -0.382809
v 0.578817 0.015437 -0.294478
v 0.443967 1.314195 -0.228172
v 0.468508 1.034009 0.153040
v 0.494151 1.034009 -0.040007
v 0.370941 1.034009 0.321579
v 0.216304 1.034009 0.439951
v 0.028139 1.034009 0.490136
v -0.164908 1.034009 0.464493
v -0.333447 1.034009 0.366926
v -0.451820 1.034009 0.212289
v -0.502005 1.034009 0.024124
v -0.476361 1.034009 -0.168923
v -0.378794 1.034009 -0.337463
v -0.224157 1.034009 -0.455835
v -0.035992 1.034009 -0.506019
v 0.157055 1.034009 -0.480376
v 0.325594 1.034009 -0.382809
v 0.443967 1.034009 -0.228172
v 0.337097 1.120604 -0.395895
v 0.162675 1.120604 -0.496868
v -0.037111 1.120604 -0.523406
v -0.231845 1.120604 -0.471469
v -0.391880 1.120604 -0.348965
v -0.492853 1.120604 -0.174543
v -0.519391 1.120604 0.025243
v -0.467454 1.120604 0.219977
v -0.344950 1.120604 0.380012
v -0.170528 1.120604 0.480985
v 0.029258 1.120604 0.507523
v 0.223992 1.120604 0.455586
v 0.384027 1.120604 0.333082
v 0.485000 1.120604 0.158659
v 0.511538 1.120604 -0.041126
v 0.459601 1.120604 -0.235859
v 0.543156 1.314195 0.178476
v 0.598809 1.245261 0.197440
v 0.587454 1.294005 0.193571
v 0.631525 1.245261 -0.048851
v 0.572851 1.314195 -0.045074
v 0.619553 1.294005 -0.048080
v 0.430173 1.314195 0.373645
v 0.474332 1.245261 0.412463
v 0.465322 1.294005 0.404543
v 0.251102 1.314195 0.510722
v 0.277045 1.245261 0.563484
v 0.271752 1.294005 0.552718
v 0.033205 1.314195 0.568836
v 0.036983 1.245261 0.627510
v 0.036212 1.294005 0.615538
v -0.190344 1.314195 0.539141
v -0.209308 1.245261 0.594794
v -0.205439 1.294005 0.583439
v -0.385514 1.314195 0.426158
v -0.424331 1.245261 0.470318
v -0.416411 1.294005 0.461307
v -0.522590 1.314195 0.247087
v -0.575352 1.245261 0.273030
v -0.564586 1.294005 0.267737
v -0.580704 1.314195 0.029190
v -0.639378 1.245261 0.032968
v -0.627406 1.294005 0.032197
v -0.551009 1.314195 -0.194359
v -0.606662 1.245261 -0.213323
v -0.595307 1.294005 -0.209454
v -0.438026 1.314195 -0.389529
v -0.482186 1.245261 -0.428347
v -0.473175 1.294005 -0.420426
v -0.258955 1.314195 -0.526605
v -0.284898 1.245261 -0.579367
v -0.279605 1.294005 -0.568601
v -0.041058 1.314195 -0.584719
v -0.044835 1.245261 -0.643393
v -0.044065 1.294005 -0.631421
v 0.182492 1.314195 -0.555024
v 0.201455 1.245261 -0.610677
v 0.197586 1.294005 -0.599322
v 0.377661 1.314195 -0.442040
v 0.416478 1.245261 -0.486200
v 0.408558 1.294005 -0.477190
v 0.514737 1.314195 -0.262969
v 0.567499 1.245261 -0.288913
v 0.556733 1.294005 -0.283619
v 0.478970 0.282893 -0.039030
v 0.511050 0.437778 -0.041095
v 0.556631 0.373821 -0.044029
v 0.544627 0.419810 -0.043257
v 0.484536 0.437778 0.158501
v 0.454109 0.282893 0.148133
v 0.516386 0.419811 0.169354
v 0.527772 0.373821 0.173234
v 0.359516 0.282893 0.311535
v 0.383659 0.437778 0.332759
v 0.417966 0.373821 0.362915
v 0.408931 0.419810 0.354973
v 0.209592 0.282893 0.426300
v 0.223776 0.437778 0.455147
v 0.243930 0.373821 0.496136
v 0.238623 0.419811 0.485342
v 0.027162 0.282893 0.474955
v 0.029227 0.437778 0.507034
v 0.032161 0.373821 0.552616
v 0.031388 0.419811 0.540612
v -0.160002 0.282893 0.450094
v -0.170370 0.437778 0.480522
v -0.185102 0.373821 0.523757
v -0.181222 0.419810 0.512371
v -0.323404 0.282893 0.355501
v -0.344627 0.437778 0.379644
v -0.374783 0.373821 0.413951
v -0.366841 0.419810 0.404916
v -0.438168 0.282893 0.205577
v -0.467015 0.437778 0.219761
v -0.508005 0.373821 0.239915
v -0.497210 0.419810 0.234608
v -0.486824 0.282893 0.023147
v -0.518903 0.437778 0.025212
v -0.564485 0.373821 0.028146
v -0.552481 0.419810 0.027374
v -0.461962 0.282893 -0.164017
v -0.492390 0.437778 -0.174385
v -0.535625 0.373821 -0.189117
v -0.524239 0.419811 -0.185238
v -0.367369 0.282893 -0.327419
v -0.391512 0.437778 -0.348642
v -0.425819 0.373821 -0.378798
v -0.416784 0.419810 -0.370857
v -0.217445 0.282893 -0.442183
v -0.231629 0.437778 -0.471030
v -0.251783 0.373821 -0.512020
v -0.246476 0.419810 -0.501225
v -0.035014 0.282893 -0.490838
v -0.037080 0.437778 -0.522918
v -0.040014 0.373821 -0.568500
v -0.039241 0.419811 -0.556496
v 0.152149 0.282893 -0.465977
v 0.162517 0.437778 -0.496405
v 0.177249 0.373821 -0.539640
v 0.173370 0.419810 -0.528254
v 0.315551 0.282893 -0.371383
v 0.336774 0.437778 -0.395527
v 0.366930 0.373821 -0.429833
v 0.358989 0.419810 -0.420799
v 0.430315 0.282893 -0.221459
v 0.459162 0.437778 -0.235643
v 0.500152 0.373821 -0.255798
v 0.489357 0.419811 -0.250490
v 0.623935 0.135431 -0.048362
v 0.591610 0.135431 0.194987
v 0.560674 0.135431 -0.285557
v 0.468620 0.135431 0.407442
v 0.273689 0.135431 0.556658
v 0.036494 0.135431 0.619920
v -0.206855 0.135431 0.587595
v -0.419310 0.135431 0.464605
v -0.568527 0.135431 0.269674
v -0.631788 0.135431 0.032479
v -0.599463 0.135431 -0.210870
v -0.476473 0.135431 -0.423325
v -0.281542 0.135431 -0.572541
v -0.044347 0.135431 -0.635803
v 0.199002 0.135431 -0.603478
v 0.411457 0.135431 -0.480488
vt 0.937500 0.872522
vt 0.875000 0.872522
vt 0.875000 0.719432
vt 0.937500 0.719432
vt 0.812500 0.872522
vt 0.812500 0.719432
vt 0.750000 0.872522
vt 0.750000 0.719432
vt 0.687500 0.872522
vt 0.687500 0.719432
vt 0.625000 0.872522
vt 0.625000 0.719432
vt 0.562500 0.872522
vt 0.562500 0.719432
vt 0.500000 0.872522
vt 0.500000 0.719432
vt 0.437500 0.872522
vt 0.437500 0.719432
vt 0.375000 0.872522
vt 0.375000 0.719432
vt 0.312500 0.872522
vt 0.312500 0.719432
vt 0.250000 0.872522
vt 0.250000 0.719432
vt 0.187500 0.872522
vt 0.187500 0.719432
vt 0.125000 0.872522
vt 0.125000 0.719432
vt 0.062500 0.872522
vt 0.062500 0.719432
vt 0.937500 0.546196
vt 0.875000 0.546196
vt 0.875000 0.500000
vt 0.937500 0.500000
vt 0.119565 0.380435
vt 0.079579 0.320591
vt 0.079579 0.320591
vt 0.119565 0.380435
vt 0.750000 0.490000
vt 0.841844 0.471731
vt 0.919706 0.419706
vt 0.971731 0.341844
vt 0.990000 0.250000
vt 0.971731 0.158156
vt 0.919706 0.080294
vt 0.841844 0.028269
vt 0.750000 0.010000
vt 0.658156 0.028269
vt 0.580294 0.080294
vt 0.528269 0.158156
vt 0.510000 0.250000
vt 0.528269 0.341844
vt 0.580295 0.419706
vt 0.658156 0.471731
vt 0.000000 0.872522
vt 0.000000 0.719432
vt 0.812500 0.546196
vt 0.812500 0.500000
vt 1.000000 0.872522
vt 1.000000 0.719432
vt 0.750000 0.546196
vt 0.687500 0.546196
vt 0.687500 0.500000
vt 0.750000 0.500000
vt 0.625000 0.546196
vt 0.625000 0.500000
vt 0.562500 0.546196
vt 0.562500 0.500000
vt 0.500000 0.546196
vt 0.500000 0.500000
vt 0.437500 0.546196
vt 0.437500 0.500000
vt 0.375000 0.546196
vt 0.375000 0.500000
vt 0.312500 0.546196
vt 0.312500 0.500000
vt 0.250000 0.546196
vt 0.250000 0.500000
vt 0.187500 0.546196
vt 0.187500 0.500000
vt 0.125000 0.546196
vt 0.125000 0.500000
vt 0.062500 0.546196
vt 0.062500 0.500000
vt 1.000000 0.973461
vt 0.937500 0.973461
vt 0.250000 0.434463
vt 0.179410 0.420421
vt 0.065537 0.250000
vt 0.079579 0.179409
vt 0.119565 0.119565
vt 0.179409 0.079579
vt 0.250000 0.065537
vt 0.320591 0.079579
vt 0.380435 0.119565
vt 0.420421 0.179409
vt 0.434463 0.250000
vt 0.420421 0.320591
vt 0.380435 0.380435
vt 0.320591 0.420421
vt 0.320591 0.079579
vt 0.380435 0.119565
vt 0.179410 0.420421
vt 0.250000 0.065537
vt 0.320591 0.420421
vt 0.250000 0.434463
vt 0.179409 0.079579
vt 0.380435 0.380435
vt 0.119565 0.119565
vt 0.420421 0.320591
vt 0.079579 0.179409
vt 0.434463 0.250000
vt 0.065537 0.250000
vt 0.420421 0.179409
vt 0.331745 0.447349
vt 0.250000 0.463609
vt 0.168256 0.447349
vt 0.098956 0.401044
vt 0.052651 0.331745
vt 0.036391 0.250000
vt 0.052651 0.168256
vt 0.098956 0.098956
vt 0.168255 0.052651
vt 0.250000 0.036391
vt 0.331745 0.052651
vt 0.401044 0.098956
vt 0.447349 0.168255
vt 0.463609 0.250000
vt 0.447349 0.331745
vt 0.401044 0.401044
vt 0.998816 1.000000
vt 0.938684 1.000000
vt 0.340104 0.472077
vt 0.251740 0.489654
vt 0.875000 0.973461
vt 0.936316 1.000000
vt 0.876184 1.000000
vt 0.418230 0.420691
vt 0.343319 0.470745
vt 0.812500 0.973461
vt 0.873816 1.000000
vt 0.813684 1.000000
vt 0.470745 0.343319
vt 0.420691 0.418230
vt 0.750000 0.973461
vt 0.811316 1.000000
vt 0.751184 1.000000
vt 0.489654 0.251740
vt 0.472077 0.340104
vt 0.687500 0.973461
vt 0.748816 1.000000
vt 0.688684 1.000000
vt 0.472077 0.159896
vt 0.489654 0.248260
vt 0.625000 0.973461
vt 0.686316 1.000000
vt 0.626184 1.000000
vt 0.420691 0.081770
vt 0.470745 0.156681
vt 0.562500 0.973461
vt 0.623816 1.000000
vt 0.563684 1.000000
vt 0.343319 0.029255
vt 0.418230 0.079309
vt 0.500000 0.973461
vt 0.561316 1.000000
vt 0.501184 1.000000
vt 0.251740 0.010346
vt 0.340104 0.027923
vt 0.437500 0.973461
vt 0.498816 1.000000
vt 0.438684 1.000000
vt 0.159896 0.027923
vt 0.248260 0.010346
vt 0.375000 0.973461
vt 0.436316 1.000000
vt 0.376184 1.000000
vt 0.081770 0.079309
vt 0.156681 0.029255
vt 0.312500 0.973461
vt 0.373816 1.000000
vt 0.313684 1.000000
vt 0.029255 0.156681
vt 0.079308 0.081770
vt 0.250000 0.973461
vt 0.311316 1.000000
vt 0.251184 1.000000
vt 0.010346 0.248260
vt 0.027923 0.159896
vt 0.187500 0.973461
vt 0.248816 1.000000
vt 0.188684 1.000000
vt 0.027923 0.340104
vt 0.010346 0.251740
vt 0.125000 0.973461
vt 0.186316 1.000000
vt 0.126184 1.000000
vt 0.079309 0.418231
vt 0.029255 0.343320
vt 0.062500 0.973461
vt 0.123816 1.000000
vt 0.063684 1.000000
vt 0.156681 0.470745
vt 0.081770 0.420692
vt 0.000000 0.973461
vt 0.061316 1.000000
vt 0.001184 1.000000
vt 0.248260 0.489654
vt 0.159897 0.472077
vt 0.000000 0.546196
vt 0.000000 0.500000
vt 0.937500 0.602966
vt 1.000000 0.602966
vt 1.002654 0.631409
vt 0.937500 0.631409
vt 1.002916 0.689458
vt 0.937500 0.689458
vt 0.000000 0.602966
vt 0.062500 0.602966
vt 0.062500 0.631409
vt -0.002654 0.631409
vt 0.062500 0.689458
vt -0.002916 0.689458
vt 0.125000 0.602966
vt 0.125000 0.631409
vt 0.125000 0.689458
vt 0.187500 0.602966
vt 0.187500 0.631409
vt 0.187500 0.689458
vt 0.250000 0.602966
vt 0.250000 0.631409
vt 0.250000 0.689458
vt 0.312500 0.602966
vt 0.312500 0.631409
vt 0.312500 0.689458
vt 0.375000 0.602966
vt 0.375000 0.631409
vt 0.375000 0.689458
vt 0.437500 0.602966
vt 0.437500 0.631409
vt 0.437500 0.689458
vt 0.500000 0.602966
vt 0.500000 0.631409
vt 0.500000 0.689458
vt 0.562500 0.602966
vt 0.562500 0.631409
vt 0.562500 0.689458
vt 0.625000 0.602966
vt 0.625000 0.631409
vt 0.625000 0.689458
vt 0.687500 0.602966
vt 0.687500 0.631409
vt 0.687500 0.689458
vt 0.750000 0.602966
vt 0.750000 0.631409
vt 0.750000 0.689458
vt 0.812500 0.602966
vt 0.812500 0.631409
vt 0.812500 0.689458
vt 0.875000 0.602966
vt 0.875000 0.631409
vt 0.875000 0.689458
vt 1.000000 0.546196
vt 1.000000 0.500000
vn 0.8654 -0.0007 0.5010
vn 0.6078 -0.0007 0.7941
vn 0.2577 -0.0007 0.9662
vn -0.1317 -0.0007 0.9913
vn -0.5010 -0.0007 0.8654
vn -0.7941 -0.0007 0.6078
vn -0.9662 -0.0007 0.2577
vn -0.9913 -0.0007 -0.1317
vn -0.8654 -0.0007 -0.5010
vn -0.6078 -0.0007 -0.7941
vn -0.2577 -0.0007 -0.9662
vn 0.1317 -0.0007 -0.9913
vn 0.5010 -0.0007 -0.8654
vn 0.7941 -0.0007 -0.6078
vn 0.8539 0.1630 0.4943
vn -0.5010 -0.0000 0.8654
vn 0.0000 -1.0000 -0.0000
vn 0.9662 -0.0007 -0.2577
vn 0.5997 0.1630 0.7834
vn 0.9913 -0.0007 0.1317
vn -0.1299 0.1630 0.9780
vn -0.4943 0.1630 0.8539
vn -0.7834 0.1630 0.5997
vn -0.9533 0.1630 0.2542
vn -0.9780 0.1630 -0.1299
vn -0.8539 0.1630 -0.4943
vn -0.5997 0.1630 -0.7834
vn -0.2543 0.1630 -0.9533
vn 0.1299 0.1630 -0.9780
vn 0.4943 0.1630 -0.8539
vn 0.7834 0.1630 -0.5997
vn 0.7201 -0.6872 0.0957
vn 0.2543 0.1630 0.9533
vn 0.0000 1.0000 0.0000
vn 0.7941 0.0000 -0.6078
vn -0.7941 -0.0000 0.6078
vn 0.9662 0.0000 -0.2577
vn -0.9913 0.0000 -0.1317
vn -0.9662 0.0000 0.2577
vn 0.9913 0.0000 0.1317
vn -0.8654 0.0000 -0.5010
vn 0.8654 -0.0000 0.5010
vn -0.6078 0.0000 -0.7941
vn 0.6078 -0.0000 0.7941
vn -0.2577 0.0000 -0.9662
vn 0.2577 0.0000 0.9662
vn 0.1317 0.0000 -0.9913
vn -0.1317 0.0000 0.9913
vn 0.5010 0.0000 -0.8654
vn 0.9636 0.2346 0.1280
vn 0.3991 0.9154 0.0530
vn 0.8413 0.2346 0.4870
vn 0.3485 0.9154 0.2017
vn 0.5909 0.2346 0.7719
vn 0.2447 0.9154 0.3197
vn 0.2505 0.2346 0.9392
vn 0.1038 0.9154 0.3890
vn -0.1280 0.2346 0.9636
vn -0.0530 0.9154 0.3991
vn -0.4870 0.2346 0.8413
vn -0.2017 0.9154 0.3485
vn -0.7719 0.2346 0.5909
vn -0.3197 0.9154 0.2447
vn -0.9392 0.2346 0.2505
vn -0.3891 0.9154 0.1038
vn -0.9636 0.2346 -0.1280
vn -0.3991 0.9154 -0.0530
vn -0.8413 0.2346 -0.4870
vn -0.3485 0.9154 -0.2017
vn -0.5909 0.2346 -0.7719
vn -0.2447 0.9154 -0.3197
vn -0.2505 0.2346 -0.9392
vn -0.1038 0.9154 -0.3890
vn 0.1280 0.2346 -0.9636
vn 0.0530 0.9154 -0.3991
vn 0.4870 0.2346 -0.8413
vn 0.2017 0.9154 -0.3485
vn 0.7719 0.2346 -0.5909
vn 0.3197 0.9154 -0.2447
vn 0.9392 0.2346 -0.2505
vn 0.3891 0.9154 -0.1038
vn 0.9533 0.1630 -0.2542
vn 0.7593 -0.6429 0.1009
vn 0.9602 0.2485 0.1275
vn 0.4740 0.8783 0.0630
vn 0.7401 -0.6429 -0.1974
vn 0.9359 0.2485 -0.2496
vn 0.4620 0.8783 -0.1232
vn 0.6082 -0.6429 -0.4656
vn 0.7692 0.2485 -0.5888
vn 0.3797 0.8783 -0.2907
vn 0.3837 -0.6429 -0.6629
vn 0.4853 0.2485 -0.8383
vn 0.2396 0.8783 -0.4138
vn 0.1009 -0.6429 -0.7593
vn 0.1275 0.2485 -0.9602
vn 0.0630 0.8783 -0.4740
vn -0.1974 -0.6429 -0.7401
vn -0.2496 0.2485 -0.9359
vn -0.1232 0.8783 -0.4620
vn -0.4656 -0.6429 -0.6082
vn -0.5888 0.2485 -0.7692
vn -0.2907 0.8783 -0.3797
vn -0.6629 -0.6429 -0.3837
vn -0.8383 0.2485 -0.4853
vn -0.4138 0.8783 -0.2396
vn -0.7593 -0.6429 -0.1009
vn -0.9602 0.2485 -0.1275
vn -0.4740 0.8783 -0.0630
vn -0.7401 -0.6429 0.1974
vn -0.9359 0.2485 0.2496
vn -0.4620 0.8783 0.1232
vn -0.6082 -0.6429 0.4656
vn -0.7692 0.2485 0.5888
vn -0.3797 0.8783 0.2907
vn -0.3837 -0.6429 0.6629
vn -0.4853 0.2485 0.8383
vn -0.2396 0.8783 0.4138
vn -0.1009 -0.6429 0.7593
vn -0.1275 0.2485 0.9602
vn -0.0630 0.8783 0.4740
vn 0.1974 -0.6429 0.7401
vn 0.2496 0.2485 0.9359
vn 0.1232 0.8783 0.4620
vn 0.4656 -0.6429 0.6082
vn 0.5888 0.2485 0.7692
vn 0.2907 0.8783 0.3797
vn 0.6629 -0.6429 0.3837
vn 0.8383 0.2485 0.4853
vn 0.4138 0.8783 0.2396
vn 0.9780 0.1630 0.1299
vn 0.7019 -0.6872 -0.1872
vn 0.5768 -0.6872 -0.4416
vn 0.3640 -0.6872 -0.6287
vn 0.0957 -0.6872 -0.7201
vn -0.1872 -0.6872 -0.7019
vn -0.4416 -0.6872 -0.5768
vn -0.6287 -0.6872 -0.3640
vn -0.7201 -0.6872 -0.0957
vn -0.7019 -0.6872 0.1872
vn -0.5768 -0.6872 0.4416
vn -0.3640 -0.6872 0.6287
vn -0.0957 -0.6872 0.7201
vn 0.1872 -0.6872 0.7019
vn 0.4416 -0.6872 0.5768
vn 0.6287 -0.6872 0.3640
vn 0.7129 0.6948 0.0947
vn 0.6949 0.6948 -0.1853
vn 0.1853 0.6948 0.6949
vn 0.5711 0.6948 -0.4371
vn 0.3603 0.6948 -0.6224
vn 0.0947 0.6948 -0.7129
vn -0.1853 0.6948 -0.6949
vn -0.4371 0.6948 -0.5711
vn -0.6224 0.6948 -0.3603
vn -0.7129 0.6948 -0.0947
vn -0.6949 0.6948 0.1853
vn -0.5711 0.6948 0.4371
vn -0.3603 0.6948 0.6224
vn -0.0947 0.6948 0.7129
vn 0.4371 0.6948 0.5711
vn 0.6224 0.6948 0.3603
usemtl cimento
s off
f 62/1/1 61/2/1 122/3/1 117/4/1
f 61/2/2 60/5/2 126/6/2 122/3/2
f 60/5/3 59/7/3 130/8/3 126/6/3
f 59/7/4 58/9/4 134/10/4 130/8/4
f 58/9/5 57/11/5 138/12/5 134/10/5
f 57/11/6 56/13/6 142/14/6 138/12/6
f 56/13/7 55/15/7 146/16/7 142/14/7
f 55/15/8 54/17/8 150/18/8 146/16/8
f 54/17/9 53/19/9 154/20/9 150/18/9
f 53/19/10 52/21/10 158/22/10 154/20/10
f 52/21/11 51/23/11 162/24/11 158/22/11
f 51/23/12 50/25/12 166/26/12 162/24/12
f 50/25/13 49/27/13 170/28/13 166/26/13
f 49/27/14 64/29/14 174/30/14 170/28/14
f 178/31/15 180/32/15 5/33/15 3/34/15
f 30/35/16 28/36/16 46/37/16 47/38/16
f 1/39/17 3/40/17 5/41/17 7/42/17 9/43/17 11/44/17 13/45/17 15/46/17 17/47/17 19/48/17 21/49/17 23/50/17 25/51/17 27/52/17 29/53/17 31/54/17
f 64/29/18 63/55/18 114/56/18 174/30/18
f 180/32/19 181/57/19 7/58/19 5/33/19
f 63/59/20 62/1/20 117/4/20 114/60/20
f 182/61/21 183/62/21 11/63/21 9/64/21
f 183/62/22 184/65/22 13/66/22 11/63/22
f 184/65/23 185/67/23 15/68/23 13/66/23
f 185/67/24 186/69/24 17/70/24 15/68/24
f 186/69/25 187/71/25 19/72/25 17/70/25
f 187/71/26 188/73/26 21/74/26 19/72/26
f 188/73/27 189/75/27 23/76/27 21/74/27
f 189/75/28 190/77/28 25/78/28 23/76/28
f 190/77/29 191/79/29 27/80/29 25/78/29
f 191/79/30 192/81/30 29/82/30 27/80/30
f 192/81/31 179/83/31 31/84/31 29/82/31
f 68/85/32 66/86/32 62/1/32 63/59/32
f 181/57/33 182/61/33 9/64/33 7/58/33
f 34/87/34 48/88/34 47/38/34 46/37/34 45/89/34 44/90/34 43/91/34 42/92/34 41/93/34 40/94/34 39/95/34 38/96/34 37/97/34 36/98/34 35/99/34 33/100/34
f 16/101/35 14/102/35 39/95/35 40/94/35
f 32/103/36 30/35/36 47/38/36 48/88/36
f 18/104/37 16/101/37 40/94/37 41/93/37
f 4/105/38 2/106/38 34/87/38 33/100/38
f 2/106/39 32/103/39 48/88/39 34/87/39
f 20/107/40 18/104/40 41/93/40 42/92/40
f 6/108/41 4/105/41 33/100/41 35/99/41
f 22/109/42 20/107/42 42/92/42 43/91/42
f 8/110/43 6/108/43 35/99/43 36/98/43
f 24/111/44 22/109/44 43/91/44 44/90/44
f 10/112/45 8/110/45 36/98/45 37/97/45
f 26/113/46 24/111/46 44/90/46 45/89/46
f 12/114/47 10/112/47 37/97/47 38/96/47
f 28/36/48 26/113/48 45/89/48 46/37/48
f 14/102/49 12/114/49 38/96/49 39/95/49
f 2/106/34 4/105/34 65/115/34 69/116/34
f 32/103/34 2/106/34 69/116/34 110/117/34
f 30/35/34 32/103/34 110/117/34 107/118/34
f 28/36/34 30/35/34 107/118/34 104/119/34
f 26/113/34 28/36/34 104/119/34 101/120/34
f 24/111/34 26/113/34 101/120/34 98/121/34
f 22/109/34 24/111/34 98/121/34 95/122/34
f 20/107/34 22/109/34 95/122/34 92/123/34
f 18/104/34 20/107/34 92/123/34 89/124/34
f 16/101/34 18/104/34 89/124/34 86/125/34
f 14/102/34 16/101/34 86/125/34 83/126/34
f 12/114/34 14/102/34 83/126/34 80/127/34
f 10/112/34 12/114/34 80/127/34 77/128/34
f 8/110/34 10/112/34 77/128/34 74/129/34
f 6/108/34 8/110/34 74/129/34 71/130/34
f 4/105/34 6/108/34 71/130/34 65/115/34
f 66/86/50 68/85/50 70/131/50 67/132/50
f 67/133/51 70/134/51 69/116/51 65/115/51
f 72/135/52 66/86/52 67/136/52 73/137/52
f 73/138/53 67/139/53 65/115/53 71/130/53
f 75/140/54 72/135/54 73/141/54 76/142/54
f 76/143/55 73/144/55 71/130/55 74/129/55
f 78/145/56 75/140/56 76/146/56 79/147/56
f 79/148/57 76/149/57 74/129/57 77/128/57
f 81/150/58 78/145/58 79/151/58 82/152/58
f 82/153/59 79/154/59 77/128/59 80/127/59
f 84/155/60 81/150/60 82/156/60 85/157/60
f 85/158/61 82/159/61 80/127/61 83/126/61
f 87/160/62 84/155/62 85/161/62 88/162/62
f 88/163/63 85/164/63 83/126/63 86/125/63
f 90/165/64 87/160/64 88/166/64 91/167/64
f 91/168/65 88/169/65 86/125/65 89/124/65
f 93/170/66 90/165/66 91/171/66 94/172/66
f 94/173/67 91/174/67 89/124/67 92/123/67
f 96/175/68 93/170/68 94/176/68 97/177/68
f 97/178/69 94/179/69 92/123/69 95/122/69
f 99/180/70 96/175/70 97/181/70 100/182/70
f 100/183/71 97/184/71 95/122/71 98/121/71
f 102/185/72 99/180/72 100/186/72 103/187/72
f 103/188/73 100/189/73 98/121/73 101/120/73
f 105/190/74 102/185/74 103/191/74 106/192/74
f 106/193/75 103/194/75 101/120/75 104/119/75
f 108/195/76 105/190/76 106/196/76 109/197/76
f 109/198/77 106/199/77 104/119/77 107/118/77
f 111/200/78 108/195/78 109/201/78 112/202/78
f 112/203/79 109/204/79 107/118/79 110/117/79
f 68/205/80 111/200/80 112/206/80 70/207/80
f 70/208/81 112/209/81 110/117/81 69/116/81
f 179/83/82 177/210/82 1/211/82 31/84/82
f 118/212/83 113/213/83 115/214/83 120/215/83
f 120/215/84 115/214/84 116/216/84 119/217/84
f 119/217/85 116/216/85 114/60/85 117/4/85
f 113/218/86 173/219/86 175/220/86 115/221/86
f 115/221/87 175/220/87 176/222/87 116/223/87
f 116/223/88 176/222/88 174/30/88 114/56/88
f 173/219/89 169/224/89 171/225/89 175/220/89
f 175/220/90 171/225/90 172/226/90 176/222/90
f 176/222/91 172/226/91 170/28/91 174/30/91
f 169/224/92 165/227/92 167/228/92 171/225/92
f 171/225/93 167/228/93 168/229/93 172/226/93
f 172/226/94 168/229/94 166/26/94 170/28/94
f 165/227/95 161/230/95 163/231/95 167/228/95
f 167/228/96 163/231/96 164/232/96 168/229/96
f 168/229/97 164/232/97 162/24/97 166/26/97
f 161/230/98 157/233/98 159/234/98 163/231/98
f 163/231/99 159/234/99 160/235/99 164/232/99
f 164/232/100 160/235/100 158/22/100 162/24/100
f 157/233/101 153/236/101 155/237/101 159/234/101
f 159/234/102 155/237/102 156/238/102 160/235/102
f 160/235/103 156/238/103 154/20/103 158/22/103
f 153/236/104 149/239/104 151/240/104 155/237/104
f 155/237/105 151/240/105 152/241/105 156/238/105
f 156/238/106 152/241/106 150/18/106 154/20/106
f 149/239/107 145/242/107 147/243/107 151/240/107
f 151/240/108 147/243/108 148/244/108 152/241/108
f 152/241/109 148/244/109 146/16/109 150/18/109
f 145/242/110 141/245/110 143/246/110 147/243/110
f 147/243/111 143/246/111 144/247/111 148/244/111
f 148/244/112 144/247/112 142/14/112 146/16/112
f 141/245/113 137/248/113 139/249/113 143/246/113
f 143/246/114 139/249/114 140/250/114 144/247/114
f 144/247/115 140/250/115 138/12/115 142/14/115
f 137/248/116 133/251/116 135/252/116 139/249/116
f 139/249/117 135/252/117 136/253/117 140/250/117
f 140/250/118 136/253/118 134/10/118 138/12/118
f 133/251/119 129/254/119 131/255/119 135/252/119
f 135/252/120 131/255/120 132/256/120 136/253/120
f 136/253/121 132/256/121 130/8/121 134/10/121
f 129/254/122 125/257/122 127/258/122 131/255/122
f 131/255/123 127/258/123 128/259/123 132/256/123
f 132/256/124 128/259/124 126/6/124 130/8/124
f 125/257/125 121/260/125 123/261/125 127/258/125
f 127/258/126 123/261/126 124/262/126 128/259/126
f 128/259/127 124/262/127 122/3/127 126/6/127
f 121/260/128 118/212/128 120/215/128 123/261/128
f 123/261/129 120/215/129 119/217/129 124/262/129
f 124/262/130 119/217/130 117/4/130 122/3/130
f 177/263/131 178/31/131 3/34/131 1/264/131
f 111/200/132 68/205/132 63/55/132 64/29/132
f 108/195/133 111/200/133 64/29/133 49/27/133
f 105/190/134 108/195/134 49/27/134 50/25/134
f 102/185/135 105/190/135 50/25/135 51/23/135
f 99/180/136 102/185/136 51/23/136 52/21/136
f 96/175/137 99/180/137 52/21/137 53/19/137
f 93/170/138 96/175/138 53/19/138 54/17/138
f 90/165/139 93/170/139 54/17/139 55/15/139
f 87/160/140 90/165/140 55/15/140 56/13/140
f 84/155/141 87/160/141 56/13/141 57/11/141
f 81/150/142 84/155/142 57/11/142 58/9/142
f 78/145/143 81/150/143 58/9/143 59/7/143
f 75/140/144 78/145/144 59/7/144 60/5/144
f 72/135/145 75/140/145 60/5/145 61/2/145
f 66/86/146 72/135/146 61/2/146 62/1/146
f 113/213/147 118/212/147 178/31/147 177/263/147
f 173/219/148 113/218/148 177/210/148 179/83/148
f 125/257/149 129/254/149 182/61/149 181/57/149
f 169/224/150 173/219/150 179/83/150 192/81/150
f 165/227/151 169/224/151 192/81/151 191/79/151
f 161/230/152 165/227/152 191/79/152 190/77/152
f 157/233/153 161/230/153 190/77/153 189/75/153
f 153/236/154 157/233/154 189/75/154 188/73/154
f 149/239/155 153/236/155 188/73/155 187/71/155
f 145/242/156 149/239/156 187/71/156 186/69/156
f 141/245/157 145/242/157 186/69/157 185/67/157
f 137/248/158 141/245/158 185/67/158 184/65/158
f 133/251/159 137/248/159 184/65/159 183/62/159
f 129/254/160 133/251/160 183/62/160 182/61/160
f 121/260/161 125/257/161 181/57/161 180/32/161
f 118/212/162 121/260/162 180/32/162 178/31/162
