# Blender v2.82 (sub 7) OBJ File: 'models.blend'
# www.blender.org
mtllib vaso01.mtl
o vaso_cactus_Cylinder
v 0.644111 0.015437 -0.049661
v 0.494151 1.314195 -0.040007
v 0.610747 0.015437 0.201508
v 0.468508 1.314195 0.153040
v 0.483805 0.015437 0.420790
v 0.370941 1.314195 0.321579
v 0.282610 0.015437 0.574802
v 0.216304 1.314195 0.439952
v 0.037793 0.015437 0.640096
v 0.028139 1.314195 0.490136
v -0.213376 0.015437 0.606732
v -0.164908 1.314195 0.464493
v -0.432658 0.015437 0.479790
v -0.333447 1.314195 0.366926
v -0.586670 0.015437 0.278595
v -0.451820 1.314195 0.212289
v -0.651964 0.015437 0.033778
v -0.502005 1.314195 0.024124
v -0.618601 0.015437 -0.217391
v -0.476361 1.314195 -0.168923
v -0.491658 0.015437 -0.436673
v -0.378794 1.314195 -0.337462
v -0.290463 0.015437 -0.590685
v -0.224157 1.314195 -0.455835
v -0.045646 0.015437 -0.655979
v -0.035992 1.314195 -0.506019
v 0.205523 0.015437 -0.622616
v 0.157055 1.314195 -0.480376
v 0.424805 0.015437 -0.495673
v 0.325594 1.314195 -0.382809
v 0.578817 0.015437 -0.294478
v 0.443967 1.314195 -0.228172
v 0.468508 1.034009 0.153040
v 0.494151 1.034009 -0.040007
v 0.370941 1.034009 0.321579
v 0.216304 1.034009 0.439951
v 0.028139 1.034009 0.490136
v -0.164908 1.034009 0.464493
v -0.333447 1.034009 0.366926
v -0.451820 1.034009 0.212289
v -0.502005 1.034009 0.024124
v -0.476361 1.034009 -0.168923
v -0.378794 1.034009 -0.337463
v -0.224157 1.034009 -0.455835
v -0.035992 1.034009 -0.506019
v 0.157055 1.034009 -0.480376
v 0.325594 1.034009 -0.382809
v 0.443967 1.034009 -0.228172
v 0.337097 1.120604 -0.395895
v 0.162675 1.120604 -0.496868
v -0.037111 1.120604 -0.523406
v -0.231845 1.120604 -0.471469
v -0.391880 1.120604 -0.348965
v -0.492853 1.120604 -0.174543
v -0.519391 1.120604 0.025243
v -0.467454 1.120604 0.219977
v -0.344950 1.120604 0.380012
v -0.170528 1.120604 0.480985
v 0.029258 1.120604 0.507523
v 0.223992 1.120604 0.455586
v 0.384027 1.120604 0.333082
v 0.485000 1.120604 0.158659
v 0.511538 1.120604 -0.041126
v 0.459601 1.120604 -0.235859
v 0.543156 1.314195 0.178476
v 0.598809 1.245261 0.197440
v 0.587454 1.294005 0.193571
v 0.631525 1.245261 -0.048851
v 0.572851 1.314195 -0.045074
v 0.619553 1.294005 -0.048080
v 0.430173 1.314195 0.373645
v 0.474332 1.245261 0.412463
v 0.465322 1.294005 0.404543
v 0.251102 1.314195 0.510722
v 0.277045 1.245261 0.563484
v 0.271752 1.294005 0.552718
v 0.033205 1.314195 0.568836
v 0.036983 1.245261 0.627510
v 0.036212 1.294005 0.615538
v -0.190344 1.314195 0.539141
v -0.209308 1.245261 0.594794
v -0.205439 1.294005 0.583439
v -0.385514 1.314195 0.426158
v -0.424331 1.245261 0.470318
v -0.416411 1.294005 0.461307
v -0.522590 1.314195 0.247087
v -0.575352 1.245261 0.273030
v -0.564586 1.294005 0.267737
v -0.580704 1.314195 0.029190
v -0.639378 1.245261 0.032968
v -0.627406 1.294005 0.032197
v -0.551009 1.314195 -0.194359
v -0.606662 1.245261 -0.213323
v -0.595307 1.294005 -0.209454
v -0.438026 1.314195 -0.389529
v -0.482186 1.245261 -0.428347
v -0.473175 1.294005 -0.420426
v -0.258955 1.314195 -0.526605
v -0.284898 1.245261 -0.579367
v -0.279605 1.294005 -0.568601
v -0.041058 1.314195 -0.584719
v -0.044835 1.245261 -0.643393
v -0.044065 1.294005 -0.631421
v 0.182492 1.314195 -0.555024
v 0.201455 1.245261 -0.610677
v 0.197586 1.294005 -0.599322
v 0.377661 1.314195 -0.442040
v 0.416478 1.245261 -0.486200
v 0.408558 1.294005 -0.477190
v 0.514737 1.314195 -0.262969
v 0.567499 1.245261 -0.288913
v 0.556733 1.294005 -0.283619
v 0.478970 0.282893 -0.039030
v 0.511050 0.437778 -0.041095
v 0.556631 0.373821 -0.044029
v 0.544627 0.419810 -0.043257
v 0.484536 0.437778 0.158501
v 0.454109 0.282893 0.148133
v 0.516386 0.419811 0.169354
v 0.527772 0.373821 0.173234
v 0.359516 0.282893 0.311535
v 0.383659 0.437778 0.332759
v 0.417966 0.373821 0.362915
v 0.408931 0.419810 0.354973
v 0.209592 0.282893 0.426300
v 0.223776 0.437778 0.455147
v 0.243930 0.373821 0.496136
v 0.238623 0.419811 0.485342
v 0.027162 0.282893 0.474955
v 0.029227 0.437778 0.507034
v 0.032161 0.373821 0.552616
v 0.031388 0.419811 0.540612
v -0.160002 0.282893 0.450094
v -0.170370 0.437778 0.480522
v -0.185102 0.373821 0.523757
v -0.181222 0.419810 0.512371
v -0.323404 0.282893 0.355501
v -0.344627 0.437778 0.379644
v -0.374783 0.373821 0.413951
v -0.366841 0.419810 0.404916
v -0.438168 0.282893 0.205577
v -0.467015 0.437778 0.219761
v -0.508005 0.373821 0.239915
v -0.497210 0.419810 0.234608
v -0.486824 0.282893 0.023147
v -0.518903 0.437778 0.025212
v -0.564485 0.373821 0.028146
v -0.552481 0.419810 0.027374
v -0.461962 0.282893 -0.164017
v -0.492390 0.437778 -0.174385
v -0.535625 0.373821 -0.189117
v -0.524239 0.419811 -0.185238
v -0.367369 0.282893 -0.327419
v -0.391512 0.437778 -0.348642
v -0.425819 0.373821 -0.378798
v -0.416784 0.419810 -0.370857
v -0.217445 0.282893 -0.442183
v -0.231629 0.437778 -0.471030
v -0.251783 0.373821 -0.512020
v -0.246476 0.419810 -0.501225
v -0.035014 0.282893 -0.490838
v -0.037080 0.437778 -0.522918
v -0.040014 0.373821 -0.568500
v -0.039241 0.419811 -0.556496
v 0.152149 0.282893 -0.465977
v 0.162517 0.437778 -0.496405
v 0.177249 0.373821 -0.539640
v 0.173370 0.419810 -0.528254
v 0.315551 0.282893 -0.371383
v 0.336774 0.437778 -0.395527
v 0.366930 0.373821 -0.429833
v 0.358989 0.419810 -0.420799
v 0.430315 0.282893 -0.221459
v 0.459162 0.437778 -0.235643
v 0.500152 0.373821 -0.255798
v 0.489357 0.419811 -0.250490
v 0.623935 0.135431 -0.048362
v 0.591610 0.135431 0.194987
v 0.560674 0.135431 -0.285557
v 0.468620 0.135431 0.407442
v 0.273689 0.135431 0.556658
v 0.036494 0.135431 0.619920
v -0.206855 0.135431 0.587595
v -0.419310 0.135431 0.464605
v -0.568527 0.135431 0.269674
v -0.631788 0.135431 0.032479
v -0.599463 0.135431 -0.210870
v -0.476473 0.135431 -0.423325
v -0.281542 0.135431 -0.572541
v -0.044347 0.135431 -0.635803
v 0.199002 0.135431 -0.603478
v 0.411457 0.135431 -0.480488
vt 0.362214 0.515278
vt 0.353159 0.515278
vt 0.353159 0.493098
vt 0.362214 0.493098
vt 0.344104 0.515278
vt 0.344104 0.493098
vt 0.335048 0.515278
vt 0.335048 0.493098
vt 0.325993 0.515278
vt 0.325993 0.493098
vt 0.316938 0.515278
vt 0.316938 0.493098
vt 0.307883 0.515278
vt 0.307883 0.493098
vt 0.298828 0.515278
vt 0.298828 0.493098
vt 0.289773 0.515278
vt 0.289773 0.493098
vt 0.280718 0.515278
vt 0.280718 0.493098
vt 0.271663 0.515278
vt 0.271663 0.493098
vt 0.262608 0.515278
vt 0.262608 0.493098
vt 0.253553 0.515278
vt 0.253553 0.493098
vt 0.244498 0.515278
vt 0.244498 0.493098
vt 0.235443 0.515278
vt 0.235443 0.493098
vt 0.362214 0.468000
vt 0.353159 0.468000
vt 0.353159 0.461307
vt 0.362214 0.461307
vt 0.050351 0.498672
vt 0.044558 0.490001
vt 0.044558 0.490001
vt 0.050351 0.498672
vt 0.335048 0.459858
vt 0.348355 0.457211
vt 0.359636 0.449674
vt 0.367173 0.438393
vt 0.369820 0.425087
vt 0.367173 0.411780
vt 0.359636 0.400499
vt 0.348355 0.392962
vt 0.335048 0.390315
vt 0.321742 0.392962
vt 0.310461 0.400499
vt 0.302924 0.411780
vt 0.300277 0.425087
vt 0.302924 0.438393
vt 0.310461 0.449674
vt 0.321742 0.457211
vt 0.226388 0.515278
vt 0.226388 0.493098
vt 0.344104 0.468000
vt 0.344104 0.461307
vt 0.371269 0.515278
vt 0.371269 0.493098
vt 0.335048 0.468000
vt 0.325993 0.468000
vt 0.325993 0.461307
vt 0.335048 0.461307
vt 0.316938 0.468000
vt 0.316938 0.461307
vt 0.307883 0.468000
vt 0.307883 0.461307
vt 0.298828 0.468000
vt 0.298828 0.461307
vt 0.289773 0.468000
vt 0.289773 0.461307
vt 0.280718 0.468000
vt 0.280718 0.461307
vt 0.271663 0.468000
vt 0.271663 0.461307
vt 0.262608 0.468000
vt 0.262608 0.461307
vt 0.253553 0.468000
vt 0.253553 0.461307
vt 0.244498 0.468000
vt 0.244498 0.461307
vt 0.235443 0.468000
vt 0.235443 0.461307
vt 0.371269 0.529903
vt 0.362214 0.529903
vt 0.268467 0.289702
vt 0.258240 0.287668
vt 0.249570 0.281875
vt 0.243776 0.273205
vt 0.241742 0.262977
vt 0.243776 0.252750
vt 0.249570 0.244080
vt 0.258240 0.238286
vt 0.268467 0.236252
vt 0.278695 0.238286
vt 0.287365 0.244080
vt 0.293158 0.252750
vt 0.295192 0.262977
vt 0.293158 0.273204
vt 0.287365 0.281875
vt 0.278695 0.287668
vt 0.079476 0.455083
vt 0.088146 0.460876
vt 0.088146 0.460876
vt 0.079476 0.455083
vt 0.059021 0.504465
vt 0.059021 0.504465
vt 0.069249 0.453049
vt 0.069249 0.453049
vt 0.079476 0.504465
vt 0.069249 0.506499
vt 0.069249 0.506499
vt 0.079476 0.504465
vt 0.059021 0.455083
vt 0.059021 0.455083
vt 0.088146 0.498672
vt 0.088146 0.498672
vt 0.050351 0.460876
vt 0.050351 0.460876
vt 0.093939 0.490001
vt 0.093939 0.490001
vt 0.044558 0.469547
vt 0.044558 0.469547
vt 0.095974 0.479774
vt 0.095974 0.479774
vt 0.042523 0.479774
vt 0.042523 0.479774
vt 0.093939 0.469547
vt 0.093939 0.469547
vt 0.262608 0.451812
vt 0.272835 0.449777
vt 0.274451 0.453679
vt 0.262608 0.456034
vt 0.252381 0.449777
vt 0.250765 0.453679
vt 0.243710 0.443984
vt 0.240724 0.446970
vt 0.237917 0.435314
vt 0.234016 0.436930
vt 0.235883 0.425087
vt 0.231660 0.425087
vt 0.237917 0.414859
vt 0.234016 0.413243
vt 0.243710 0.406189
vt 0.240724 0.403203
vt 0.252381 0.400396
vt 0.250765 0.396494
vt 0.262608 0.398361
vt 0.262608 0.394139
vt 0.272835 0.400396
vt 0.274451 0.396494
vt 0.281505 0.406189
vt 0.284491 0.403203
vt 0.287299 0.414859
vt 0.291200 0.413243
vt 0.289333 0.425087
vt 0.293556 0.425087
vt 0.287299 0.435314
vt 0.291200 0.436930
vt 0.281505 0.443984
vt 0.284491 0.446970
vt 0.371097 0.533747
vt 0.362385 0.533747
vt 0.275662 0.457261
vt 0.262860 0.459808
vt 0.353159 0.529903
vt 0.362042 0.533747
vt 0.353330 0.533747
vt 0.286981 0.449817
vt 0.276128 0.457068
vt 0.344104 0.529903
vt 0.352987 0.533747
vt 0.344275 0.533747
vt 0.294590 0.438607
vt 0.287338 0.449460
vt 0.335048 0.529903
vt 0.343932 0.533747
vt 0.335220 0.533747
vt 0.297329 0.425339
vt 0.294783 0.438141
vt 0.325993 0.529903
vt 0.334877 0.533747
vt 0.326165 0.533747
vt 0.294783 0.412032
vt 0.297329 0.424834
vt 0.316938 0.529903
vt 0.325822 0.533747
vt 0.317110 0.533747
vt 0.287338 0.400713
vt 0.294590 0.411566
vt 0.307883 0.529903
vt 0.316767 0.533747
vt 0.308055 0.533747
vt 0.276128 0.393105
vt 0.286981 0.400357
vt 0.298828 0.529903
vt 0.307712 0.533747
vt 0.299000 0.533747
vt 0.262860 0.390365
vt 0.275662 0.392912
vt 0.289773 0.529903
vt 0.298657 0.533747
vt 0.289945 0.533747
vt 0.249554 0.392912
vt 0.262356 0.390365
vt 0.280718 0.529903
vt 0.289602 0.533747
vt 0.280890 0.533747
vt 0.238234 0.400357
vt 0.249088 0.393105
vt 0.271663 0.529903
vt 0.280546 0.533747
vt 0.271834 0.533747
vt 0.230626 0.411566
vt 0.237878 0.400713
vt 0.262608 0.529903
vt 0.271491 0.533747
vt 0.262779 0.533747
vt 0.227887 0.424834
vt 0.230433 0.412032
vt 0.253553 0.529903
vt 0.262436 0.533747
vt 0.253724 0.533747
vt 0.230433 0.438141
vt 0.227887 0.425339
vt 0.244498 0.529903
vt 0.253381 0.533747
vt 0.244669 0.533747
vt 0.237878 0.449460
vt 0.230626 0.438607
vt 0.235443 0.529903
vt 0.244326 0.533747
vt 0.235614 0.533747
vt 0.249088 0.457068
vt 0.238234 0.449817
vt 0.226388 0.529903
vt 0.235271 0.533747
vt 0.226559 0.533747
vt 0.262356 0.459808
vt 0.249554 0.457261
vt 0.226388 0.468000
vt 0.226388 0.461307
vt 0.362214 0.476225
vt 0.371269 0.476225
vt 0.371653 0.480345
vt 0.362214 0.480345
vt 0.371691 0.488756
vt 0.362214 0.488756
vt 0.226388 0.476225
vt 0.235443 0.476225
vt 0.235443 0.480345
vt 0.226003 0.480345
vt 0.235443 0.488756
vt 0.225965 0.488756
vt 0.244498 0.476225
vt 0.244498 0.480345
vt 0.244498 0.488756
vt 0.253553 0.476225
vt 0.253553 0.480345
vt 0.253553 0.488756
vt 0.262608 0.476225
vt 0.262608 0.480345
vt 0.262608 0.488756
vt 0.271663 0.476225
vt 0.271663 0.480345
vt 0.271663 0.488756
vt 0.280718 0.476225
vt 0.280718 0.480345
vt 0.280718 0.488756
vt 0.289773 0.476225
vt 0.289773 0.480345
vt 0.289773 0.488756
vt 0.298828 0.476225
vt 0.298828 0.480345
vt 0.298828 0.488756
vt 0.307883 0.476225
vt 0.307883 0.480345
vt 0.307883 0.488756
vt 0.316938 0.476225
vt 0.316938 0.480345
vt 0.316938 0.488756
vt 0.325993 0.476225
vt 0.325993 0.480345
vt 0.325993 0.488756
vt 0.335048 0.476225
vt 0.335048 0.480345
vt 0.335048 0.488756
vt 0.344104 0.476225
vt 0.344104 0.480345
vt 0.344104 0.488756
vt 0.353159 0.476225
vt 0.353159 0.480345
vt 0.353159 0.488756
vt 0.371269 0.468000
vt 0.371269 0.461307
vn 0.8654 -0.0007 0.5010
vn 0.6078 -0.0007 0.7941
vn 0.2577 -0.0007 0.9662
vn -0.1317 -0.0007 0.9913
vn -0.5010 -0.0007 0.8654
vn -0.7941 -0.0007 0.6078
vn -0.9662 -0.0007 0.2577
vn -0.9913 -0.0007 -0.1317
vn -0.8654 -0.0007 -0.5010
vn -0.6078 -0.0007 -0.7941
vn -0.2577 -0.0007 -0.9662
vn 0.1317 -0.0007 -0.9913
vn 0.5010 -0.0007 -0.8654
vn 0.7941 -0.0007 -0.6078
vn 0.8539 0.1630 0.4943
vn -0.5010 -0.0000 0.8654
vn 0.0000 -1.0000 -0.0000
vn 0.9662 -0.0007 -0.2577
vn 0.5997 0.1630 0.7834
vn 0.9913 -0.0007 0.1317
vn -0.1299 0.1630 0.9780
vn -0.4943 0.1630 0.8539
vn -0.7834 0.1630 0.5997
vn -0.9533 0.1630 0.2542
vn -0.9780 0.1630 -0.1299
vn -0.8539 0.1630 -0.4943
vn -0.5997 0.1630 -0.7834
vn -0.2543 0.1630 -0.9533
vn 0.1299 0.1630 -0.9780
vn 0.4943 0.1630 -0.8539
vn 0.7834 0.1630 -0.5997
vn 0.7201 -0.6872 0.0957
vn 0.2543 0.1630 0.9533
vn 0.0000 1.0000 0.0000
vn 0.7941 0.0000 -0.6078
vn -0.7941 -0.0000 0.6078
vn 0.9662 0.0000 -0.2577
vn -0.9913 0.0000 -0.1317
vn -0.9662 0.0000 0.2577
vn 0.9913 0.0000 0.1317
vn -0.8654 0.0000 -0.5010
vn 0.8654 -0.0000 0.5010
vn -0.6078 0.0000 -0.7941
vn 0.6078 -0.0000 0.7941
vn -0.2577 0.0000 -0.9662
vn 0.2577 0.0000 0.9662
vn 0.1317 0.0000 -0.9913
vn -0.1317 0.0000 0.9913
vn 0.5010 0.0000 -0.8654
vn 0.9636 0.2346 0.1280
vn 0.3991 0.9154 0.0530
vn 0.8413 0.2346 0.4870
vn 0.3485 0.9154 0.2017
vn 0.5909 0.2346 0.7719
vn 0.2447 0.9154 0.3197
vn 0.2505 0.2346 0.9392
vn 0.1038 0.9154 0.3890
vn -0.1280 0.2346 0.9636
vn -0.0530 0.9154 0.3991
vn -0.4870 0.2346 0.8413
vn -0.2017 0.9154 0.3485
vn -0.7719 0.2346 0.5909
vn -0.3197 0.9154 0.2447
vn -0.9392 0.2346 0.2505
vn -0.3891 0.9154 0.1038
vn -0.9636 0.2346 -0.1280
vn -0.3991 0.9154 -0.0530
vn -0.8413 0.2346 -0.4870
vn -0.3485 0.9154 -0.2017
vn -0.5909 0.2346 -0.7719
vn -0.2447 0.9154 -0.3197
vn -0.2505 0.2346 -0.9392
vn -0.1038 0.9154 -0.3890
vn 0.1280 0.2346 -0.9636
vn 0.0530 0.9154 -0.3991
vn 0.4870 0.2346 -0.8413
vn 0.2017 0.9154 -0.3485
vn 0.7719 0.2346 -0.5909
vn 0.3197 0.9154 -0.2447
vn 0.9392 0.2346 -0.2505
vn 0.3891 0.9154 -0.1038
vn 0.9533 0.1630 -0.2542
vn 0.7593 -0.6429 0.1009
vn 0.9602 0.2485 0.1275
vn 0.4740 0.8783 0.0630
vn 0.7401 -0.6429 -0.1974
vn 0.9359 0.2485 -0.2496
vn 0.4620 0.8783 -0.1232
vn 0.6082 -0.6429 -0.4656
vn 0.7692 0.2485 -0.5888
vn 0.3797 0.8783 -0.2907
vn 0.3837 -0.6429 -0.6629
vn 0.4853 0.2485 -0.8383
vn 0.2396 0.8783 -0.4138
vn 0.1009 -0.6429 -0.7593
vn 0.1275 0.2485 -0.9602
vn 0.0630 0.8783 -0.4740
vn -0.1974 -0.6429 -0.7401
vn -0.2496 0.2485 -0.9359
vn -0.1232 0.8783 -0.4620
vn -0.4656 -0.6429 -0.6082
vn -0.5888 0.2485 -0.7692
vn -0.2907 0.8783 -0.3797
vn -0.6629 -0.6429 -0.3837
vn -0.8383 0.2485 -0.4853
vn -0.4138 0.8783 -0.2396
vn -0.7593 -0.6429 -0.1009
vn -0.9602 0.2485 -0.1275
vn -0.4740 0.8783 -0.0630
vn -0.7401 -0.6429 0.1974
vn -0.9359 0.2485 0.2496
vn -0.4620 0.8783 0.1232
vn -0.6082 -0.6429 0.4656
vn -0.7692 0.2485 0.5888
vn -0.3797 0.8783 0.2907
vn -0.3837 -0.6429 0.6629
vn -0.4853 0.2485 0.8383
vn -0.2396 0.8783 0.4138
vn -0.1009 -0.6429 0.7593
vn -0.1275 0.2485 0.9602
vn -0.0630 0.8783 0.4740
vn 0.1974 -0.6429 0.7401
vn 0.2496 0.2485 0.9359
vn 0.1232 0.8783 0.4620
vn 0.4656 -0.6429 0.6082
vn 0.5888 0.2485 0.7692
vn 0.2907 0.8783 0.3797
vn 0.6629 -0.6429 0.3837
vn 0.8383 0.2485 0.4853
vn 0.4138 0.8783 0.2396
vn 0.9780 0.1630 0.1299
vn 0.7019 -0.6872 -0.1872
vn 0.5768 -0.6872 -0.4416
vn 0.3640 -0.6872 -0.6287
vn 0.0957 -0.6872 -0.7201
vn -0.1872 -0.6872 -0.7019
vn -0.4416 -0.6872 -0.5768
vn -0.6287 -0.6872 -0.3640
vn -0.7201 -0.6872 -0.0957
vn -0.7019 -0.6872 0.1872
vn -0.5768 -0.6872 0.4416
vn -0.3640 -0.6872 0.6287
vn -0.0957 -0.6872 0.7201
vn 0.1872 -0.6872 0.7019
vn 0.4416 -0.6872 0.5768
vn 0.6287 -0.6872 0.3640
vn 0.7129 0.6948 0.0947
vn 0.6949 0.6948 -0.1853
vn 0.1853 0.6948 0.6949
vn 0.5711 0.6948 -0.4371
vn 0.3603 0.6948 -0.6224
vn 0.0947 0.6948 -0.7129
vn -0.1853 0.6948 -0.6949
vn -0.4371 0.6948 -0.5711
vn -0.6224 0.6948 -0.3603
vn -0.7129 0.6948 -0.0947
vn -0.6949 0.6948 0.1853
vn -0.5711 0.6948 0.4371
vn -0.3603 0.6948 0.6224
vn -0.0947 0.6948 0.7129
vn 0.4371 0.6948 0.5711
vn 0.6224 0.6948 0.3603
usemtl mat_cute
s off
f 62/1/1 61/2/1 122/3/1 117/4/1
f 61/2/2 60/5/2 126/6/2 122/3/2
f 60/5/3 59/7/3 130/8/3 126/6/3
f 59/7/4 58/9/4 134/10/4 130/8/4
f 58/9/5 57/11/5 138/12/5 134/10/5
f 57/11/6 56/13/6 142/14/6 138/12/6
f 56/13/7 55/15/7 146/16/7 142/14/7
f 55/15/8 54/17/8 150/18/8 146/16/8
f 54/17/9 53/19/9 154/20/9 150/18/9
f 53/19/10 52/21/10 158/22/10 154/20/10
f 52/21/11 51/23/11 162/24/11 158/22/11
f 51/23/12 50/25/12 166/26/12 162/24/12
f 50/25/13 49/27/13 170/28/13 166/26/13
f 49/27/14 64/29/14 174/30/14 170/28/14
f 178/31/15 180/32/15 5/33/15 3/34/15
f 30/35/16 28/36/16 46/37/16 47/38/16
f 1/39/17 3/40/17 5/41/17 7/42/17 9/43/17 11/44/17 13/45/17 15/46/17 17/47/17 19/48/17 21/49/17 23/50/17 25/51/17 27/52/17 29/53/17 31/54/17
f 64/29/18 63/55/18 114/56/18 174/30/18
f 180/32/19 181/57/19 7/58/19 5/33/19
f 63/59/20 62/1/20 117/4/20 114/60/20
f 182/61/21 183/62/21 11/63/21 9/64/21
f 183/62/22 184/65/22 13/66/22 11/63/22
f 184/65/23 185/67/23 15/68/23 13/66/23
f 185/67/24 186/69/24 17/70/24 15/68/24
f 186/69/25 187/71/25 19/72/25 17/70/25
f 187/71/26 188/73/26 21/74/26 19/72/26
f 188/73/27 189/75/27 23/76/27 21/74/27
f 189/75/28 190/77/28 25/78/28 23/76/28
f 190/77/29 191/79/29 27/80/29 25/78/29
f 191/79/30 192/81/30 29/82/30 27/80/30
f 192/81/31 179/83/31 31/84/31 29/82/31
f 68/85/32 66/86/32 62/1/32 63/59/32
f 181/57/33 182/61/33 9/64/33 7/58/33
f 34/87/34 48/88/34 47/89/34 46/90/34 45/91/34 44/92/34 43/93/34 42/94/34 41/95/34 40/96/34 39/97/34 38/98/34 37/99/34 36/100/34 35/101/34 33/102/34
f 16/103/35 14/104/35 39/105/35 40/106/35
f 32/107/36 30/35/36 47/38/36 48/108/36
f 18/109/37 16/103/37 40/106/37 41/110/37
f 4/111/38 2/112/38 34/113/38 33/114/38
f 2/112/39 32/107/39 48/108/39 34/113/39
f 20/115/40 18/109/40 41/110/40 42/116/40
f 6/117/41 4/111/41 33/114/41 35/118/41
f 22/119/42 20/115/42 42/116/42 43/120/42
f 8/121/43 6/117/43 35/118/43 36/122/43
f 24/123/44 22/119/44 43/120/44 44/124/44
f 10/125/45 8/121/45 36/122/45 37/126/45
f 26/127/46 24/123/46 44/124/46 45/128/46
f 12/129/47 10/125/47 37/126/47 38/130/47
f 28/36/48 26/127/48 45/128/48 46/37/48
f 14/104/49 12/129/49 38/130/49 39/105/49
f 2/131/34 4/132/34 65/133/34 69/134/34
f 32/135/34 2/131/34 69/134/34 110/136/34
f 30/137/34 32/135/34 110/136/34 107/138/34
f 28/139/34 30/137/34 107/138/34 104/140/34
f 26/141/34 28/139/34 104/140/34 101/142/34
f 24/143/34 26/141/34 101/142/34 98/144/34
f 22/145/34 24/143/34 98/144/34 95/146/34
f 20/147/34 22/145/34 95/146/34 92/148/34
f 18/149/34 20/147/34 92/148/34 89/150/34
f 16/151/34 18/149/34 89/150/34 86/152/34
f 14/153/34 16/151/34 86/152/34 83/154/34
f 12/155/34 14/153/34 83/154/34 80/156/34
f 10/157/34 12/155/34 80/156/34 77/158/34
f 8/159/34 10/157/34 77/158/34 74/160/34
f 6/161/34 8/159/34 74/160/34 71/162/34
f 4/132/34 6/161/34 71/162/34 65/133/34
f 66/86/50 68/85/50 70/163/50 67/164/50
f 67/165/51 70/166/51 69/134/51 65/133/51
f 72/167/52 66/86/52 67/168/52 73/169/52
f 73/170/53 67/171/53 65/133/53 71/162/53
f 75/172/54 72/167/54 73/173/54 76/174/54
f 76/175/55 73/176/55 71/162/55 74/160/55
f 78/177/56 75/172/56 76/178/56 79/179/56
f 79/180/57 76/181/57 74/160/57 77/158/57
f 81/182/58 78/177/58 79/183/58 82/184/58
f 82/185/59 79/186/59 77/158/59 80/156/59
f 84/187/60 81/182/60 82/188/60 85/189/60
f 85/190/61 82/191/61 80/156/61 83/154/61
f 87/192/62 84/187/62 85/193/62 88/194/62
f 88/195/63 85/196/63 83/154/63 86/152/63
f 90/197/64 87/192/64 88/198/64 91/199/64
f 91/200/65 88/201/65 86/152/65 89/150/65
f 93/202/66 90/197/66 91/203/66 94/204/66
f 94/205/67 91/206/67 89/150/67 92/148/67
f 96/207/68 93/202/68 94/208/68 97/209/68
f 97/210/69 94/211/69 92/148/69 95/146/69
f 99/212/70 96/207/70 97/213/70 100/214/70
f 100/215/71 97/216/71 95/146/71 98/144/71
f 102/217/72 99/212/72 100/218/72 103/219/72
f 103/220/73 100/221/73 98/144/73 101/142/73
f 105/222/74 102/217/74 103/223/74 106/224/74
f 106/225/75 103/226/75 101/142/75 104/140/75
f 108/227/76 105/222/76 106/228/76 109/229/76
f 109/230/77 106/231/77 104/140/77 107/138/77
f 111/232/78 108/227/78 109/233/78 112/234/78
f 112/235/79 109/236/79 107/138/79 110/136/79
f 68/237/80 111/232/80 112/238/80 70/239/80
f 70/240/81 112/241/81 110/136/81 69/134/81
f 179/83/82 177/242/82 1/243/82 31/84/82
f 118/244/83 113/245/83 115/246/83 120/247/83
f 120/247/84 115/246/84 116/248/84 119/249/84
f 119/249/85 116/248/85 114/60/85 117/4/85
f 113/250/86 173/251/86 175/252/86 115/253/86
f 115/253/87 175/252/87 176/254/87 116/255/87
f 116/255/88 176/254/88 174/30/88 114/56/88
f 173/251/89 169/256/89 171/257/89 175/252/89
f 175/252/90 171/257/90 172/258/90 176/254/90
f 176/254/91 172/258/91 170/28/91 174/30/91
f 169/256/92 165/259/92 167/260/92 171/257/92
f 171/257/93 167/260/93 168/261/93 172/258/93
f 172/258/94 168/261/94 166/26/94 170/28/94
f 165/259/95 161/262/95 163/263/95 167/260/95
f 167/260/96 163/263/96 164/264/96 168/261/96
f 168/261/97 164/264/97 162/24/97 166/26/97
f 161/262/98 157/265/98 159/266/98 163/263/98
f 163/263/99 159/266/99 160/267/99 164/264/99
f 164/264/100 160/267/100 158/22/100 162/24/100
f 157/265/101 153/268/101 155/269/101 159/266/101
f 159/266/102 155/269/102 156/270/102 160/267/102
f 160/267/103 156/270/103 154/20/103 158/22/103
f 153/268/104 149/271/104 151/272/104 155/269/104
f 155/269/105 151/272/105 152/273/105 156/270/105
f 156/270/106 152/273/106 150/18/106 154/20/106
f 149/271/107 145/274/107 147/275/107 151/272/107
f 151/272/108 147/275/108 148/276/108 152/273/108
f 152/273/109 148/276/109 146/16/109 150/18/109
f 145/274/110 141/277/110 143/278/110 147/275/110
f 147/275/111 143/278/111 144/279/111 148/276/111
f 148/276/112 144/279/112 142/14/112 146/16/112
f 141/277/113 137/280/113 139/281/113 143/278/113
f 143/278/114 139/281/114 140/282/114 144/279/114
f 144/279/115 140/282/115 138/12/115 142/14/115
f 137/280/116 133/283/116 135/284/116 139/281/116
f 139/281/117 135/284/117 136/285/117 140/282/117
f 140/282/118 136/285/118 134/10/118 138/12/118
f 133/283/119 129/286/119 131/287/119 135/284/119
f 135/284/120 131/287/120 132/288/120 136/285/120
f 136/285/121 132/288/121 130/8/121 134/10/121
f 129/286/122 125/289/122 127/290/122 131/287/122
f 131/287/123 127/290/123 128/291/123 132/288/123
f 132/288/124 128/291/124 126/6/124 130/8/124
f 125/289/125 121/292/125 123/293/125 127/290/125
f 127/290/126 123/293/126 124/294/126 128/291/126
f 128/291/127 124/294/127 122/3/127 126/6/127
f 121/292/128 118/244/128 120/247/128 123/293/128
f 123/293/129 120/247/129 119/249/129 124/294/129
f 124/294/130 119/249/130 117/4/130 122/3/130
f 177/295/131 178/31/131 3/34/131 1/296/131
f 111/232/132 68/237/132 63/55/132 64/29/132
f 108/227/133 111/232/133 64/29/133 49/27/133
f 105/222/134 108/227/134 49/27/134 50/25/134
f 102/217/135 105/222/135 50/25/135 51/23/135
f 99/212/136 102/217/136 51/23/136 52/21/136
f 96/207/137 99/212/137 52/21/137 53/19/137
f 93/202/138 96/207/138 53/19/138 54/17/138
f 90/197/139 93/202/139 54/17/139 55/15/139
f 87/192/140 90/197/140 55/15/140 56/13/140
f 84/187/141 87/192/141 56/13/141 57/11/141
f 81/182/142 84/187/142 57/11/142 58/9/142
f 78/177/143 81/182/143 58/9/143 59/7/143
f 75/172/144 78/177/144 59/7/144 60/5/144
f 72/167/145 75/172/145 60/5/145 61/2/145
f 66/86/146 72/167/146 61/2/146 62/1/146
f 113/245/147 118/244/147 178/31/147 177/295/147
f 173/251/148 113/250/148 177/242/148 179/83/148
f 125/289/149 129/286/149 182/61/149 181/57/149
f 169/256/150 173/251/150 179/83/150 192/81/150
f 165/259/151 169/256/151 192/81/151 191/79/151
f 161/262/152 165/259/152 191/79/152 190/77/152
f 157/265/153 161/262/153 190/77/153 189/75/153
f 153/268/154 157/265/154 189/75/154 188/73/154
f 149/271/155 153/268/155 188/73/155 187/71/155
f 145/274/156 149/271/156 187/71/156 186/69/156
f 141/277/157 145/274/157 186/69/157 185/67/157
f 137/280/158 141/277/158 185/67/158 184/65/158
f 133/283/159 137/280/159 184/65/159 183/62/159
f 129/286/160 133/283/160 183/62/160 182/61/160
f 121/292/161 125/289/161 181/57/161 180/32/161
f 118/244/162 121/292/162 180/32/162 178/31/162
