# Blender v2.82 (sub 7) OBJ File: 'models.blend'
# www.blender.org
mtllib estante.mtl
o Cube.024_Cube.030
v 1.259465 1.299151 0.420351
v 1.259465 1.368897 0.420351
v -1.299194 1.299151 0.420350
v -1.299194 1.368897 0.420350
v 1.259465 1.299151 0.193968
v 1.259465 1.368897 0.193968
v -1.299194 1.299151 0.193968
v -1.299194 1.368897 0.193968
v -0.876688 -0.005851 0.682222
v -0.876688 6.274338 0.682222
v -1.084954 -0.005851 0.682222
v -1.084954 6.274338 0.682222
v -0.876688 -0.005851 0.473956
v -0.876688 6.274338 0.473956
v -1.084954 -0.005851 0.473956
v -1.084954 6.274338 0.473956
v -0.876688 -0.005851 -0.448006
v -0.876688 6.274338 -0.448006
v -1.084954 -0.005851 -0.448006
v -1.084954 6.274338 -0.448006
v -0.876688 -0.005851 -0.656272
v -0.876688 6.274338 -0.656272
v -1.084954 -0.005851 -0.656272
v -1.084954 6.274338 -0.656272
v 1.125466 -0.005851 0.682222
v 1.125466 6.274338 0.682222
v 0.917200 -0.005851 0.682222
v 0.917200 6.274338 0.682222
v 1.125466 -0.005851 0.473956
v 1.125466 6.274338 0.473956
v 0.917200 -0.005851 0.473956
v 0.917200 6.274338 0.473956
v 1.125466 -0.005851 -0.448006
v 1.125466 6.274338 -0.448006
v 0.917200 -0.005851 -0.448006
v 0.917200 6.274338 -0.448006
v 1.125466 -0.005851 -0.656272
v 1.125466 6.274338 -0.656272
v 0.917200 -0.005851 -0.656272
v 0.917200 6.274338 -0.656272
v -0.831112 1.208121 0.774642
v -0.831112 1.313155 0.774642
v -1.129573 1.208121 0.774642
v -1.129573 1.313155 0.774642
v -0.831112 1.208121 -0.768836
v -0.831112 1.313155 -0.768836
v -1.129573 1.208121 -0.768836
v -1.129573 1.313155 -0.768836
v 1.168888 1.208121 0.774643
v 1.168888 1.313155 0.774643
v 0.870427 1.208121 0.774643
v 0.870427 1.313155 0.774643
v 1.168888 1.208121 -0.768835
v 1.168888 1.313155 -0.768835
v 0.870428 1.208121 -0.768835
v 0.870428 1.313155 -0.768835
v 1.253970 1.299151 0.150833
v 1.253970 1.368897 0.150833
v -1.302677 1.299151 0.049375
v -1.302677 1.368897 0.049375
v 1.262948 1.299151 -0.075371
v 1.262948 1.368897 -0.075371
v -1.293700 1.299151 -0.176829
v -1.293700 1.368897 -0.176829
v 1.259465 1.299151 -0.199724
v 1.259465 1.368897 -0.199724
v -1.299194 1.299151 -0.199724
v -1.299194 1.368897 -0.199724
v 1.259465 1.299151 -0.426105
v 1.259465 1.368897 -0.426105
v -1.299194 1.299151 -0.426106
v -1.299194 1.368897 -0.426106
v 1.259465 2.967990 0.420351
v 1.259465 3.037736 0.420351
v -1.299194 2.967990 0.420350
v -1.299194 3.037736 0.420350
v 1.259465 2.967990 0.193968
v 1.259465 3.037736 0.193968
v -1.299194 2.967990 0.193968
v -1.299194 3.037736 0.193968
v -0.831112 2.876960 0.774642
v -0.831112 2.981994 0.774642
v -1.129573 2.876960 0.774642
v -1.129573 2.981994 0.774642
v -0.831112 2.876960 -0.768836
v -0.831112 2.981994 -0.768836
v -1.129573 2.876960 -0.768836
v -1.129573 2.981994 -0.768836
v 1.168888 2.876960 0.774643
v 1.168888 2.981994 0.774643
v 0.870427 2.876960 0.774643
v 0.870427 2.981994 0.774643
v 1.168888 2.876960 -0.768835
v 1.168888 2.981994 -0.768835
v 0.870428 2.876960 -0.768835
v 0.870428 2.981994 -0.768835
v 1.257981 2.967990 0.115870
v 1.257981 3.037736 0.115870
v -1.300486 2.967990 0.084499
v -1.300486 3.037736 0.084499
v 1.260757 2.967990 -0.110495
v 1.260757 3.037736 -0.110495
v -1.297711 2.967990 -0.141866
v -1.297711 3.037736 -0.141866
v 1.259465 2.967990 -0.199724
v 1.259465 3.037736 -0.199724
v -1.299194 2.967990 -0.199724
v -1.299194 3.037736 -0.199724
v 1.259465 2.967990 -0.426105
v 1.259465 3.037736 -0.426105
v -1.299194 2.967990 -0.426106
v -1.299194 3.037736 -0.426106
v 1.261119 4.967990 0.399787
v 1.261119 5.037736 0.399787
v -1.297211 4.967990 0.440885
v -1.297211 5.037736 0.440885
v 1.257482 4.967990 0.173434
v 1.257482 5.037736 0.173434
v -1.300848 4.967990 0.214532
v -1.300848 5.037736 0.214532
v -0.831112 4.876960 0.774642
v -0.831112 4.981994 0.774642
v -1.129573 4.876960 0.774642
v -1.129573 4.981994 0.774642
v -0.831112 4.876960 -0.768836
v -0.831112 4.981994 -0.768836
v -1.129573 4.876960 -0.768836
v -1.129573 4.981994 -0.768836
v 1.168888 4.876960 0.774643
v 1.168888 4.981994 0.774643
v 0.870427 4.876960 0.774643
v 0.870427 4.981994 0.774643
v 1.168888 4.876960 -0.768835
v 1.168888 4.981994 -0.768835
v 0.870428 4.876960 -0.768835
v 0.870428 4.981994 -0.768835
v 1.253970 4.967990 0.150833
v 1.253970 5.037736 0.150833
v -1.302677 4.967990 0.049375
v -1.302677 5.037736 0.049375
v 1.262948 4.967990 -0.075371
v 1.262948 5.037736 -0.075371
v -1.293700 4.967990 -0.176829
v -1.293700 5.037736 -0.176829
v 1.259465 4.967990 -0.199724
v 1.259465 5.037736 -0.199724
v -1.299194 4.967990 -0.199724
v -1.299194 5.037736 -0.199724
v 1.259465 4.967990 -0.426105
v 1.259465 5.037736 -0.426105
v -1.299194 4.967990 -0.426106
v -1.299194 5.037736 -0.426106
v 1.259465 5.967991 0.420351
v 1.259465 6.037735 0.420351
v -1.299194 5.967991 0.420350
v -1.299194 6.037735 0.420350
v 1.259465 5.967991 0.193968
v 1.259465 6.037735 0.193968
v -1.299194 5.967991 0.193968
v -1.299194 6.037735 0.193968
v -0.831112 5.876960 0.774642
v -0.831112 5.981994 0.774642
v -1.129573 5.876960 0.774642
v -1.129573 5.981994 0.774642
v -0.831112 5.876960 -0.768836
v -0.831112 5.981994 -0.768836
v -1.129573 5.876960 -0.768836
v -1.129573 5.981994 -0.768836
v 1.168888 5.876960 0.774643
v 1.168888 5.981994 0.774643
v 0.870427 5.876960 0.774643
v 0.870427 5.981994 0.774643
v 1.168888 5.876960 -0.768835
v 1.168888 5.981994 -0.768835
v 0.870428 5.876960 -0.768835
v 0.870428 5.981994 -0.768835
v 1.253970 5.967991 0.150833
v 1.253970 6.037735 0.150833
v -1.302677 5.967991 0.049375
v -1.302677 6.037735 0.049375
v 1.262948 5.967991 -0.075371
v 1.262948 6.037735 -0.075371
v -1.293700 5.967991 -0.176829
v -1.293700 6.037735 -0.176829
v 1.259465 5.967991 -0.199724
v 1.259465 6.037735 -0.199724
v -1.299194 5.967991 -0.199724
v -1.299194 6.037735 -0.199724
v 1.259465 5.967991 -0.426105
v 1.259465 6.037735 -0.426105
v -1.299194 5.967991 -0.426106
v -1.299194 6.037735 -0.426106
vt 0.634194 0.448233
vt 0.634194 0.479644
vt 0.611971 0.479644
vt 0.611971 0.448233
vt 0.751671 0.479643
vt 0.751671 0.448232
vt 0.757855 0.448232
vt 0.757855 0.479643
vt 0.634194 0.479644
vt 0.634194 0.511056
vt 0.611971 0.511056
vt 0.611971 0.479645
vt 0.751688 0.416820
vt 0.751688 0.448232
vt 0.745504 0.448231
vt 0.745504 0.416820
vt 0.758956 0.407880
vt 0.752771 0.407880
vt 0.752771 0.385409
vt 0.758956 0.385409
vt 0.765141 0.385409
vt 0.771325 0.385409
vt 0.771325 0.407880
vt 0.765141 0.407880
vt 0.692994 0.486509
vt 0.692993 0.380679
vt 0.696092 0.380679
vt 0.696092 0.486509
vt 0.673508 0.486509
vt 0.673509 0.380679
vt 0.683251 0.380679
vt 0.683250 0.486509
vt 0.714686 0.380679
vt 0.714686 0.486509
vt 0.711588 0.486509
vt 0.711588 0.380679
vt 0.624797 0.486509
vt 0.624796 0.380679
vt 0.634538 0.380679
vt 0.634539 0.486509
vt 0.720883 0.381970
vt 0.720883 0.382185
vt 0.717785 0.382185
vt 0.717785 0.381970
vt 0.720883 0.381109
vt 0.720883 0.381325
vt 0.717785 0.381325
vt 0.717785 0.381109
vt 0.696093 0.486509
vt 0.696092 0.380679
vt 0.699191 0.380679
vt 0.699192 0.486509
vt 0.624796 0.380679
vt 0.624796 0.486509
vt 0.615054 0.486509
vt 0.615054 0.380679
vt 0.717785 0.380679
vt 0.717785 0.486509
vt 0.714686 0.486509
vt 0.714686 0.380679
vt 0.644282 0.486509
vt 0.644281 0.380679
vt 0.654023 0.380679
vt 0.654024 0.486509
vt 0.720883 0.380679
vt 0.720883 0.380894
vt 0.717785 0.380894
vt 0.717785 0.380679
vt 0.720883 0.381540
vt 0.720883 0.381755
vt 0.717785 0.381755
vt 0.717785 0.381540
vt 0.699192 0.486509
vt 0.699192 0.380679
vt 0.702290 0.380679
vt 0.702291 0.486509
vt 0.683251 0.486509
vt 0.683251 0.380679
vt 0.692993 0.380679
vt 0.692993 0.486509
vt 0.708489 0.380679
vt 0.708489 0.486509
vt 0.705390 0.486509
vt 0.705390 0.380679
vt 0.634539 0.486509
vt 0.634539 0.380679
vt 0.644281 0.380679
vt 0.644281 0.486509
vt 0.717785 0.381540
vt 0.717785 0.381325
vt 0.720883 0.381325
vt 0.720883 0.381540
vt 0.717785 0.382400
vt 0.717785 0.382185
vt 0.720883 0.382185
vt 0.720883 0.382400
vt 0.702292 0.486509
vt 0.702291 0.380679
vt 0.705390 0.380679
vt 0.705390 0.486509
vt 0.663766 0.486509
vt 0.663766 0.380679
vt 0.673508 0.380679
vt 0.673508 0.486509
vt 0.711588 0.380679
vt 0.711588 0.486509
vt 0.708489 0.486509
vt 0.708489 0.380679
vt 0.654024 0.486509
vt 0.654024 0.380679
vt 0.663766 0.380679
vt 0.663766 0.486509
vt 0.717785 0.381970
vt 0.717785 0.381755
vt 0.720883 0.381755
vt 0.720883 0.381970
vt 0.717785 0.381109
vt 0.717785 0.380894
vt 0.720883 0.380894
vt 0.720883 0.381109
vt 0.680330 0.466797
vt 0.680330 0.424748
vt 0.682399 0.424748
vt 0.682399 0.466797
vt 0.749677 0.424748
vt 0.749677 0.382699
vt 0.783316 0.382699
vt 0.783316 0.424748
vt 0.663779 0.424748
vt 0.663779 0.466797
vt 0.661710 0.466797
vt 0.661710 0.424748
vt 0.682399 0.508846
vt 0.682399 0.466797
vt 0.716038 0.466797
vt 0.716038 0.508846
vt 0.649296 0.462631
vt 0.649296 0.424748
vt 0.651365 0.424748
vt 0.651365 0.462631
vt 0.757953 0.424748
vt 0.757953 0.462631
vt 0.755884 0.462631
vt 0.755884 0.424748
vt 0.672055 0.466797
vt 0.672055 0.424748
vt 0.674123 0.424748
vt 0.674123 0.466797
vt 0.716038 0.550895
vt 0.716038 0.508846
vt 0.749677 0.508846
vt 0.749677 0.550895
vt 0.659641 0.424748
vt 0.659641 0.466797
vt 0.657572 0.466797
vt 0.657572 0.424748
vt 0.648760 0.508846
vt 0.648760 0.466797
vt 0.682399 0.466797
vt 0.682399 0.508846
vt 0.755884 0.542562
vt 0.755884 0.504680
vt 0.757953 0.504680
vt 0.757953 0.542562
vt 0.760022 0.424748
vt 0.760022 0.462631
vt 0.757953 0.462631
vt 0.757953 0.424748
vt 0.611971 0.448233
vt 0.611971 0.416821
vt 0.634259 0.416821
vt 0.634259 0.448233
vt 0.745462 0.542468
vt 0.745462 0.511056
vt 0.751642 0.511056
vt 0.751642 0.542468
vt 0.656548 0.416820
vt 0.656548 0.385409
vt 0.678836 0.385409
vt 0.678836 0.416820
vt 0.764011 0.542468
vt 0.764011 0.511056
vt 0.770191 0.511056
vt 0.770191 0.542468
vt 0.709545 0.386104
vt 0.715687 0.385409
vt 0.715687 0.408036
vt 0.709545 0.408731
vt 0.691120 0.385409
vt 0.697261 0.386104
vt 0.697261 0.408731
vt 0.691120 0.408036
vt 0.701017 0.479644
vt 0.701017 0.511056
vt 0.678794 0.511056
vt 0.678794 0.479644
vt 0.757873 0.448231
vt 0.757873 0.416820
vt 0.764057 0.416820
vt 0.764057 0.448231
vt 0.656482 0.479644
vt 0.656482 0.511056
vt 0.634259 0.511056
vt 0.634259 0.479644
vt 0.751647 0.511056
vt 0.751647 0.479644
vt 0.757831 0.479644
vt 0.757831 0.511056
vt 0.776376 0.555998
vt 0.770191 0.555998
vt 0.770191 0.533527
vt 0.776376 0.533527
vt 0.770191 0.511056
vt 0.776376 0.511056
vt 0.776376 0.533527
vt 0.770191 0.533527
vt 0.701041 0.479644
vt 0.701041 0.448232
vt 0.723264 0.448232
vt 0.723264 0.479644
vt 0.751688 0.448231
vt 0.751688 0.416820
vt 0.757873 0.416820
vt 0.757873 0.448231
vt 0.656548 0.511056
vt 0.656548 0.479644
vt 0.678770 0.479644
vt 0.678770 0.511056
vt 0.757831 0.511056
vt 0.757831 0.479644
vt 0.764016 0.479644
vt 0.764016 0.511056
vt 0.752771 0.407880
vt 0.746587 0.407880
vt 0.746587 0.385409
vt 0.752771 0.385409
vt 0.758956 0.385409
vt 0.765141 0.385409
vt 0.765141 0.407880
vt 0.758956 0.407880
vt 0.749677 0.466797
vt 0.749677 0.424748
vt 0.751746 0.424748
vt 0.751746 0.466797
vt 0.682399 0.550895
vt 0.682399 0.508846
vt 0.716038 0.508846
vt 0.716038 0.550895
vt 0.669986 0.424748
vt 0.669986 0.466797
vt 0.667917 0.466797
vt 0.667917 0.424748
vt 0.716038 0.508846
vt 0.716038 0.466797
vt 0.749677 0.466797
vt 0.749677 0.508846
vt 0.753815 0.504680
vt 0.753815 0.466797
vt 0.755884 0.466797
vt 0.755884 0.504680
vt 0.653434 0.424748
vt 0.653434 0.462631
vt 0.651365 0.462631
vt 0.651365 0.424748
vt 0.749677 0.508846
vt 0.749677 0.466797
vt 0.751746 0.466797
vt 0.751746 0.508846
vt 0.615121 0.550895
vt 0.615121 0.508846
vt 0.648760 0.508846
vt 0.648760 0.550895
vt 0.667917 0.424748
vt 0.667917 0.466797
vt 0.665848 0.466797
vt 0.665848 0.424748
vt 0.682399 0.466797
vt 0.682399 0.424748
vt 0.716038 0.424748
vt 0.716038 0.466797
vt 0.749677 0.546728
vt 0.749677 0.508846
vt 0.751746 0.508846
vt 0.751746 0.546728
vt 0.760022 0.466797
vt 0.760022 0.504680
vt 0.757953 0.504680
vt 0.757953 0.466797
vt 0.678794 0.448232
vt 0.678794 0.479644
vt 0.656548 0.479644
vt 0.656548 0.448232
vt 0.634259 0.542468
vt 0.634259 0.511056
vt 0.640444 0.511056
vt 0.640444 0.542468
vt 0.678794 0.479644
vt 0.678794 0.448232
vt 0.701041 0.448232
vt 0.701041 0.479644
vt 0.630524 0.511056
vt 0.630524 0.542468
vt 0.624340 0.542468
vt 0.624340 0.511056
vt 0.734222 0.385625
vt 0.740402 0.385409
vt 0.740402 0.407895
vt 0.734222 0.408111
vt 0.734222 0.408111
vt 0.728042 0.407895
vt 0.728042 0.385409
vt 0.734222 0.385625
vt 0.701059 0.448232
vt 0.701059 0.416820
vt 0.723281 0.416820
vt 0.723281 0.448232
vt 0.764040 0.448232
vt 0.764040 0.479643
vt 0.757855 0.479643
vt 0.757855 0.448232
vt 0.723240 0.479644
vt 0.723240 0.511056
vt 0.701017 0.511056
vt 0.701017 0.479644
vt 0.733093 0.542467
vt 0.733093 0.511055
vt 0.739278 0.511056
vt 0.739278 0.542467
vt 0.776404 0.470702
vt 0.770220 0.470702
vt 0.770220 0.448232
vt 0.776404 0.448232
vt 0.776376 0.511056
vt 0.782560 0.511056
vt 0.782560 0.533527
vt 0.776376 0.533527
vt 0.700980 0.511056
vt 0.700980 0.542468
vt 0.678794 0.542468
vt 0.678794 0.511056
vt 0.646627 0.511056
vt 0.646627 0.542468
vt 0.640444 0.542468
vt 0.640444 0.511056
vt 0.701017 0.542468
vt 0.701017 0.511056
vt 0.723203 0.511056
vt 0.723203 0.542468
vt 0.646627 0.542468
vt 0.646627 0.511056
vt 0.652811 0.511056
vt 0.652811 0.542468
vt 0.721864 0.408189
vt 0.715687 0.407905
vt 0.715687 0.385409
vt 0.721864 0.385692
vt 0.728042 0.407905
vt 0.721864 0.408189
vt 0.721864 0.385692
vt 0.728042 0.385409
vt 0.676192 0.466797
vt 0.676192 0.424748
vt 0.678261 0.424748
vt 0.678261 0.466797
vt 0.648760 0.424748
vt 0.648760 0.382699
vt 0.682399 0.382699
vt 0.682399 0.424748
vt 0.753815 0.424748
vt 0.753815 0.466797
vt 0.751746 0.466797
vt 0.751746 0.424748
vt 0.682399 0.424748
vt 0.682399 0.382699
vt 0.716038 0.382699
vt 0.716038 0.424748
vt 0.753815 0.542562
vt 0.753815 0.504680
vt 0.755884 0.504680
vt 0.755884 0.542562
vt 0.657572 0.424748
vt 0.657572 0.462631
vt 0.655503 0.462631
vt 0.655503 0.424748
vt 0.669986 0.466797
vt 0.669986 0.424748
vt 0.672055 0.424748
vt 0.672055 0.466797
vt 0.615121 0.424748
vt 0.615121 0.382699
vt 0.648760 0.382699
vt 0.648760 0.424748
vt 0.753815 0.466797
vt 0.753815 0.508846
vt 0.751746 0.508846
vt 0.751746 0.466797
vt 0.615121 0.466797
vt 0.615121 0.424748
vt 0.648760 0.424748
vt 0.648760 0.466797
vt 0.755884 0.504680
vt 0.755884 0.466797
vt 0.757953 0.466797
vt 0.757953 0.504680
vt 0.760022 0.504680
vt 0.760022 0.542562
vt 0.757953 0.542562
vt 0.757953 0.504680
vt 0.634259 0.385409
vt 0.634259 0.416821
vt 0.611971 0.416821
vt 0.611971 0.385409
vt 0.764011 0.511056
vt 0.764011 0.542468
vt 0.757831 0.542468
vt 0.757831 0.511056
vt 0.656548 0.385409
vt 0.656548 0.416821
vt 0.634259 0.416821
vt 0.634259 0.385409
vt 0.751651 0.542468
vt 0.751651 0.511056
vt 0.757831 0.511056
vt 0.757831 0.542468
vt 0.703403 0.386104
vt 0.709545 0.385409
vt 0.709545 0.408036
vt 0.703403 0.408731
vt 0.684978 0.385409
vt 0.691120 0.386104
vt 0.691120 0.408731
vt 0.684978 0.408036
vt 0.701059 0.416820
vt 0.701059 0.448232
vt 0.678836 0.448232
vt 0.678836 0.416820
vt 0.745462 0.511056
vt 0.745462 0.479644
vt 0.751647 0.479644
vt 0.751647 0.511056
vt 0.634259 0.479644
vt 0.634259 0.448232
vt 0.656482 0.448232
vt 0.656482 0.479644
vt 0.745486 0.479644
vt 0.745486 0.448232
vt 0.751671 0.448232
vt 0.751671 0.479644
vt 0.776426 0.439291
vt 0.770242 0.439291
vt 0.770242 0.416820
vt 0.776426 0.416820
vt 0.770196 0.479644
vt 0.776380 0.479644
vt 0.776380 0.502115
vt 0.770196 0.502115
vt 0.723264 0.479644
vt 0.723264 0.448232
vt 0.745486 0.448232
vt 0.745486 0.479644
vt 0.618156 0.542468
vt 0.618156 0.511056
vt 0.624340 0.511056
vt 0.624340 0.542468
vt 0.745504 0.416820
vt 0.745504 0.448232
vt 0.723281 0.448232
vt 0.723281 0.416820
vt 0.726909 0.542467
vt 0.726909 0.511055
vt 0.733093 0.511056
vt 0.733093 0.542467
vt 0.746587 0.407880
vt 0.740402 0.407880
vt 0.740402 0.385409
vt 0.746587 0.385409
vt 0.764057 0.416820
vt 0.770242 0.416820
vt 0.770242 0.439291
vt 0.764057 0.439291
vt 0.678261 0.466797
vt 0.678261 0.424748
vt 0.680330 0.424748
vt 0.680330 0.466797
vt 0.648760 0.550895
vt 0.648760 0.508846
vt 0.682399 0.508846
vt 0.682399 0.550895
vt 0.665848 0.424748
vt 0.665848 0.466797
vt 0.663779 0.466797
vt 0.663779 0.424748
vt 0.615121 0.508846
vt 0.615121 0.466797
vt 0.648760 0.466797
vt 0.648760 0.508846
vt 0.653434 0.462631
vt 0.653434 0.424748
vt 0.655503 0.424748
vt 0.655503 0.462631
vt 0.755884 0.424748
vt 0.755884 0.462631
vt 0.753815 0.462631
vt 0.753815 0.424748
vt 0.674123 0.466797
vt 0.674123 0.424748
vt 0.676192 0.424748
vt 0.676192 0.466797
vt 0.716038 0.424748
vt 0.716038 0.382699
vt 0.749677 0.382699
vt 0.749677 0.424748
vt 0.661710 0.424748
vt 0.661710 0.466797
vt 0.659641 0.466797
vt 0.659641 0.424748
vt 0.716038 0.466797
vt 0.716038 0.424748
vt 0.749677 0.424748
vt 0.749677 0.466797
vt 0.751746 0.546728
vt 0.751746 0.508846
vt 0.753815 0.508846
vt 0.753815 0.546728
vt 0.762091 0.424748
vt 0.762091 0.462631
vt 0.760022 0.462631
vt 0.760022 0.424748
vt 0.656548 0.448232
vt 0.656548 0.416820
vt 0.678836 0.416820
vt 0.678836 0.448232
vt 0.764016 0.511055
vt 0.764016 0.479644
vt 0.770196 0.479644
vt 0.770196 0.511056
vt 0.634259 0.448232
vt 0.634259 0.416821
vt 0.656548 0.416821
vt 0.656548 0.448232
vt 0.764040 0.479643
vt 0.764040 0.448232
vt 0.770220 0.448232
vt 0.770220 0.479643
vt 0.697261 0.386104
vt 0.703403 0.385409
vt 0.703403 0.408036
vt 0.697261 0.408731
vt 0.678836 0.385409
vt 0.684978 0.386104
vt 0.684978 0.408731
vt 0.678836 0.408036
vt 0.745462 0.479644
vt 0.745462 0.511055
vt 0.723240 0.511055
vt 0.723240 0.479644
vt 0.618156 0.511056
vt 0.618156 0.542468
vt 0.611971 0.542468
vt 0.611971 0.511056
vt 0.678770 0.511056
vt 0.678770 0.542467
vt 0.656548 0.542467
vt 0.656548 0.511056
vt 0.745462 0.511056
vt 0.745462 0.542467
vt 0.739278 0.542467
vt 0.739278 0.511055
vt 0.777510 0.407880
vt 0.771325 0.407880
vt 0.771325 0.385409
vt 0.777510 0.385409
vt 0.776376 0.533527
vt 0.782560 0.533527
vt 0.782560 0.555998
vt 0.776376 0.555998
vn -0.0000 0.0000 1.0000
vn -1.0000 0.0000 0.0000
vn 0.0000 0.0000 -1.0000
vn 1.0000 0.0000 0.0000
vn 0.0000 -1.0000 0.0000
vn 0.0000 1.0000 0.0000
vn -0.0397 0.0000 0.9992
vn -0.9992 0.0000 -0.0397
vn 0.0397 0.0000 -0.9992
vn 0.9992 0.0000 0.0397
vn -0.0123 0.0000 0.9999
vn -0.9999 0.0000 -0.0123
vn 0.0123 0.0000 -0.9999
vn 0.9999 0.0000 0.0123
vn 0.0161 0.0000 0.9999
vn -0.9999 0.0000 0.0161
vn -0.0161 0.0000 -0.9999
vn 0.9999 0.0000 -0.0161
usemtl mat_cute
s off
f 1/1/1 2/2/1 4/3/1 3/4/1
f 3/5/2 4/6/2 8/7/2 7/8/2
f 7/9/3 8/10/3 6/11/3 5/12/3
f 5/13/4 6/14/4 2/15/4 1/16/4
f 3/17/5 7/18/5 5/19/5 1/20/5
f 8/21/6 4/22/6 2/23/6 6/24/6
f 9/25/1 10/26/1 12/27/1 11/28/1
f 11/29/2 12/30/2 16/31/2 15/32/2
f 15/33/3 16/34/3 14/35/3 13/36/3
f 13/37/4 14/38/4 10/39/4 9/40/4
f 11/41/5 15/42/5 13/43/5 9/44/5
f 16/45/6 12/46/6 10/47/6 14/48/6
f 17/49/1 18/50/1 20/51/1 19/52/1
f 19/53/2 20/54/2 24/55/2 23/56/2
f 23/57/3 24/58/3 22/59/3 21/60/3
f 21/61/4 22/62/4 18/63/4 17/64/4
f 19/65/5 23/66/5 21/67/5 17/68/5
f 24/69/6 20/70/6 18/71/6 22/72/6
f 25/73/1 26/74/1 28/75/1 27/76/1
f 27/77/2 28/78/2 32/79/2 31/80/2
f 31/81/3 32/82/3 30/83/3 29/84/3
f 29/85/4 30/86/4 26/87/4 25/88/4
f 27/89/5 31/90/5 29/91/5 25/92/5
f 32/93/6 28/94/6 26/95/6 30/96/6
f 33/97/1 34/98/1 36/99/1 35/100/1
f 35/101/2 36/102/2 40/103/2 39/104/2
f 39/105/3 40/106/3 38/107/3 37/108/3
f 37/109/4 38/110/4 34/111/4 33/112/4
f 35/113/5 39/114/5 37/115/5 33/116/5
f 40/117/6 36/118/6 34/119/6 38/120/6
f 41/121/1 42/122/1 44/123/1 43/124/1
f 43/125/2 44/126/2 48/127/2 47/128/2
f 47/129/3 48/130/3 46/131/3 45/132/3
f 45/133/4 46/134/4 42/135/4 41/136/4
f 43/137/5 47/138/5 45/139/5 41/140/5
f 48/141/6 44/142/6 42/143/6 46/144/6
f 49/145/1 50/146/1 52/147/1 51/148/1
f 51/149/2 52/150/2 56/151/2 55/152/2
f 55/153/3 56/154/3 54/155/3 53/156/3
f 53/157/4 54/158/4 50/159/4 49/160/4
f 51/161/5 55/162/5 53/163/5 49/164/5
f 56/165/6 52/166/6 50/167/6 54/168/6
f 57/169/7 58/170/7 60/171/7 59/172/7
f 59/173/8 60/174/8 64/175/8 63/176/8
f 63/177/9 64/178/9 62/179/9 61/180/9
f 61/181/10 62/182/10 58/183/10 57/184/10
f 59/185/5 63/186/5 61/187/5 57/188/5
f 64/189/6 60/190/6 58/191/6 62/192/6
f 65/193/1 66/194/1 68/195/1 67/196/1
f 67/197/2 68/198/2 72/199/2 71/200/2
f 71/201/3 72/202/3 70/203/3 69/204/3
f 69/205/4 70/206/4 66/207/4 65/208/4
f 67/209/5 71/210/5 69/211/5 65/212/5
f 72/213/6 68/214/6 66/215/6 70/216/6
f 73/217/1 74/218/1 76/219/1 75/220/1
f 75/221/2 76/222/2 80/223/2 79/224/2
f 79/225/3 80/226/3 78/227/3 77/228/3
f 77/229/4 78/230/4 74/231/4 73/232/4
f 75/233/5 79/234/5 77/235/5 73/236/5
f 80/237/6 76/238/6 74/239/6 78/240/6
f 81/241/1 82/242/1 84/243/1 83/244/1
f 83/245/2 84/246/2 88/247/2 87/248/2
f 87/249/3 88/250/3 86/251/3 85/252/3
f 85/253/4 86/254/4 82/255/4 81/256/4
f 83/257/5 87/258/5 85/259/5 81/260/5
f 88/261/6 84/262/6 82/263/6 86/264/6
f 89/265/1 90/266/1 92/267/1 91/268/1
f 91/269/2 92/270/2 96/271/2 95/272/2
f 95/273/3 96/274/3 94/275/3 93/276/3
f 93/277/4 94/278/4 90/279/4 89/280/4
f 91/281/5 95/282/5 93/283/5 89/284/5
f 96/285/6 92/286/6 90/287/6 94/288/6
f 97/289/11 98/290/11 100/291/11 99/292/11
f 99/293/12 100/294/12 104/295/12 103/296/12
f 103/297/13 104/298/13 102/299/13 101/300/13
f 101/301/14 102/302/14 98/303/14 97/304/14
f 99/305/5 103/306/5 101/307/5 97/308/5
f 104/309/6 100/310/6 98/311/6 102/312/6
f 105/313/1 106/314/1 108/315/1 107/316/1
f 107/317/2 108/318/2 112/319/2 111/320/2
f 111/321/3 112/322/3 110/323/3 109/324/3
f 109/325/4 110/326/4 106/327/4 105/328/4
f 107/329/5 111/330/5 109/331/5 105/332/5
f 112/333/6 108/334/6 106/335/6 110/336/6
f 113/337/15 114/338/15 116/339/15 115/340/15
f 115/341/16 116/342/16 120/343/16 119/344/16
f 119/345/17 120/346/17 118/347/17 117/348/17
f 117/349/18 118/350/18 114/351/18 113/352/18
f 115/353/5 119/354/5 117/355/5 113/356/5
f 120/357/6 116/358/6 114/359/6 118/360/6
f 121/361/1 122/362/1 124/363/1 123/364/1
f 123/365/2 124/366/2 128/367/2 127/368/2
f 127/369/3 128/370/3 126/371/3 125/372/3
f 125/373/4 126/374/4 122/375/4 121/376/4
f 123/377/5 127/378/5 125/379/5 121/380/5
f 128/381/6 124/382/6 122/383/6 126/384/6
f 129/385/1 130/386/1 132/387/1 131/388/1
f 131/389/2 132/390/2 136/391/2 135/392/2
f 135/393/3 136/394/3 134/395/3 133/396/3
f 133/397/4 134/398/4 130/399/4 129/400/4
f 131/401/5 135/402/5 133/403/5 129/404/5
f 136/405/6 132/406/6 130/407/6 134/408/6
f 137/409/7 138/410/7 140/411/7 139/412/7
f 139/413/8 140/414/8 144/415/8 143/416/8
f 143/417/9 144/418/9 142/419/9 141/420/9
f 141/421/10 142/422/10 138/423/10 137/424/10
f 139/425/5 143/426/5 141/427/5 137/428/5
f 144/429/6 140/430/6 138/431/6 142/432/6
f 145/433/1 146/434/1 148/435/1 147/436/1
f 147/437/2 148/438/2 152/439/2 151/440/2
f 151/441/3 152/442/3 150/443/3 149/444/3
f 149/445/4 150/446/4 146/447/4 145/448/4
f 147/449/5 151/450/5 149/451/5 145/452/5
f 152/453/6 148/454/6 146/455/6 150/456/6
f 153/457/1 154/458/1 156/459/1 155/460/1
f 155/461/2 156/462/2 160/463/2 159/464/2
f 159/465/3 160/466/3 158/467/3 157/468/3
f 157/469/4 158/470/4 154/471/4 153/472/4
f 155/473/5 159/474/5 157/475/5 153/476/5
f 160/477/6 156/478/6 154/479/6 158/480/6
f 161/481/1 162/482/1 164/483/1 163/484/1
f 163/485/2 164/486/2 168/487/2 167/488/2
f 167/489/3 168/490/3 166/491/3 165/492/3
f 165/493/4 166/494/4 162/495/4 161/496/4
f 163/497/5 167/498/5 165/499/5 161/500/5
f 168/501/6 164/502/6 162/503/6 166/504/6
f 169/505/1 170/506/1 172/507/1 171/508/1
f 171/509/2 172/510/2 176/511/2 175/512/2
f 175/513/3 176/514/3 174/515/3 173/516/3
f 173/517/4 174/518/4 170/519/4 169/520/4
f 171/521/5 175/522/5 173/523/5 169/524/5
f 176/525/6 172/526/6 170/527/6 174/528/6
f 177/529/7 178/530/7 180/531/7 179/532/7
f 179/533/8 180/534/8 184/535/8 183/536/8
f 183/537/9 184/538/9 182/539/9 181/540/9
f 181/541/10 182/542/10 178/543/10 177/544/10
f 179/545/5 183/546/5 181/547/5 177/548/5
f 184/549/6 180/550/6 178/551/6 182/552/6
f 185/553/1 186/554/1 188/555/1 187/556/1
f 187/557/2 188/558/2 192/559/2 191/560/2
f 191/561/3 192/562/3 190/563/3 189/564/3
f 189/565/4 190/566/4 186/567/4 185/568/4
f 187/569/5 191/570/5 189/571/5 185/572/5
f 192/573/6 188/574/6 186/575/6 190/576/6
