# Blender v2.82 (sub 7) OBJ File: 'models.blend'
# www.blender.org
mtllib prateleira01.mtl
o Cube.005_Cube.009
v 0.525921 0.000929 3.000000
v 0.525921 0.118692 3.000000
v 0.525921 0.000929 -3.000000
v 0.525921 0.118692 -3.000000
v -0.525920 0.000929 3.000000
v -0.525920 0.118692 3.000000
v -0.525920 0.000929 -3.000000
v -0.525920 0.118692 -3.000000
vt 0.648916 0.384725
vt 0.648916 0.426737
vt 0.690928 0.426737
vt 0.690928 0.384725
vt 0.648916 0.468750
vt 0.690928 0.468750
vt 0.648916 0.510763
vt 0.690928 0.510763
vt 0.648916 0.552775
vt 0.690928 0.552775
vt 0.606903 0.468750
vt 0.606903 0.510763
vt 0.732941 0.510763
vt 0.732941 0.468750
vn 1.0000 0.0000 0.0000
vn 0.0000 0.0000 -1.0000
vn -1.0000 0.0000 0.0000
vn 0.0000 0.0000 1.0000
vn 0.0000 -1.0000 0.0000
vn 0.0000 1.0000 0.0000
usemtl mat_cute
s off
f 1/1/1 3/2/1 4/3/1 2/4/1
f 3/2/2 7/5/2 8/6/2 4/3/2
f 7/5/3 5/7/3 6/8/3 8/6/3
f 5/7/4 1/9/4 2/10/4 6/8/4
f 3/11/5 1/12/5 5/7/5 7/5/5
f 8/6/6 6/8/6 2/13/6 4/14/6
