# Blender v2.82 (sub 7) OBJ File: 'models.blend'
# www.blender.org
mtllib suporte_vaso01.mtl
o Cube.004_Cube.034
v -0.121319 2.832051 1.195721
v -0.121319 3.284726 1.195721
v -0.121319 2.832051 -1.195721
v -0.121319 3.284726 -1.195721
v 0.121319 2.832051 1.195721
v 0.121319 3.284726 1.195721
v 0.121319 2.832051 -1.195721
v 0.121319 3.284726 -1.195721
v -0.121319 2.832051 -0.135385
v -0.121319 2.832051 0.135385
v -0.121319 3.284726 0.135385
v -0.121319 3.284726 -0.135385
v 0.121319 2.832051 0.135385
v 0.121319 2.832051 -0.135385
v 0.121319 3.284726 -0.135385
v 0.121319 3.284726 0.135385
v -0.987082 2.832051 -0.135385
v -0.987082 2.832051 0.135385
v -0.987082 3.284726 0.135385
v -0.987082 3.284726 -0.135385
v 0.987082 2.832051 0.135385
v 0.987082 2.832051 -0.135385
v 0.987082 3.284726 -0.135385
v 0.987082 3.284726 0.135385
v -0.121319 2.832051 1.404492
v -0.121319 3.284726 1.404492
v -0.121319 3.284726 -1.404492
v -0.121319 2.832051 -1.404492
v 0.121319 2.832051 -1.404492
v 0.121319 3.284726 -1.404492
v 0.121319 3.284726 1.404492
v 0.121319 2.832051 1.404492
v -1.182411 2.832051 -0.135385
v -1.182411 2.832051 0.135385
v -1.182411 3.284726 0.135385
v -1.182411 3.284726 -0.135385
v 1.182411 2.832051 0.135385
v 1.182411 2.832051 -0.135385
v 1.182411 3.284726 -0.135385
v 1.182411 3.284726 0.135385
v -0.121319 4.416943 -1.195721
v 0.121319 4.416943 -1.195721
v 0.121319 4.416943 1.195721
v -0.121319 4.416943 1.195721
v -0.987082 4.416943 0.135385
v -0.987082 4.416943 -0.135385
v 0.987082 4.416943 -0.135385
v 0.987082 4.416943 0.135385
v -0.121319 4.416943 -1.404492
v 0.121319 4.416943 -1.404492
v 0.121319 4.416943 1.404492
v -0.121319 4.416943 1.404492
v -1.182411 4.416943 0.135385
v -1.182411 4.416943 -0.135385
v 1.182411 4.416943 -0.135385
v 1.182411 4.416943 0.135385
v 0.121319 -0.015079 -1.195721
v -0.121319 -0.015079 -1.195721
v -0.121319 -0.015079 1.195721
v 0.121319 -0.015079 1.195721
v -0.987082 -0.015079 -0.135385
v -0.987082 -0.015079 0.135385
v 0.987082 -0.015079 0.135385
v 0.987082 -0.015079 -0.135385
v 0.121319 -0.015079 -1.404492
v -0.121319 -0.015079 -1.404492
v -0.121319 -0.015079 1.404492
v 0.121319 -0.015079 1.404492
v -1.182411 -0.015079 -0.135385
v -1.182411 -0.015079 0.135385
v 1.182411 -0.015079 0.135385
v 1.182411 -0.015079 -0.135385
vt 0.500884 0.677847
vt 0.500884 0.693469
vt 0.507811 0.693469
vt 0.507811 0.677847
vt 0.507811 0.693469
vt 0.507811 0.677847
vt 0.509175 0.677847
vt 0.509175 0.693469
vt 0.499116 0.677847
vt 0.499116 0.693469
vt 0.492189 0.693469
vt 0.492189 0.677847
vt 0.507811 0.579591
vt 0.509175 0.579591
vt 0.492189 0.674628
vt 0.507811 0.674628
vt 0.507811 0.667701
vt 0.492189 0.667701
vt 0.507811 0.674628
vt 0.492189 0.674628
vt 0.492189 0.667701
vt 0.507811 0.667701
vt 0.507811 0.683323
vt 0.492189 0.683323
vt 0.492189 0.676397
vt 0.507811 0.676397
vt 0.492189 0.683323
vt 0.507811 0.683323
vt 0.507811 0.676397
vt 0.492189 0.676397
vt 0.500884 0.693469
vt 0.500884 0.677847
vt 0.563552 0.676397
vt 0.563552 0.674628
vt 0.492189 0.677847
vt 0.492189 0.693469
vt 0.499116 0.693469
vt 0.499116 0.677847
vt 0.563552 0.674628
vt 0.563552 0.676397
vt 0.436448 0.693469
vt 0.436448 0.677847
vt 0.423872 0.677847
vt 0.423872 0.693469
vt 0.492189 0.693469
vt 0.507811 0.693469
vt 0.507811 0.732542
vt 0.492189 0.732542
vt 0.492189 0.677847
vt 0.492189 0.693469
vt 0.436448 0.693469
vt 0.436448 0.677847
vt 0.436448 0.676397
vt 0.436448 0.674628
vt 0.507811 0.677847
vt 0.507811 0.693469
vt 0.563552 0.693469
vt 0.563552 0.677847
vt 0.436448 0.674628
vt 0.436448 0.676397
vt 0.492189 0.693469
vt 0.492189 0.677847
vt 0.507811 0.693469
vt 0.507811 0.677847
vt 0.563552 0.677847
vt 0.563552 0.693469
vt 0.492189 0.677847
vt 0.492189 0.693469
vt 0.507811 0.693469
vt 0.507811 0.677847
vt 0.507811 0.677847
vt 0.492189 0.677847
vt 0.500884 0.677847
vt 0.500884 0.693469
vt 0.499116 0.693469
vt 0.499116 0.677847
vt 0.499116 0.677847
vt 0.499116 0.693469
vt 0.500884 0.693469
vt 0.500884 0.677847
vt 0.490825 0.693469
vt 0.492189 0.732542
vt 0.490825 0.732542
vt 0.500884 0.677847
vt 0.499116 0.677847
vt 0.499116 0.579591
vt 0.500884 0.579591
vt 0.490825 0.677847
vt 0.490825 0.693469
vt 0.576128 0.693469
vt 0.563552 0.732542
vt 0.576128 0.732542
vt 0.490825 0.677847
vt 0.576128 0.677847
vt 0.492189 0.579591
vt 0.507811 0.579591
vt 0.509175 0.693469
vt 0.509175 0.677847
vt 0.576128 0.677847
vt 0.576128 0.693469
vt 0.492189 0.693469
vt 0.507811 0.732542
vt 0.492189 0.732542
vt 0.423872 0.677847
vt 0.423872 0.579591
vt 0.436448 0.579591
vt 0.423872 0.693469
vt 0.492189 0.683323
vt 0.507811 0.683323
vt 0.507811 0.684687
vt 0.492189 0.684687
vt 0.436448 0.674628
vt 0.436448 0.676397
vt 0.423872 0.676397
vt 0.423872 0.674628
vt 0.563552 0.676397
vt 0.563552 0.674628
vt 0.576128 0.674628
vt 0.576128 0.676397
vt 0.507811 0.667701
vt 0.492189 0.667701
vt 0.492189 0.666338
vt 0.507811 0.666338
vt 0.499116 0.693469
vt 0.500884 0.693469
vt 0.500884 0.732542
vt 0.499116 0.732542
vt 0.436448 0.732542
vt 0.423872 0.732542
vt 0.509175 0.732542
vt 0.499116 0.732542
vt 0.500884 0.732542
vt 0.500884 0.693469
vt 0.499116 0.693469
vt 0.499116 0.732542
vt 0.500884 0.732542
vt 0.507811 0.732542
vt 0.509175 0.732542
vt 0.492189 0.732542
vt 0.507811 0.732542
vt 0.500884 0.732542
vt 0.499116 0.732542
vt 0.490825 0.732542
vt 0.492189 0.732542
vt 0.507811 0.693469
vt 0.507811 0.732542
vt 0.423872 0.732542
vt 0.436448 0.732542
vt 0.576128 0.732542
vt 0.563552 0.732542
vt 0.436448 0.676397
vt 0.436448 0.674628
vt 0.423872 0.674628
vt 0.423872 0.676397
vt 0.563552 0.674628
vt 0.563552 0.676397
vt 0.576128 0.676397
vt 0.576128 0.674628
vt 0.492189 0.667701
vt 0.507811 0.667701
vt 0.507811 0.666338
vt 0.492189 0.666338
vt 0.507811 0.683323
vt 0.492189 0.683323
vt 0.492189 0.684687
vt 0.507811 0.684687
vt 0.490825 0.579591
vt 0.492189 0.579591
vt 0.500884 0.579591
vt 0.499116 0.579591
vt 0.499116 0.677847
vt 0.500884 0.677847
vt 0.500884 0.579591
vt 0.499116 0.579591
vt 0.576128 0.579591
vt 0.563552 0.579591
vt 0.509175 0.579591
vt 0.507811 0.579591
vt 0.563552 0.579591
vt 0.576128 0.579591
vt 0.507811 0.579591
vt 0.492189 0.579591
vt 0.499116 0.579591
vt 0.500884 0.579591
vt 0.492189 0.579591
vt 0.490825 0.579591
vt 0.507811 0.677847
vt 0.507811 0.579591
vt 0.436448 0.579591
vt 0.423872 0.579591
vt 0.492189 0.677847
vt 0.492189 0.579591
vn -1.0000 0.0000 0.0000
vn 1.0000 0.0000 0.0000
vn 0.0000 -1.0000 0.0000
vn 0.0000 1.0000 0.0000
vn 0.0000 0.0000 -1.0000
vn 0.0000 0.0000 1.0000
usemtl mat_cute
s off
f 9/1/1 12/2/1 4/3/1 3/4/1
f 8/5/2 7/6/2 29/7/2 30/8/2
f 13/9/2 16/10/2 6/11/2 5/12/2
f 29/7/2 7/6/2 57/13/2 65/14/2
f 10/15/3 13/16/3 5/17/3 1/18/3
f 16/19/4 11/20/4 2/21/4 6/22/4
f 8/23/4 4/24/4 12/25/4 15/26/4
f 15/26/4 12/25/4 11/20/4 16/19/4
f 3/27/3 7/28/3 14/29/3 9/30/3
f 9/30/3 14/29/3 13/16/3 10/15/3
f 7/6/2 8/5/2 15/31/2 14/32/2
f 13/16/3 14/29/3 22/33/3 21/34/3
f 1/35/1 2/36/1 11/37/1 10/38/1
f 15/26/4 16/19/4 24/39/4 23/40/4
f 20/41/5 17/42/5 33/43/5 36/44/5
f 26/45/6 31/46/6 51/47/6 52/48/6
f 10/49/6 11/50/6 19/51/6 18/52/6
f 11/20/4 12/25/4 20/53/4 19/54/4
f 14/55/5 15/56/5 23/57/5 22/58/5
f 9/30/3 10/15/3 18/59/3 17/60/3
f 12/61/5 9/62/5 17/42/5 20/41/5
f 16/63/6 13/64/6 21/65/6 24/66/6
f 28/67/5 27/68/5 30/69/5 29/70/5
f 32/71/6 31/46/6 26/45/6 25/72/6
f 38/73/2 39/74/2 40/75/2 37/76/2
f 34/77/1 35/78/1 36/79/1 33/80/1
f 31/81/2 6/11/2 43/82/2 51/83/2
f 17/84/2 18/85/2 62/86/2 61/87/2
f 2/36/1 1/35/1 25/88/1 26/89/1
f 39/90/5 23/57/5 47/91/5 55/92/5
f 5/12/2 6/11/2 31/81/2 32/93/2
f 22/58/5 23/57/5 39/90/5 38/94/5
f 32/71/6 25/72/6 67/95/6 68/96/6
f 3/4/1 4/3/1 27/97/1 28/98/1
f 24/66/6 21/65/6 37/99/6 40/100/6
f 4/101/6 8/5/6 42/102/6 41/103/6
f 18/52/6 34/104/6 70/105/6 62/106/6
f 18/52/6 19/51/6 35/107/6 34/104/6
f 41/108/4 42/109/4 50/110/4 49/111/4
f 45/112/4 46/113/4 54/114/4 53/115/4
f 47/116/4 48/117/4 56/118/4 55/119/4
f 43/120/4 44/121/4 52/122/4 51/123/4
f 19/124/2 20/125/2 46/126/2 45/127/2
f 35/107/6 19/51/6 45/128/6 53/129/6
f 8/5/2 30/8/2 50/130/2 42/102/2
f 36/79/1 35/78/1 53/131/1 54/132/1
f 23/133/1 24/134/1 48/135/1 47/136/1
f 27/97/1 4/3/1 41/137/1 49/138/1
f 30/69/5 27/68/5 49/139/5 50/140/5
f 40/75/2 39/74/2 55/141/2 56/142/2
f 2/36/1 26/89/1 52/143/1 44/144/1
f 6/145/5 2/36/5 44/144/5 43/146/5
f 20/41/5 36/44/5 54/147/5 46/148/5
f 24/66/6 40/100/6 56/149/6 48/150/6
f 61/151/3 62/152/3 70/153/3 69/154/3
f 63/155/3 64/156/3 72/157/3 71/158/3
f 59/159/3 60/160/3 68/161/3 67/162/3
f 57/163/3 58/164/3 66/165/3 65/166/3
f 5/12/2 32/93/2 68/167/2 60/168/2
f 34/77/1 33/80/1 69/169/1 70/170/1
f 21/171/1 22/172/1 64/173/1 63/174/1
f 22/58/5 38/94/5 72/175/5 64/176/5
f 3/4/1 28/98/1 66/177/1 58/178/1
f 37/99/6 21/65/6 63/179/6 71/180/6
f 28/67/5 29/70/5 65/181/5 66/182/5
f 38/73/2 37/76/2 71/183/2 72/184/2
f 25/88/1 1/35/1 59/185/1 67/186/1
f 1/35/5 5/187/5 60/188/5 59/185/5
f 33/43/5 17/42/5 61/189/5 69/190/5
f 7/6/6 3/191/6 58/192/6 57/13/6
