# Blender v2.82 (sub 7) OBJ File: 'prantinhas.blend'
# www.blender.org
mtllib cactus_grande_01_000014.mtl
o NurbsPath.001
v -5.652646 0.655687 -5.293762
v -5.572948 0.655687 -5.597395
v -5.269314 0.655687 -5.517697
v -5.349012 0.655687 -5.214064
v -5.652622 4.284760 -5.293791
v -5.572957 4.290206 -5.597384
v -5.269338 4.292658 -5.517668
v -5.349003 4.287211 -5.214075
v -5.652622 4.284760 -5.293791
v -5.572957 4.290206 -5.597384
v -5.269338 4.292658 -5.517668
v -5.349003 4.287211 -5.214075
v -5.642885 3.255198 -5.305840
v -5.563193 3.257519 -5.609466
v -5.259562 3.258565 -5.529765
v -5.339255 3.256243 -5.226139
v -5.642367 2.567915 -5.306481
v -5.562681 2.564605 -5.610099
v -5.259053 2.563115 -5.530395
v -5.338740 2.566425 -5.226776
v -5.648326 2.178736 -5.299107
v -5.568684 2.171633 -5.602672
v -5.265075 2.168436 -5.522943
v -5.344718 2.175539 -5.219378
v -5.651940 1.951505 -5.294636
v -5.572271 1.946347 -5.598233
v -5.268651 1.944026 -5.518518
v -5.348320 1.949183 -5.214921
v -5.652644 1.847282 -5.293765
v -5.572948 1.845748 -5.597394
v -5.269316 1.845057 -5.517695
v -5.349012 1.846592 -5.214065
v -5.652646 1.457647 -5.293762
v -5.572948 1.457647 -5.597395
v -5.269314 1.457646 -5.517697
v -5.349012 1.457647 -5.214064
v -5.652646 0.655687 -5.293762
v -5.572948 0.655687 -5.597395
v -5.269314 0.655687 -5.517697
v -5.349012 0.655687 -5.214064
vt 0.666667 0.000000
vt 0.000000 0.000000
vt 0.333333 0.000000
vt 1.000000 0.000000
vt 0.000000 0.000000
vt 0.666667 0.000000
vt 0.333333 0.000000
vt 1.000000 0.000000
vt 0.000000 1.000000
vt 0.142857 1.000000
vt 0.142857 0.750000
vt 0.000000 0.750000
vt 0.000000 0.250000
vt 0.142857 0.250000
vt 0.142857 0.000000
vt 0.000000 0.000000
vt 0.000000 0.500000
vt 0.142857 0.500000
vt 0.285714 1.000000
vt 0.285714 0.750000
vt 0.285714 0.250000
vt 0.285714 0.000000
vt 0.285714 0.500000
vt 0.428571 1.000000
vt 0.428571 0.750000
vt 0.428571 0.250000
vt 0.428571 0.000000
vt 0.428571 0.500000
vt 0.571429 1.000000
vt 0.571429 0.750000
vt 0.571429 0.250000
vt 0.571429 0.000000
vt 0.571429 0.500000
vt 0.714286 1.000000
vt 0.714286 0.750000
vt 0.714286 0.250000
vt 0.714286 0.000000
vt 0.714286 0.500000
vt 0.857143 1.000000
vt 0.857143 0.750000
vt 0.857143 0.250000
vt 0.857143 0.000000
vt 0.857143 0.500000
vt 1.000000 1.000000
vt 1.000000 0.750000
vt 1.000000 0.250000
vt 1.000000 0.000000
vt 1.000000 0.500000
vn 0.0000 -1.0000 -0.0000
vn -0.0120 0.9998 0.0148
vn -0.2538 -0.0137 0.9672
vn -0.9672 -0.0062 -0.2539
vn 0.2538 0.0137 -0.9672
vn 0.9672 0.0062 0.2539
vn -0.2539 -0.0011 0.9672
vn -0.9672 -0.0005 -0.2539
vn 0.2539 0.0011 -0.9672
vn 0.9672 0.0005 0.2539
vn -0.2537 0.0222 0.9670
vn -0.9672 0.0100 -0.2540
vn 0.2537 -0.0221 -0.9670
vn 0.9672 -0.0100 0.2540
vn -0.2537 0.0231 0.9670
vn -0.9672 0.0104 -0.2540
vn 0.2537 -0.0231 -0.9670
vn 0.9672 -0.0104 0.2540
vn -0.2539 0.0098 0.9672
vn -0.9672 0.0044 -0.2539
vn 0.2539 -0.0098 -0.9672
vn 0.9672 -0.0044 0.2539
vn -0.2539 0.0000 0.9672
vn -0.9672 0.0000 -0.2539
vn 0.2539 0.0000 -0.9672
vn 0.9672 0.0000 0.2539
usemtl cactus
s off
f 3/1/1 1/2/1 2/3/1
f 4/4/1 1/2/1 3/1/1
f 5/5/2 7/6/2 6/7/2
f 5/5/2 8/8/2 7/6/2
f 9/9/3 13/10/3 16/11/3 12/12/3
f 10/13/4 14/14/4 13/15/4 9/16/4
f 11/17/5 15/18/5 14/14/5 10/13/5
f 12/12/6 16/11/6 15/18/6 11/17/6
f 13/10/7 17/19/7 20/20/7 16/11/7
f 14/14/8 18/21/8 17/22/8 13/15/8
f 15/18/9 19/23/9 18/21/9 14/14/9
f 16/11/10 20/20/10 19/23/10 15/18/10
f 17/19/11 21/24/11 24/25/11 20/20/11
f 18/21/12 22/26/12 21/27/12 17/22/12
f 19/23/13 23/28/13 22/26/13 18/21/13
f 20/20/14 24/25/14 23/28/14 19/23/14
f 21/24/15 25/29/15 28/30/15 24/25/15
f 22/26/16 26/31/16 25/32/16 21/27/16
f 23/28/17 27/33/17 26/31/17 22/26/17
f 24/25/18 28/30/18 27/33/18 23/28/18
f 25/29/19 29/34/19 32/35/19 28/30/19
f 26/31/20 30/36/20 29/37/20 25/32/20
f 27/33/21 31/38/21 30/36/21 26/31/21
f 28/30/22 32/35/22 31/38/22 27/33/22
f 29/34/23 33/39/23 36/40/23 32/35/23
f 30/36/24 34/41/24 33/42/24 29/37/24
f 31/38/25 35/43/25 34/41/25 30/36/25
f 32/35/26 36/40/26 35/43/26 31/38/26
f 33/39/23 37/44/23 40/45/23 36/40/23
f 34/41/24 38/46/24 37/47/24 33/42/24
f 35/43/25 39/48/25 38/46/25 34/41/25
f 36/40/26 40/45/26 39/48/26 35/43/26
o NurbsPath.002
v -5.526962 2.356261 -5.432927
v -5.622123 2.442332 -5.572259
v -5.519944 2.518850 -5.412332
v -5.424782 2.432779 -5.273000
v -6.282605 3.760365 -4.925823
v -6.218126 3.760536 -5.171411
v -5.972538 3.760697 -5.106932
v -6.037016 3.760526 -4.861344
v -6.282605 3.760365 -4.925823
v -6.218126 3.760536 -5.171411
v -5.972538 3.760697 -5.106932
v -6.037016 3.760526 -4.861344
v -6.279584 3.567282 -4.927605
v -6.215115 3.568154 -5.173189
v -5.969533 3.568978 -5.108705
v -6.034003 3.568106 -4.863121
v -6.274095 3.332061 -4.931146
v -6.209641 3.333556 -5.176720
v -5.964070 3.334811 -5.112229
v -6.028524 3.333316 -4.866655
v -6.265069 3.093551 -4.937880
v -6.200748 3.097496 -5.183357
v -5.955285 3.100712 -5.118788
v -6.019606 3.096767 -4.873312
v -6.236105 2.854460 -4.958829
v -6.173003 2.866053 -5.203444
v -5.928593 2.875883 -5.138131
v -5.991695 2.864289 -4.893516
v -6.151714 2.626828 -5.017164
v -6.097459 2.657650 -5.255725
v -5.860902 2.684546 -5.185038
v -5.915157 2.653725 -4.946477
v -5.940289 2.436443 -5.159359
v -5.932518 2.502782 -5.366782
v -5.737650 2.561531 -5.268169
v -5.745420 2.495192 -5.060747
v -5.526962 2.356261 -5.432927
v -5.622123 2.442332 -5.572259
v -5.519944 2.518850 -5.412332
v -5.424782 2.432779 -5.273000
vt 0.666667 0.000000
vt 0.000000 0.000000
vt 0.333333 0.000000
vt 1.000000 0.000000
vt 0.000000 0.000000
vt 0.666667 0.000000
vt 0.333333 0.000000
vt 1.000000 0.000000
vt 0.000000 1.000000
vt 0.142857 1.000000
vt 0.142857 0.750000
vt 0.000000 0.750000
vt 0.000000 0.250000
vt 0.142857 0.250000
vt 0.142857 0.000000
vt 0.000000 0.000000
vt 0.000000 0.500000
vt 0.142857 0.500000
vt 0.285714 1.000000
vt 0.285714 0.750000
vt 0.285714 0.250000
vt 0.285714 0.000000
vt 0.285714 0.500000
vt 0.428571 1.000000
vt 0.428571 0.750000
vt 0.428571 0.250000
vt 0.428571 0.000000
vt 0.428571 0.500000
vt 0.571429 1.000000
vt 0.571429 0.750000
vt 0.571429 0.250000
vt 0.571429 0.000000
vt 0.571429 0.500000
vt 0.714286 1.000000
vt 0.714286 0.750000
vt 0.714286 0.250000
vt 0.714286 0.000000
vt 0.714286 0.500000
vt 0.857143 1.000000
vt 0.857143 0.750000
vt 0.857143 0.250000
vt 0.857143 0.000000
vt 0.857143 0.500000
vt 1.000000 1.000000
vt 1.000000 0.750000
vt 1.000000 0.250000
vt 1.000000 0.000000
vt 1.000000 0.500000
vn 0.8349 0.0336 -0.5495
vn 0.8348 0.0336 -0.5495
vn -0.0008 1.0000 0.0005
vn -0.2539 -0.0129 0.9671
vn -0.9671 -0.0128 -0.2539
vn 0.2539 0.0129 -0.9671
vn 0.9671 0.0128 0.2539
vn -0.2539 -0.0205 0.9670
vn -0.9670 -0.0187 -0.2539
vn 0.2539 0.0205 -0.9670
vn 0.9670 0.0187 0.2539
vn -0.2537 -0.0368 0.9666
vn -0.9668 -0.0293 -0.2539
vn 0.2537 0.0367 -0.9666
vn 0.9668 0.0292 0.2539
vn -0.2518 -0.1142 0.9610
vn -0.9628 -0.0939 -0.2533
vn 0.2518 0.1131 -0.9611
vn 0.9629 0.0931 0.2533
vn -0.2352 -0.3195 0.9179
vn -0.9279 -0.2770 -0.2497
vn 0.2362 0.3129 -0.9199
vn 0.9295 0.2715 0.2496
vn -0.1449 -0.6839 0.7151
vn -0.7390 -0.6296 -0.2399
vn 0.1532 0.6679 -0.7283
vn 0.7516 0.6150 0.2385
vn 0.0793 -0.9178 0.3891
vn -0.3669 -0.8822 -0.2953
vn -0.0788 0.9176 -0.3896
vn 0.3675 0.8820 0.2950
usemtl cactus
s off
f 43/49/27 41/50/27 42/51/27
f 43/49/28 44/52/28 41/50/28
f 45/53/29 47/54/29 46/55/29
f 48/56/29 47/54/29 45/53/29
f 49/57/30 53/58/30 56/59/30 52/60/30
f 50/61/31 54/62/31 53/63/31 49/64/31
f 51/65/32 55/66/32 54/62/32 50/61/32
f 52/60/33 56/59/33 55/66/33 51/65/33
f 53/58/34 57/67/34 60/68/34 56/59/34
f 54/62/35 58/69/35 57/70/35 53/63/35
f 55/66/36 59/71/36 58/69/36 54/62/36
f 56/59/37 60/68/37 59/71/37 55/66/37
f 57/67/38 61/72/38 64/73/38 60/68/38
f 58/69/39 62/74/39 61/75/39 57/70/39
f 59/71/40 63/76/40 62/74/40 58/69/40
f 60/68/41 64/73/41 63/76/41 59/71/41
f 61/72/42 65/77/42 68/78/42 64/73/42
f 62/74/43 66/79/43 65/80/43 61/75/43
f 63/76/44 67/81/44 66/79/44 62/74/44
f 64/73/45 68/78/45 67/81/45 63/76/45
f 65/77/46 69/82/46 72/83/46 68/78/46
f 66/79/47 70/84/47 69/85/47 65/80/47
f 67/81/48 71/86/48 70/84/48 66/79/48
f 68/78/49 72/83/49 71/86/49 67/81/49
f 69/82/50 73/87/50 76/88/50 72/83/50
f 70/84/51 74/89/51 73/90/51 69/85/51
f 71/86/52 75/91/52 74/89/52 70/84/52
f 72/83/53 76/88/53 75/91/53 71/86/53
f 73/87/54 77/92/54 80/93/54 76/88/54
f 74/89/55 78/94/55 77/95/55 73/90/55
f 75/91/56 79/96/56 78/94/56 74/89/56
f 76/88/57 80/93/57 79/96/57 75/91/57
o NurbsPath.003
v -5.318447 2.896914 -5.527592
v -5.241437 2.962583 -5.404689
v -5.314549 3.028359 -5.529676
v -5.391558 2.962690 -5.652579
v -4.764540 3.200521 -5.858103
v -4.819199 3.218257 -5.664514
v -5.011751 3.233734 -5.725770
v -4.957093 3.215998 -5.919359
v -4.764540 3.200521 -5.858103
v -4.819199 3.218257 -5.664514
v -5.011751 3.233734 -5.725770
v -4.957093 3.215998 -5.919359
v -4.797860 3.115383 -5.837213
v -4.847940 3.140154 -5.646155
v -5.036821 3.161979 -5.709416
v -4.986741 3.137209 -5.900474
v -4.973999 2.961682 -5.731221
v -4.983002 3.014117 -5.562253
v -5.137421 3.062749 -5.643823
v -5.128418 3.010314 -5.812791
v -5.318447 2.896914 -5.527592
v -5.241437 2.962583 -5.404689
v -5.314549 3.028359 -5.529676
v -5.391558 2.962690 -5.652579
vt 0.666667 0.000000
vt 0.000000 0.000000
vt 0.333333 0.000000
vt 1.000000 0.000000
vt 0.000000 0.000000
vt 0.666667 0.000000
vt 0.333333 0.000000
vt 1.000000 0.000000
vt 0.000000 1.000000
vt 0.333333 1.000000
vt 0.333333 0.750000
vt 0.000000 0.750000
vt 0.000000 0.250000
vt 0.333333 0.250000
vt 0.333333 0.000000
vt 0.000000 0.000000
vt 0.000000 0.500000
vt 0.333333 0.500000
vt 0.666667 1.000000
vt 0.666667 0.750000
vt 0.666667 0.250000
vt 0.666667 0.000000
vt 0.666667 0.500000
vt 1.000000 1.000000
vt 1.000000 0.750000
vt 1.000000 0.250000
vt 1.000000 0.000000
vt 1.000000 0.500000
vn -0.8549 0.0336 0.5177
vn 0.0998 0.9930 -0.0628
vn 0.2651 -0.3223 -0.9087
vn 0.9176 -0.2813 0.2809
vn -0.2679 0.3077 0.9130
vn -0.9213 0.2692 -0.2806
vn 0.1628 -0.6787 -0.7161
vn 0.7279 -0.6361 0.2559
vn -0.1714 0.6629 0.7288
vn -0.7410 0.6212 -0.2548
vn -0.0802 -0.9068 -0.4140
vn 0.3423 -0.8960 0.2828
vn 0.0797 0.9066 0.4144
vn -0.3430 0.8958 -0.2826
usemtl cactus
s off
f 83/97/58 81/98/58 82/99/58
f 84/100/58 81/98/58 83/97/58
f 85/101/59 87/102/59 86/103/59
f 88/104/59 87/102/59 85/101/59
f 89/105/60 93/106/60 96/107/60 92/108/60
f 90/109/61 94/110/61 93/111/61 89/112/61
f 91/113/62 95/114/62 94/110/62 90/109/62
f 92/108/63 96/107/63 95/114/63 91/113/63
f 93/106/64 97/115/64 100/116/64 96/107/64
f 94/110/65 98/117/65 97/118/65 93/111/65
f 95/114/66 99/119/66 98/117/66 94/110/66
f 96/107/67 100/116/67 99/119/67 95/114/67
f 97/115/68 101/120/68 104/121/68 100/116/68
f 98/117/69 102/122/69 101/123/69 97/118/69
f 99/119/70 103/124/70 102/122/70 98/117/70
f 100/116/71 104/121/71 103/124/71 99/119/71
o Cylinder
v -4.919486 -0.115024 -5.762582
v -5.049243 1.183734 -5.686791
v -4.836831 -0.115024 -5.523068
v -4.985715 1.183734 -5.502702
v -4.852126 -0.115024 -5.270155
v -4.997470 1.183734 -5.308314
v -4.963043 -0.115024 -5.042347
v -5.082720 1.183734 -5.133223
v -5.152694 -0.115024 -4.874326
v -5.228485 1.183734 -5.004083
v -5.392209 -0.115024 -4.791671
v -5.412575 1.183734 -4.940555
v -5.645122 -0.115024 -4.806966
v -5.606962 1.183734 -4.952310
v -5.872930 -0.115024 -4.917882
v -5.782054 1.183734 -5.037560
v -6.040951 -0.115024 -5.107534
v -5.911194 1.183734 -5.183325
v -6.123606 -0.115024 -5.347049
v -5.974722 1.183734 -5.367414
v -6.108311 -0.115024 -5.599962
v -5.962966 1.183734 -5.561802
v -5.997394 -0.115024 -5.827770
v -5.877717 1.183734 -5.736894
v -5.807742 -0.115024 -5.995791
v -5.731951 1.183734 -5.866034
v -5.568227 -0.115024 -6.078445
v -5.547862 1.183734 -5.929562
v -5.315314 -0.115024 -6.063150
v -5.353474 1.183734 -5.917806
v -5.087506 -0.115024 -5.952233
v -5.178382 1.183734 -5.832556
v -4.836831 1.183734 -5.523068
v -4.919486 1.183734 -5.762582
v -4.852126 1.183734 -5.270155
v -4.963043 1.183734 -5.042347
v -5.152694 1.183734 -4.874326
v -5.392209 1.183734 -4.791671
v -5.645122 1.183734 -4.806966
v -5.872930 1.183734 -4.917882
v -6.040951 1.183734 -5.107534
v -6.123606 1.183734 -5.347049
v -6.108311 1.183734 -5.599962
v -5.997394 1.183734 -5.827770
v -5.807742 1.183734 -5.995791
v -5.568227 1.183734 -6.078445
v -5.315314 1.183734 -6.063150
v -5.087506 1.183734 -5.952233
v -4.985715 0.903548 -5.502702
v -5.049243 0.903548 -5.686791
v -4.997470 0.903548 -5.308314
v -5.082720 0.903548 -5.133223
v -5.228485 0.903548 -5.004083
v -5.412575 0.903548 -4.940555
v -5.606962 0.903548 -4.952310
v -5.782054 0.903548 -5.037560
v -5.911194 0.903548 -5.183325
v -5.974722 0.903548 -5.367414
v -5.962966 0.903548 -5.561802
v -5.877717 0.903548 -5.736894
v -5.731951 0.903548 -5.866034
v -5.547862 0.903548 -5.929562
v -5.353474 0.903548 -5.917806
v -5.178382 0.903548 -5.832556
v -5.059144 0.299730 -5.681008
v -4.997075 0.299730 -5.501148
v -5.008561 0.299730 -5.311226
v -5.091852 0.299730 -5.140157
v -5.234268 0.299730 -5.013983
v -5.414128 0.299730 -4.951915
v -5.604050 0.299730 -4.963400
v -5.775120 0.299730 -5.046692
v -5.901293 0.299730 -5.189108
v -5.963362 0.299730 -5.368968
v -5.951876 0.299730 -5.558890
v -5.868585 0.299730 -5.729960
v -5.726168 0.299730 -5.856133
v -5.546308 0.299730 -5.918201
v -5.356386 0.299730 -5.906715
v -5.185317 0.299730 -5.823424
vt 0.937500 0.659673
vt 0.875000 0.659673
vt 0.875000 0.500000
vt 0.937500 0.500000
vt 0.812500 0.659673
vt 0.812500 0.500000
vt 0.750000 0.659673
vt 0.750000 0.500000
vt 0.687500 0.659673
vt 0.687500 0.500000
vt 0.625000 0.659673
vt 0.625000 0.500000
vt 0.562500 0.659673
vt 0.562500 0.500000
vt 0.500000 0.659673
vt 0.500000 0.500000
vt 0.437500 0.659673
vt 0.437500 0.500000
vt 0.375000 0.659673
vt 0.375000 0.500000
vt 0.312500 0.659673
vt 0.312500 0.500000
vt 0.250000 0.659673
vt 0.250000 0.500000
vt 0.187500 0.659673
vt 0.187500 0.500000
vt 0.125000 0.659673
vt 0.125000 0.500000
vt 0.062500 0.659673
vt 0.062500 0.500000
vt 0.000000 0.659673
vt 0.000000 0.500000
vt 0.119565 0.380435
vt 0.079579 0.320591
vt 0.079579 0.320591
vt 0.119565 0.380435
vt 0.750000 0.490000
vt 0.841844 0.471731
vt 0.919706 0.419706
vt 0.971731 0.341844
vt 0.990000 0.250000
vt 0.971731 0.158156
vt 0.919706 0.080294
vt 0.841844 0.028269
vt 0.750000 0.010000
vt 0.658156 0.028269
vt 0.580294 0.080294
vt 0.528269 0.158156
vt 0.510000 0.250000
vt 0.528269 0.341844
vt 0.580295 0.419706
vt 0.658156 0.471731
vt 1.000000 0.659673
vt 1.000000 0.500000
vt 0.250000 0.434463
vt 0.320591 0.420421
vt 0.341844 0.471731
vt 0.250000 0.490000
vt 0.380435 0.380435
vt 0.419706 0.419706
vt 0.420421 0.320591
vt 0.471731 0.341844
vt 0.434463 0.250000
vt 0.490000 0.250000
vt 0.420421 0.179409
vt 0.471731 0.158156
vt 0.380435 0.119565
vt 0.419706 0.080294
vt 0.320591 0.079579
vt 0.341844 0.028269
vt 0.250000 0.065537
vt 0.250000 0.010000
vt 0.179409 0.079579
vt 0.158156 0.028269
vt 0.119565 0.119565
vt 0.080294 0.080294
vt 0.079579 0.179409
vt 0.028269 0.158156
vt 0.065537 0.250000
vt 0.010000 0.250000
vt 0.028269 0.341844
vt 0.080295 0.419706
vt 0.179410 0.420421
vt 0.158156 0.471731
vt 0.250000 0.434463
vt 0.179410 0.420421
vt 0.065537 0.250000
vt 0.079579 0.179409
vt 0.119565 0.119565
vt 0.179409 0.079579
vt 0.250000 0.065537
vt 0.320591 0.079579
vt 0.380435 0.119565
vt 0.420421 0.179409
vt 0.434463 0.250000
vt 0.420421 0.320591
vt 0.380435 0.380435
vt 0.320591 0.420421
vt 1.000000 1.000000
vt 0.937500 1.000000
vt 0.062500 1.000000
vt 0.000000 1.000000
vt 0.125000 1.000000
vt 0.187500 1.000000
vt 0.250000 1.000000
vt 0.312500 1.000000
vt 0.375000 1.000000
vt 0.437500 1.000000
vt 0.500000 1.000000
vt 0.562500 1.000000
vt 0.625000 1.000000
vt 0.687500 1.000000
vt 0.750000 1.000000
vt 0.812500 1.000000
vt 0.875000 1.000000
vn 0.9323 0.3572 0.0564
vn 0.8398 0.3572 0.4089
vn 0.6194 0.3572 0.6991
vn 0.3047 0.3572 0.8829
vn -0.0564 0.3572 0.9323
vn -0.4089 0.3572 0.8398
vn -0.6991 0.3572 0.6194
vn -0.8829 0.3572 0.3047
vn -0.9323 0.3572 -0.0564
vn -0.8398 0.3572 -0.4089
vn -0.6194 0.3572 -0.6991
vn -0.3047 0.3572 -0.8829
vn 0.0564 0.3572 -0.9323
vn 0.4089 0.3572 -0.8398
vn 0.6991 0.3572 -0.6194
vn -0.0604 0.0000 0.9982
vn 0.0000 -1.0000 0.0000
vn 0.8829 0.3572 -0.3047
vn 0.0000 1.0000 0.0000
vn 0.4378 0.0000 -0.8991
vn -0.4378 0.0000 0.8991
vn 0.7485 0.0000 -0.6631
vn -0.9453 0.0000 0.3262
vn -0.7485 0.0000 0.6631
vn 0.9453 0.0000 -0.3262
vn -0.9982 0.0000 -0.0604
vn 0.9982 0.0000 0.0604
vn -0.8991 0.0000 -0.4378
vn 0.8991 0.0000 0.4378
vn -0.6631 0.0000 -0.7485
vn 0.6631 0.0000 0.7485
vn -0.3262 0.0000 -0.9453
vn 0.3262 0.0000 0.9453
vn 0.0604 0.0000 -0.9982
vn 0.9304 -0.1766 -0.3211
vn 0.7367 -0.1766 -0.6527
vn 0.4309 -0.1766 -0.8850
vn 0.0594 -0.1766 -0.9825
vn -0.3211 -0.1766 -0.9304
vn -0.6527 -0.1766 -0.7367
vn -0.8850 -0.1766 -0.4309
vn -0.9825 -0.1766 -0.0594
vn -0.9304 -0.1766 0.3211
vn -0.7367 -0.1766 0.6527
vn -0.4309 -0.1766 0.8850
vn -0.0594 -0.1766 0.9825
vn 0.3211 -0.1766 0.9304
vn 0.6527 -0.1766 0.7367
vn 0.8850 -0.1766 0.4309
vn 0.9825 -0.1766 0.0594
usemtl cimento
s off
f 170/125/72 171/126/72 109/127/72 107/128/72
f 171/126/73 172/129/73 111/130/73 109/127/73
f 172/129/74 173/131/74 113/132/74 111/130/74
f 173/131/75 174/133/75 115/134/75 113/132/75
f 174/133/76 175/135/76 117/136/76 115/134/76
f 175/135/77 176/137/77 119/138/77 117/136/77
f 176/137/78 177/139/78 121/140/78 119/138/78
f 177/139/79 178/141/79 123/142/79 121/140/79
f 178/141/80 179/143/80 125/144/80 123/142/80
f 179/143/81 180/145/81 127/146/81 125/144/81
f 180/145/82 181/147/82 129/148/82 127/146/82
f 181/147/83 182/149/83 131/150/83 129/148/83
f 182/149/84 183/151/84 133/152/84 131/150/84
f 183/151/85 184/153/85 135/154/85 133/152/85
f 184/153/86 169/155/86 105/156/86 135/154/86
f 134/157/87 132/158/87 166/159/87 167/160/87
f 105/161/88 107/162/88 109/163/88 111/164/88 113/165/88 115/166/88 117/167/88 119/168/88 121/169/88 123/170/88 125/171/88 127/172/88 129/173/88 131/174/88 133/175/88 135/176/88
f 169/177/89 170/125/89 107/128/89 105/178/89
f 106/179/90 108/180/90 137/181/90 138/182/90
f 108/180/90 110/183/90 139/184/90 137/181/90
f 110/183/90 112/185/90 140/186/90 139/184/90
f 112/185/90 114/187/90 141/188/90 140/186/90
f 114/187/90 116/189/90 142/190/90 141/188/90
f 116/189/90 118/191/90 143/192/90 142/190/90
f 118/191/90 120/193/90 144/194/90 143/192/90
f 120/193/90 122/195/90 145/196/90 144/194/90
f 122/195/90 124/197/90 146/198/90 145/196/90
f 124/197/90 126/199/90 147/200/90 146/198/90
f 126/199/90 128/201/90 148/202/90 147/200/90
f 128/201/90 130/203/90 149/204/90 148/202/90
f 130/203/90 132/158/90 150/205/90 149/204/90
f 132/158/90 134/157/90 151/206/90 150/205/90
f 134/157/90 136/207/90 152/208/90 151/206/90
f 136/207/90 106/179/90 138/182/90 152/208/90
f 154/209/90 168/210/90 167/160/90 166/159/90 165/211/90 164/212/90 163/213/90 162/214/90 161/215/90 160/216/90 159/217/90 158/218/90 157/219/90 156/220/90 155/221/90 153/222/90
f 120/193/91 118/191/91 159/217/91 160/216/91
f 136/207/92 134/157/92 167/160/92 168/210/92
f 122/195/93 120/193/93 160/216/93 161/215/93
f 108/180/94 106/179/94 154/209/94 153/222/94
f 106/179/95 136/207/95 168/210/95 154/209/95
f 124/197/96 122/195/96 161/215/96 162/214/96
f 110/183/97 108/180/97 153/222/97 155/221/97
f 126/199/98 124/197/98 162/214/98 163/213/98
f 112/185/99 110/183/99 155/221/99 156/220/99
f 128/201/100 126/199/100 163/213/100 164/212/100
f 114/187/101 112/185/101 156/220/101 157/219/101
f 130/203/102 128/201/102 164/212/102 165/211/102
f 116/189/103 114/187/103 157/219/103 158/218/103
f 132/158/104 130/203/104 165/211/104 166/159/104
f 118/191/105 116/189/105 158/218/105 159/217/105
f 138/223/106 137/224/106 170/125/106 169/177/106
f 152/225/107 138/226/107 169/155/107 184/153/107
f 151/227/108 152/225/108 184/153/108 183/151/108
f 150/228/109 151/227/109 183/151/109 182/149/109
f 149/229/110 150/228/110 182/149/110 181/147/110
f 148/230/111 149/229/111 181/147/111 180/145/111
f 147/231/112 148/230/112 180/145/112 179/143/112
f 146/232/113 147/231/113 179/143/113 178/141/113
f 145/233/114 146/232/114 178/141/114 177/139/114
f 144/234/115 145/233/115 177/139/115 176/137/115
f 143/235/116 144/234/116 176/137/116 175/135/116
f 142/236/117 143/235/117 175/135/117 174/133/117
f 141/237/118 142/236/118 174/133/118 173/131/118
f 140/238/119 141/237/119 173/131/119 172/129/119
f 139/239/120 140/238/120 172/129/120 171/126/120
f 137/224/121 139/239/121 171/126/121 170/125/121
