# Blender v2.82 (sub 7) OBJ File: 'prantinhas.blend'
# www.blender.org
mtllib cactus_grande_01_000008.mtl
o NurbsPath.001
v -5.652646 0.655687 -5.293762
v -5.572948 0.655687 -5.597395
v -5.269314 0.655687 -5.517697
v -5.349012 0.655687 -5.214064
v -5.652622 4.284760 -5.293791
v -5.572957 4.290206 -5.597384
v -5.269338 4.292658 -5.517668
v -5.349003 4.287211 -5.214075
v -5.652622 4.284760 -5.293791
v -5.572957 4.290206 -5.597384
v -5.269338 4.292658 -5.517668
v -5.349003 4.287211 -5.214075
v -5.642885 3.255198 -5.305840
v -5.563193 3.257519 -5.609466
v -5.259562 3.258565 -5.529765
v -5.339255 3.256243 -5.226139
v -5.642367 2.567915 -5.306481
v -5.562681 2.564605 -5.610099
v -5.259053 2.563115 -5.530395
v -5.338740 2.566425 -5.226776
v -5.648326 2.178736 -5.299107
v -5.568684 2.171633 -5.602672
v -5.265075 2.168436 -5.522943
v -5.344718 2.175539 -5.219378
v -5.651940 1.951505 -5.294636
v -5.572271 1.946347 -5.598233
v -5.268651 1.944026 -5.518518
v -5.348320 1.949183 -5.214921
v -5.652644 1.847282 -5.293765
v -5.572948 1.845748 -5.597394
v -5.269316 1.845057 -5.517695
v -5.349012 1.846592 -5.214065
v -5.652646 1.457647 -5.293762
v -5.572948 1.457647 -5.597395
v -5.269314 1.457646 -5.517697
v -5.349012 1.457647 -5.214064
v -5.652646 0.655687 -5.293762
v -5.572948 0.655687 -5.597395
v -5.269314 0.655687 -5.517697
v -5.349012 0.655687 -5.214064
vt 0.666667 0.000000
vt 0.000000 0.000000
vt 0.333333 0.000000
vt 1.000000 0.000000
vt 0.000000 0.000000
vt 0.666667 0.000000
vt 0.333333 0.000000
vt 1.000000 0.000000
vt 0.000000 1.000000
vt 0.142857 1.000000
vt 0.142857 0.750000
vt 0.000000 0.750000
vt 0.000000 0.250000
vt 0.142857 0.250000
vt 0.142857 0.000000
vt 0.000000 0.000000
vt 0.000000 0.500000
vt 0.142857 0.500000
vt 0.285714 1.000000
vt 0.285714 0.750000
vt 0.285714 0.250000
vt 0.285714 0.000000
vt 0.285714 0.500000
vt 0.428571 1.000000
vt 0.428571 0.750000
vt 0.428571 0.250000
vt 0.428571 0.000000
vt 0.428571 0.500000
vt 0.571429 1.000000
vt 0.571429 0.750000
vt 0.571429 0.250000
vt 0.571429 0.000000
vt 0.571429 0.500000
vt 0.714286 1.000000
vt 0.714286 0.750000
vt 0.714286 0.250000
vt 0.714286 0.000000
vt 0.714286 0.500000
vt 0.857143 1.000000
vt 0.857143 0.750000
vt 0.857143 0.250000
vt 0.857143 0.000000
vt 0.857143 0.500000
vt 1.000000 1.000000
vt 1.000000 0.750000
vt 1.000000 0.250000
vt 1.000000 0.000000
vt 1.000000 0.500000
vn 0.0000 -1.0000 -0.0000
vn -0.0120 0.9998 0.0148
vn -0.2538 -0.0137 0.9672
vn -0.9672 -0.0062 -0.2539
vn 0.2538 0.0137 -0.9672
vn 0.9672 0.0062 0.2539
vn -0.2539 -0.0011 0.9672
vn -0.9672 -0.0005 -0.2539
vn 0.2539 0.0011 -0.9672
vn 0.9672 0.0005 0.2539
vn -0.2537 0.0222 0.9670
vn -0.9672 0.0100 -0.2540
vn 0.2537 -0.0221 -0.9670
vn 0.9672 -0.0100 0.2540
vn -0.2537 0.0231 0.9670
vn -0.9672 0.0104 -0.2540
vn 0.2537 -0.0231 -0.9670
vn 0.9672 -0.0104 0.2540
vn -0.2539 0.0098 0.9672
vn -0.9672 0.0044 -0.2539
vn 0.2539 -0.0098 -0.9672
vn 0.9672 -0.0044 0.2539
vn -0.2539 0.0000 0.9672
vn -0.9672 0.0000 -0.2539
vn 0.2539 0.0000 -0.9672
vn 0.9672 0.0000 0.2539
usemtl cactus
s off
f 3/1/1 1/2/1 2/3/1
f 4/4/1 1/2/1 3/1/1
f 5/5/2 7/6/2 6/7/2
f 5/5/2 8/8/2 7/6/2
f 9/9/3 13/10/3 16/11/3 12/12/3
f 10/13/4 14/14/4 13/15/4 9/16/4
f 11/17/5 15/18/5 14/14/5 10/13/5
f 12/12/6 16/11/6 15/18/6 11/17/6
f 13/10/7 17/19/7 20/20/7 16/11/7
f 14/14/8 18/21/8 17/22/8 13/15/8
f 15/18/9 19/23/9 18/21/9 14/14/9
f 16/11/10 20/20/10 19/23/10 15/18/10
f 17/19/11 21/24/11 24/25/11 20/20/11
f 18/21/12 22/26/12 21/27/12 17/22/12
f 19/23/13 23/28/13 22/26/13 18/21/13
f 20/20/14 24/25/14 23/28/14 19/23/14
f 21/24/15 25/29/15 28/30/15 24/25/15
f 22/26/16 26/31/16 25/32/16 21/27/16
f 23/28/17 27/33/17 26/31/17 22/26/17
f 24/25/18 28/30/18 27/33/18 23/28/18
f 25/29/19 29/34/19 32/35/19 28/30/19
f 26/31/20 30/36/20 29/37/20 25/32/20
f 27/33/21 31/38/21 30/36/21 26/31/21
f 28/30/22 32/35/22 31/38/22 27/33/22
f 29/34/23 33/39/23 36/40/23 32/35/23
f 30/36/24 34/41/24 33/42/24 29/37/24
f 31/38/25 35/43/25 34/41/25 30/36/25
f 32/35/26 36/40/26 35/43/26 31/38/26
f 33/39/23 37/44/23 40/45/23 36/40/23
f 34/41/24 38/46/24 37/47/24 33/42/24
f 35/43/25 39/48/25 38/46/25 34/41/25
f 36/40/26 40/45/26 39/48/26 35/43/26
o NurbsPath.002
v -5.526962 2.356261 -5.432927
v -5.622123 2.442332 -5.572259
v -5.519944 2.518850 -5.412332
v -5.424782 2.432779 -5.273000
v -6.052561 2.532368 -5.083920
v -6.016749 2.582158 -5.310064
v -5.796733 2.626067 -5.228242
v -5.832544 2.576277 -5.002097
v -6.052561 2.532368 -5.083920
v -6.016749 2.582158 -5.310064
v -5.796733 2.626067 -5.228242
v -5.832544 2.576277 -5.002097
v -5.940289 2.436443 -5.159359
v -5.932518 2.502782 -5.366782
v -5.737650 2.561531 -5.268169
v -5.745420 2.495192 -5.060747
v -5.526962 2.356261 -5.432927
v -5.622123 2.442332 -5.572259
v -5.519944 2.518850 -5.412332
v -5.424782 2.432779 -5.273000
vt 0.666667 0.000000
vt 0.000000 0.000000
vt 0.333333 0.000000
vt 1.000000 0.000000
vt 0.000000 0.000000
vt 0.666667 0.000000
vt 0.333333 0.000000
vt 1.000000 0.000000
vt 0.000000 1.000000
vt 0.500000 1.000000
vt 0.500000 0.750000
vt 0.000000 0.750000
vt 0.000000 0.250000
vt 0.500000 0.250000
vt 0.500000 0.000000
vt 0.000000 0.000000
vt 0.000000 0.500000
vt 0.500000 0.500000
vt 1.000000 1.000000
vt 1.000000 0.750000
vt 1.000000 0.250000
vt 1.000000 0.000000
vt 1.000000 0.500000
vn 0.8349 0.0336 -0.5495
vn 0.8348 0.0336 -0.5495
vn -0.2532 0.9524 0.1696
vn -0.1372 -0.6917 0.7090
vn -0.7318 -0.6363 -0.2440
vn 0.1593 0.6548 -0.7388
vn 0.7613 0.6032 0.2381
vn 0.0793 -0.9178 0.3891
vn -0.3669 -0.8822 -0.2953
vn -0.0788 0.9176 -0.3896
vn 0.3675 0.8820 0.2950
usemtl cactus
s off
f 43/49/27 41/50/27 42/51/27
f 43/49/28 44/52/28 41/50/28
f 45/53/29 47/54/29 46/55/29
f 48/56/29 47/54/29 45/53/29
f 49/57/30 53/58/30 56/59/30 52/60/30
f 50/61/31 54/62/31 53/63/31 49/64/31
f 51/65/32 55/66/32 54/62/32 50/61/32
f 52/60/33 56/59/33 55/66/33 51/65/33
f 53/58/34 57/67/34 60/68/34 56/59/34
f 54/62/35 58/69/35 57/70/35 53/63/35
f 55/66/36 59/71/36 58/69/36 54/62/36
f 56/59/37 60/68/37 59/71/37 55/66/37
o Cylinder
v -4.919486 -0.115024 -5.762582
v -5.049243 1.183734 -5.686791
v -4.836831 -0.115024 -5.523068
v -4.985715 1.183734 -5.502702
v -4.852126 -0.115024 -5.270155
v -4.997470 1.183734 -5.308314
v -4.963043 -0.115024 -5.042347
v -5.082720 1.183734 -5.133223
v -5.152694 -0.115024 -4.874326
v -5.228485 1.183734 -5.004083
v -5.392209 -0.115024 -4.791671
v -5.412575 1.183734 -4.940555
v -5.645122 -0.115024 -4.806966
v -5.606962 1.183734 -4.952310
v -5.872930 -0.115024 -4.917882
v -5.782054 1.183734 -5.037560
v -6.040951 -0.115024 -5.107534
v -5.911194 1.183734 -5.183325
v -6.123606 -0.115024 -5.347049
v -5.974722 1.183734 -5.367414
v -6.108311 -0.115024 -5.599962
v -5.962966 1.183734 -5.561802
v -5.997394 -0.115024 -5.827770
v -5.877717 1.183734 -5.736894
v -5.807742 -0.115024 -5.995791
v -5.731951 1.183734 -5.866034
v -5.568227 -0.115024 -6.078445
v -5.547862 1.183734 -5.929562
v -5.315314 -0.115024 -6.063150
v -5.353474 1.183734 -5.917806
v -5.087506 -0.115024 -5.952233
v -5.178382 1.183734 -5.832556
v -4.836831 1.183734 -5.523068
v -4.919486 1.183734 -5.762582
v -4.852126 1.183734 -5.270155
v -4.963043 1.183734 -5.042347
v -5.152694 1.183734 -4.874326
v -5.392209 1.183734 -4.791671
v -5.645122 1.183734 -4.806966
v -5.872930 1.183734 -4.917882
v -6.040951 1.183734 -5.107534
v -6.123606 1.183734 -5.347049
v -6.108311 1.183734 -5.599962
v -5.997394 1.183734 -5.827770
v -5.807742 1.183734 -5.995791
v -5.568227 1.183734 -6.078445
v -5.315314 1.183734 -6.063150
v -5.087506 1.183734 -5.952233
v -4.985715 0.903548 -5.502702
v -5.049243 0.903548 -5.686791
v -4.997470 0.903548 -5.308314
v -5.082720 0.903548 -5.133223
v -5.228485 0.903548 -5.004083
v -5.412575 0.903548 -4.940555
v -5.606962 0.903548 -4.952310
v -5.782054 0.903548 -5.037560
v -5.911194 0.903548 -5.183325
v -5.974722 0.903548 -5.367414
v -5.962966 0.903548 -5.561802
v -5.877717 0.903548 -5.736894
v -5.731951 0.903548 -5.866034
v -5.547862 0.903548 -5.929562
v -5.353474 0.903548 -5.917806
v -5.178382 0.903548 -5.832556
v -5.059144 0.299730 -5.681008
v -4.997075 0.299730 -5.501148
v -5.008561 0.299730 -5.311226
v -5.091852 0.299730 -5.140157
v -5.234268 0.299730 -5.013983
v -5.414128 0.299730 -4.951915
v -5.604050 0.299730 -4.963400
v -5.775120 0.299730 -5.046692
v -5.901293 0.299730 -5.189108
v -5.963362 0.299730 -5.368968
v -5.951876 0.299730 -5.558890
v -5.868585 0.299730 -5.729960
v -5.726168 0.299730 -5.856133
v -5.546308 0.299730 -5.918201
v -5.356386 0.299730 -5.906715
v -5.185317 0.299730 -5.823424
vt 0.937500 0.659673
vt 0.875000 0.659673
vt 0.875000 0.500000
vt 0.937500 0.500000
vt 0.812500 0.659673
vt 0.812500 0.500000
vt 0.750000 0.659673
vt 0.750000 0.500000
vt 0.687500 0.659673
vt 0.687500 0.500000
vt 0.625000 0.659673
vt 0.625000 0.500000
vt 0.562500 0.659673
vt 0.562500 0.500000
vt 0.500000 0.659673
vt 0.500000 0.500000
vt 0.437500 0.659673
vt 0.437500 0.500000
vt 0.375000 0.659673
vt 0.375000 0.500000
vt 0.312500 0.659673
vt 0.312500 0.500000
vt 0.250000 0.659673
vt 0.250000 0.500000
vt 0.187500 0.659673
vt 0.187500 0.500000
vt 0.125000 0.659673
vt 0.125000 0.500000
vt 0.062500 0.659673
vt 0.062500 0.500000
vt 0.000000 0.659673
vt 0.000000 0.500000
vt 0.119565 0.380435
vt 0.079579 0.320591
vt 0.079579 0.320591
vt 0.119565 0.380435
vt 0.750000 0.490000
vt 0.841844 0.471731
vt 0.919706 0.419706
vt 0.971731 0.341844
vt 0.990000 0.250000
vt 0.971731 0.158156
vt 0.919706 0.080294
vt 0.841844 0.028269
vt 0.750000 0.010000
vt 0.658156 0.028269
vt 0.580294 0.080294
vt 0.528269 0.158156
vt 0.510000 0.250000
vt 0.528269 0.341844
vt 0.580295 0.419706
vt 0.658156 0.471731
vt 1.000000 0.659673
vt 1.000000 0.500000
vt 0.250000 0.434463
vt 0.320591 0.420421
vt 0.341844 0.471731
vt 0.250000 0.490000
vt 0.380435 0.380435
vt 0.419706 0.419706
vt 0.420421 0.320591
vt 0.471731 0.341844
vt 0.434463 0.250000
vt 0.490000 0.250000
vt 0.420421 0.179409
vt 0.471731 0.158156
vt 0.380435 0.119565
vt 0.419706 0.080294
vt 0.320591 0.079579
vt 0.341844 0.028269
vt 0.250000 0.065537
vt 0.250000 0.010000
vt 0.179409 0.079579
vt 0.158156 0.028269
vt 0.119565 0.119565
vt 0.080294 0.080294
vt 0.079579 0.179409
vt 0.028269 0.158156
vt 0.065537 0.250000
vt 0.010000 0.250000
vt 0.028269 0.341844
vt 0.080295 0.419706
vt 0.179410 0.420421
vt 0.158156 0.471731
vt 0.250000 0.434463
vt 0.179410 0.420421
vt 0.065537 0.250000
vt 0.079579 0.179409
vt 0.119565 0.119565
vt 0.179409 0.079579
vt 0.250000 0.065537
vt 0.320591 0.079579
vt 0.380435 0.119565
vt 0.420421 0.179409
vt 0.434463 0.250000
vt 0.420421 0.320591
vt 0.380435 0.380435
vt 0.320591 0.420421
vt 1.000000 1.000000
vt 0.937500 1.000000
vt 0.062500 1.000000
vt 0.000000 1.000000
vt 0.125000 1.000000
vt 0.187500 1.000000
vt 0.250000 1.000000
vt 0.312500 1.000000
vt 0.375000 1.000000
vt 0.437500 1.000000
vt 0.500000 1.000000
vt 0.562500 1.000000
vt 0.625000 1.000000
vt 0.687500 1.000000
vt 0.750000 1.000000
vt 0.812500 1.000000
vt 0.875000 1.000000
vn 0.9323 0.3572 0.0564
vn 0.8398 0.3572 0.4089
vn 0.6194 0.3572 0.6991
vn 0.3047 0.3572 0.8829
vn -0.0564 0.3572 0.9323
vn -0.4089 0.3572 0.8398
vn -0.6991 0.3572 0.6194
vn -0.8829 0.3572 0.3047
vn -0.9323 0.3572 -0.0564
vn -0.8398 0.3572 -0.4089
vn -0.6194 0.3572 -0.6991
vn -0.3047 0.3572 -0.8829
vn 0.0564 0.3572 -0.9323
vn 0.4089 0.3572 -0.8398
vn 0.6991 0.3572 -0.6194
vn -0.0604 0.0000 0.9982
vn 0.0000 -1.0000 0.0000
vn 0.8829 0.3572 -0.3047
vn 0.0000 1.0000 0.0000
vn 0.4378 0.0000 -0.8991
vn -0.4378 0.0000 0.8991
vn 0.7485 0.0000 -0.6631
vn -0.9453 0.0000 0.3262
vn -0.7485 0.0000 0.6631
vn 0.9453 0.0000 -0.3262
vn -0.9982 0.0000 -0.0604
vn 0.9982 0.0000 0.0604
vn -0.8991 0.0000 -0.4378
vn 0.8991 0.0000 0.4378
vn -0.6631 0.0000 -0.7485
vn 0.6631 0.0000 0.7485
vn -0.3262 0.0000 -0.9453
vn 0.3262 0.0000 0.9453
vn 0.0604 0.0000 -0.9982
vn 0.9304 -0.1766 -0.3211
vn 0.7367 -0.1766 -0.6527
vn 0.4309 -0.1766 -0.8850
vn 0.0594 -0.1766 -0.9825
vn -0.3211 -0.1766 -0.9304
vn -0.6527 -0.1766 -0.7367
vn -0.8850 -0.1766 -0.4309
vn -0.9825 -0.1766 -0.0594
vn -0.9304 -0.1766 0.3211
vn -0.7367 -0.1766 0.6527
vn -0.4309 -0.1766 0.8850
vn -0.0594 -0.1766 0.9825
vn 0.3211 -0.1766 0.9304
vn 0.6527 -0.1766 0.7367
vn 0.8850 -0.1766 0.4309
vn 0.9825 -0.1766 0.0594
usemtl cimento
s off
f 126/72/38 127/73/38 65/74/38 63/75/38
f 127/73/39 128/76/39 67/77/39 65/74/39
f 128/76/40 129/78/40 69/79/40 67/77/40
f 129/78/41 130/80/41 71/81/41 69/79/41
f 130/80/42 131/82/42 73/83/42 71/81/42
f 131/82/43 132/84/43 75/85/43 73/83/43
f 132/84/44 133/86/44 77/87/44 75/85/44
f 133/86/45 134/88/45 79/89/45 77/87/45
f 134/88/46 135/90/46 81/91/46 79/89/46
f 135/90/47 136/92/47 83/93/47 81/91/47
f 136/92/48 137/94/48 85/95/48 83/93/48
f 137/94/49 138/96/49 87/97/49 85/95/49
f 138/96/50 139/98/50 89/99/50 87/97/50
f 139/98/51 140/100/51 91/101/51 89/99/51
f 140/100/52 125/102/52 61/103/52 91/101/52
f 90/104/53 88/105/53 122/106/53 123/107/53
f 61/108/54 63/109/54 65/110/54 67/111/54 69/112/54 71/113/54 73/114/54 75/115/54 77/116/54 79/117/54 81/118/54 83/119/54 85/120/54 87/121/54 89/122/54 91/123/54
f 125/124/55 126/72/55 63/75/55 61/125/55
f 62/126/56 64/127/56 93/128/56 94/129/56
f 64/127/56 66/130/56 95/131/56 93/128/56
f 66/130/56 68/132/56 96/133/56 95/131/56
f 68/132/56 70/134/56 97/135/56 96/133/56
f 70/134/56 72/136/56 98/137/56 97/135/56
f 72/136/56 74/138/56 99/139/56 98/137/56
f 74/138/56 76/140/56 100/141/56 99/139/56
f 76/140/56 78/142/56 101/143/56 100/141/56
f 78/142/56 80/144/56 102/145/56 101/143/56
f 80/144/56 82/146/56 103/147/56 102/145/56
f 82/146/56 84/148/56 104/149/56 103/147/56
f 84/148/56 86/150/56 105/151/56 104/149/56
f 86/150/56 88/105/56 106/152/56 105/151/56
f 88/105/56 90/104/56 107/153/56 106/152/56
f 90/104/56 92/154/56 108/155/56 107/153/56
f 92/154/56 62/126/56 94/129/56 108/155/56
f 110/156/56 124/157/56 123/107/56 122/106/56 121/158/56 120/159/56 119/160/56 118/161/56 117/162/56 116/163/56 115/164/56 114/165/56 113/166/56 112/167/56 111/168/56 109/169/56
f 76/140/57 74/138/57 115/164/57 116/163/57
f 92/154/58 90/104/58 123/107/58 124/157/58
f 78/142/59 76/140/59 116/163/59 117/162/59
f 64/127/60 62/126/60 110/156/60 109/169/60
f 62/126/61 92/154/61 124/157/61 110/156/61
f 80/144/62 78/142/62 117/162/62 118/161/62
f 66/130/63 64/127/63 109/169/63 111/168/63
f 82/146/64 80/144/64 118/161/64 119/160/64
f 68/132/65 66/130/65 111/168/65 112/167/65
f 84/148/66 82/146/66 119/160/66 120/159/66
f 70/134/67 68/132/67 112/167/67 113/166/67
f 86/150/68 84/148/68 120/159/68 121/158/68
f 72/136/69 70/134/69 113/166/69 114/165/69
f 88/105/70 86/150/70 121/158/70 122/106/70
f 74/138/71 72/136/71 114/165/71 115/164/71
f 94/170/72 93/171/72 126/72/72 125/124/72
f 108/172/73 94/173/73 125/102/73 140/100/73
f 107/174/74 108/172/74 140/100/74 139/98/74
f 106/175/75 107/174/75 139/98/75 138/96/75
f 105/176/76 106/175/76 138/96/76 137/94/76
f 104/177/77 105/176/77 137/94/77 136/92/77
f 103/178/78 104/177/78 136/92/78 135/90/78
f 102/179/79 103/178/79 135/90/79 134/88/79
f 101/180/80 102/179/80 134/88/80 133/86/80
f 100/181/81 101/180/81 133/86/81 132/84/81
f 99/182/82 100/181/82 132/84/82 131/82/82
f 98/183/83 99/182/83 131/82/83 130/80/83
f 97/184/84 98/183/84 130/80/84 129/78/84
f 96/185/85 97/184/85 129/78/85 128/76/85
f 95/186/86 96/185/86 128/76/86 127/73/86
f 93/171/87 95/186/87 127/73/87 126/72/87
