# Blender v2.82 (sub 7) OBJ File: 'prantinhas.blend'
# www.blender.org
mtllib cactus_grande_01_000013.mtl
o NurbsPath.001
v -5.652646 0.655687 -5.293762
v -5.572948 0.655687 -5.597395
v -5.269314 0.655687 -5.517697
v -5.349012 0.655687 -5.214064
v -5.652622 4.284760 -5.293791
v -5.572957 4.290206 -5.597384
v -5.269338 4.292658 -5.517668
v -5.349003 4.287211 -5.214075
v -5.652622 4.284760 -5.293791
v -5.572957 4.290206 -5.597384
v -5.269338 4.292658 -5.517668
v -5.349003 4.287211 -5.214075
v -5.642885 3.255198 -5.305840
v -5.563193 3.257519 -5.609466
v -5.259562 3.258565 -5.529765
v -5.339255 3.256243 -5.226139
v -5.642367 2.567915 -5.306481
v -5.562681 2.564605 -5.610099
v -5.259053 2.563115 -5.530395
v -5.338740 2.566425 -5.226776
v -5.648326 2.178736 -5.299107
v -5.568684 2.171633 -5.602672
v -5.265075 2.168436 -5.522943
v -5.344718 2.175539 -5.219378
v -5.651940 1.951505 -5.294636
v -5.572271 1.946347 -5.598233
v -5.268651 1.944026 -5.518518
v -5.348320 1.949183 -5.214921
v -5.652644 1.847282 -5.293765
v -5.572948 1.845748 -5.597394
v -5.269316 1.845057 -5.517695
v -5.349012 1.846592 -5.214065
v -5.652646 1.457647 -5.293762
v -5.572948 1.457647 -5.597395
v -5.269314 1.457646 -5.517697
v -5.349012 1.457647 -5.214064
v -5.652646 0.655687 -5.293762
v -5.572948 0.655687 -5.597395
v -5.269314 0.655687 -5.517697
v -5.349012 0.655687 -5.214064
vt 0.666667 0.000000
vt 0.000000 0.000000
vt 0.333333 0.000000
vt 1.000000 0.000000
vt 0.000000 0.000000
vt 0.666667 0.000000
vt 0.333333 0.000000
vt 1.000000 0.000000
vt 0.000000 1.000000
vt 0.142857 1.000000
vt 0.142857 0.750000
vt 0.000000 0.750000
vt 0.000000 0.250000
vt 0.142857 0.250000
vt 0.142857 0.000000
vt 0.000000 0.000000
vt 0.000000 0.500000
vt 0.142857 0.500000
vt 0.285714 1.000000
vt 0.285714 0.750000
vt 0.285714 0.250000
vt 0.285714 0.000000
vt 0.285714 0.500000
vt 0.428571 1.000000
vt 0.428571 0.750000
vt 0.428571 0.250000
vt 0.428571 0.000000
vt 0.428571 0.500000
vt 0.571429 1.000000
vt 0.571429 0.750000
vt 0.571429 0.250000
vt 0.571429 0.000000
vt 0.571429 0.500000
vt 0.714286 1.000000
vt 0.714286 0.750000
vt 0.714286 0.250000
vt 0.714286 0.000000
vt 0.714286 0.500000
vt 0.857143 1.000000
vt 0.857143 0.750000
vt 0.857143 0.250000
vt 0.857143 0.000000
vt 0.857143 0.500000
vt 1.000000 1.000000
vt 1.000000 0.750000
vt 1.000000 0.250000
vt 1.000000 0.000000
vt 1.000000 0.500000
vn 0.0000 -1.0000 -0.0000
vn -0.0120 0.9998 0.0148
vn -0.2538 -0.0137 0.9672
vn -0.9672 -0.0062 -0.2539
vn 0.2538 0.0137 -0.9672
vn 0.9672 0.0062 0.2539
vn -0.2539 -0.0011 0.9672
vn -0.9672 -0.0005 -0.2539
vn 0.2539 0.0011 -0.9672
vn 0.9672 0.0005 0.2539
vn -0.2537 0.0222 0.9670
vn -0.9672 0.0100 -0.2540
vn 0.2537 -0.0221 -0.9670
vn 0.9672 -0.0100 0.2540
vn -0.2537 0.0231 0.9670
vn -0.9672 0.0104 -0.2540
vn 0.2537 -0.0231 -0.9670
vn 0.9672 -0.0104 0.2540
vn -0.2539 0.0098 0.9672
vn -0.9672 0.0044 -0.2539
vn 0.2539 -0.0098 -0.9672
vn 0.9672 -0.0044 0.2539
vn -0.2539 0.0000 0.9672
vn -0.9672 0.0000 -0.2539
vn 0.2539 0.0000 -0.9672
vn 0.9672 0.0000 0.2539
usemtl cactus
s off
f 3/1/1 1/2/1 2/3/1
f 4/4/1 1/2/1 3/1/1
f 5/5/2 7/6/2 6/7/2
f 5/5/2 8/8/2 7/6/2
f 9/9/3 13/10/3 16/11/3 12/12/3
f 10/13/4 14/14/4 13/15/4 9/16/4
f 11/17/5 15/18/5 14/14/5 10/13/5
f 12/12/6 16/11/6 15/18/6 11/17/6
f 13/10/7 17/19/7 20/20/7 16/11/7
f 14/14/8 18/21/8 17/22/8 13/15/8
f 15/18/9 19/23/9 18/21/9 14/14/9
f 16/11/10 20/20/10 19/23/10 15/18/10
f 17/19/11 21/24/11 24/25/11 20/20/11
f 18/21/12 22/26/12 21/27/12 17/22/12
f 19/23/13 23/28/13 22/26/13 18/21/13
f 20/20/14 24/25/14 23/28/14 19/23/14
f 21/24/15 25/29/15 28/30/15 24/25/15
f 22/26/16 26/31/16 25/32/16 21/27/16
f 23/28/17 27/33/17 26/31/17 22/26/17
f 24/25/18 28/30/18 27/33/18 23/28/18
f 25/29/19 29/34/19 32/35/19 28/30/19
f 26/31/20 30/36/20 29/37/20 25/32/20
f 27/33/21 31/38/21 30/36/21 26/31/21
f 28/30/22 32/35/22 31/38/22 27/33/22
f 29/34/23 33/39/23 36/40/23 32/35/23
f 30/36/24 34/41/24 33/42/24 29/37/24
f 31/38/25 35/43/25 34/41/25 30/36/25
f 32/35/26 36/40/26 35/43/26 31/38/26
f 33/39/23 37/44/23 40/45/23 36/40/23
f 34/41/24 38/46/24 37/47/24 33/42/24
f 35/43/25 39/48/25 38/46/25 34/41/25
f 36/40/26 40/45/26 39/48/26 35/43/26
o NurbsPath.002
v -5.526962 2.356261 -5.432927
v -5.622123 2.442332 -5.572259
v -5.519944 2.518850 -5.412332
v -5.424782 2.432779 -5.273000
v -6.280607 3.632603 -4.927001
v -6.216133 3.633239 -5.172587
v -5.970550 3.633838 -5.108106
v -6.035023 3.633204 -4.862521
v -6.280607 3.632603 -4.927001
v -6.216133 3.633239 -5.172587
v -5.970550 3.633838 -5.108106
v -6.035023 3.633204 -4.862521
v -6.279584 3.567282 -4.927605
v -6.215115 3.568154 -5.173189
v -5.969533 3.568978 -5.108705
v -6.034003 3.568106 -4.863121
v -6.274095 3.332061 -4.931146
v -6.209641 3.333556 -5.176720
v -5.964070 3.334811 -5.112229
v -6.028524 3.333316 -4.866655
v -6.265069 3.093551 -4.937880
v -6.200748 3.097496 -5.183357
v -5.955285 3.100712 -5.118788
v -6.019606 3.096767 -4.873312
v -6.236105 2.854460 -4.958829
v -6.173003 2.866053 -5.203444
v -5.928593 2.875883 -5.138131
v -5.991695 2.864289 -4.893516
v -6.151714 2.626828 -5.017164
v -6.097459 2.657650 -5.255725
v -5.860902 2.684546 -5.185038
v -5.915157 2.653725 -4.946477
v -5.940289 2.436443 -5.159359
v -5.932518 2.502782 -5.366782
v -5.737650 2.561531 -5.268169
v -5.745420 2.495192 -5.060747
v -5.526962 2.356261 -5.432927
v -5.622123 2.442332 -5.572259
v -5.519944 2.518850 -5.412332
v -5.424782 2.432779 -5.273000
vt 0.666667 0.000000
vt 0.000000 0.000000
vt 0.333333 0.000000
vt 1.000000 0.000000
vt 0.000000 0.000000
vt 0.666667 0.000000
vt 0.333333 0.000000
vt 1.000000 0.000000
vt 0.000000 1.000000
vt 0.142857 1.000000
vt 0.142857 0.750000
vt 0.000000 0.750000
vt 0.000000 0.250000
vt 0.142857 0.250000
vt 0.142857 0.000000
vt 0.000000 0.000000
vt 0.000000 0.500000
vt 0.142857 0.500000
vt 0.285714 1.000000
vt 0.285714 0.750000
vt 0.285714 0.250000
vt 0.285714 0.000000
vt 0.285714 0.500000
vt 0.428571 1.000000
vt 0.428571 0.750000
vt 0.428571 0.250000
vt 0.428571 0.000000
vt 0.428571 0.500000
vt 0.571429 1.000000
vt 0.571429 0.750000
vt 0.571429 0.250000
vt 0.571429 0.000000
vt 0.571429 0.500000
vt 0.714286 1.000000
vt 0.714286 0.750000
vt 0.714286 0.250000
vt 0.714286 0.000000
vt 0.714286 0.500000
vt 0.857143 1.000000
vt 0.857143 0.750000
vt 0.857143 0.250000
vt 0.857143 0.000000
vt 0.857143 0.500000
vt 1.000000 1.000000
vt 1.000000 0.750000
vt 1.000000 0.250000
vt 1.000000 0.000000
vt 1.000000 0.500000
vn 0.8349 0.0336 -0.5495
vn 0.8348 0.0336 -0.5495
vn -0.0029 1.0000 0.0018
vn -0.2539 -0.0129 0.9671
vn -0.9671 -0.0128 -0.2539
vn 0.2539 0.0129 -0.9671
vn 0.9671 0.0128 0.2539
vn -0.2539 -0.0205 0.9670
vn -0.9670 -0.0187 -0.2539
vn 0.2539 0.0205 -0.9670
vn 0.9670 0.0187 0.2539
vn -0.2537 -0.0368 0.9666
vn -0.9668 -0.0293 -0.2539
vn 0.2537 0.0367 -0.9666
vn 0.9668 0.0292 0.2539
vn -0.2518 -0.1142 0.9610
vn -0.9628 -0.0939 -0.2533
vn 0.2518 0.1131 -0.9611
vn 0.9629 0.0931 0.2533
vn -0.2352 -0.3195 0.9179
vn -0.9279 -0.2770 -0.2497
vn 0.2362 0.3129 -0.9199
vn 0.9295 0.2715 0.2496
vn -0.1449 -0.6839 0.7151
vn -0.7390 -0.6296 -0.2399
vn 0.1532 0.6679 -0.7283
vn 0.7516 0.6150 0.2385
vn 0.0793 -0.9178 0.3891
vn -0.3669 -0.8822 -0.2953
vn -0.0788 0.9176 -0.3896
vn 0.3675 0.8820 0.2950
usemtl cactus
s off
f 43/49/27 41/50/27 42/51/27
f 43/49/28 44/52/28 41/50/28
f 45/53/29 47/54/29 46/55/29
f 48/56/29 47/54/29 45/53/29
f 49/57/30 53/58/30 56/59/30 52/60/30
f 50/61/31 54/62/31 53/63/31 49/64/31
f 51/65/32 55/66/32 54/62/32 50/61/32
f 52/60/33 56/59/33 55/66/33 51/65/33
f 53/58/34 57/67/34 60/68/34 56/59/34
f 54/62/35 58/69/35 57/70/35 53/63/35
f 55/66/36 59/71/36 58/69/36 54/62/36
f 56/59/37 60/68/37 59/71/37 55/66/37
f 57/67/38 61/72/38 64/73/38 60/68/38
f 58/69/39 62/74/39 61/75/39 57/70/39
f 59/71/40 63/76/40 62/74/40 58/69/40
f 60/68/41 64/73/41 63/76/41 59/71/41
f 61/72/42 65/77/42 68/78/42 64/73/42
f 62/74/43 66/79/43 65/80/43 61/75/43
f 63/76/44 67/81/44 66/79/44 62/74/44
f 64/73/45 68/78/45 67/81/45 63/76/45
f 65/77/46 69/82/46 72/83/46 68/78/46
f 66/79/47 70/84/47 69/85/47 65/80/47
f 67/81/48 71/86/48 70/84/48 66/79/48
f 68/78/49 72/83/49 71/86/49 67/81/49
f 69/82/50 73/87/50 76/88/50 72/83/50
f 70/84/51 74/89/51 73/90/51 69/85/51
f 71/86/52 75/91/52 74/89/52 70/84/52
f 72/83/53 76/88/53 75/91/53 71/86/53
f 73/87/54 77/92/54 80/93/54 76/88/54
f 74/89/55 78/94/55 77/95/55 73/90/55
f 75/91/56 79/96/56 78/94/56 74/89/56
f 76/88/57 80/93/57 79/96/57 75/91/57
o NurbsPath.003
v -5.318447 2.896914 -5.527592
v -5.241437 2.962583 -5.404689
v -5.314549 3.028359 -5.529676
v -5.391558 2.962690 -5.652579
v -4.880483 3.039125 -5.787498
v -4.913901 3.078759 -5.605175
v -5.089247 3.114807 -5.675398
v -5.055829 3.075173 -5.857721
v -4.880483 3.039125 -5.787498
v -4.913901 3.078759 -5.605175
v -5.089247 3.114807 -5.675398
v -5.055829 3.075173 -5.857721
v -4.973999 2.961682 -5.731221
v -4.983002 3.014117 -5.562253
v -5.137421 3.062749 -5.643823
v -5.128418 3.010314 -5.812791
v -5.318447 2.896914 -5.527592
v -5.241437 2.962583 -5.404689
v -5.314549 3.028359 -5.529676
v -5.391558 2.962690 -5.652579
vt 0.666667 0.000000
vt 0.000000 0.000000
vt 0.333333 0.000000
vt 1.000000 0.000000
vt 0.000000 0.000000
vt 0.666667 0.000000
vt 0.333333 0.000000
vt 1.000000 0.000000
vt 0.000000 1.000000
vt 0.500000 1.000000
vt 0.500000 0.750000
vt 0.000000 0.750000
vt 0.000000 0.250000
vt 0.500000 0.250000
vt 0.500000 0.000000
vt 0.000000 0.000000
vt 0.000000 0.500000
vt 0.500000 0.500000
vt 1.000000 1.000000
vt 1.000000 0.750000
vt 1.000000 0.250000
vt 1.000000 0.000000
vt 1.000000 0.500000
vn -0.8549 0.0336 0.5177
vn 0.2597 0.9524 -0.1595
vn 0.1523 -0.6847 -0.7128
vn 0.7199 -0.6452 0.2560
vn -0.1746 0.6484 0.7410
vn -0.7507 0.6112 -0.2508
vn -0.0802 -0.9068 -0.4140
vn 0.3423 -0.8960 0.2828
vn 0.0797 0.9066 0.4144
vn -0.3430 0.8958 -0.2826
usemtl cactus
s off
f 83/97/58 81/98/58 82/99/58
f 84/100/58 81/98/58 83/97/58
f 85/101/59 87/102/59 86/103/59
f 88/104/59 87/102/59 85/101/59
f 89/105/60 93/106/60 96/107/60 92/108/60
f 90/109/61 94/110/61 93/111/61 89/112/61
f 91/113/62 95/114/62 94/110/62 90/109/62
f 92/108/63 96/107/63 95/114/63 91/113/63
f 93/106/64 97/115/64 100/116/64 96/107/64
f 94/110/65 98/117/65 97/118/65 93/111/65
f 95/114/66 99/119/66 98/117/66 94/110/66
f 96/107/67 100/116/67 99/119/67 95/114/67
o Cylinder
v -4.919486 -0.115024 -5.762582
v -5.049243 1.183734 -5.686791
v -4.836831 -0.115024 -5.523068
v -4.985715 1.183734 -5.502702
v -4.852126 -0.115024 -5.270155
v -4.997470 1.183734 -5.308314
v -4.963043 -0.115024 -5.042347
v -5.082720 1.183734 -5.133223
v -5.152694 -0.115024 -4.874326
v -5.228485 1.183734 -5.004083
v -5.392209 -0.115024 -4.791671
v -5.412575 1.183734 -4.940555
v -5.645122 -0.115024 -4.806966
v -5.606962 1.183734 -4.952310
v -5.872930 -0.115024 -4.917882
v -5.782054 1.183734 -5.037560
v -6.040951 -0.115024 -5.107534
v -5.911194 1.183734 -5.183325
v -6.123606 -0.115024 -5.347049
v -5.974722 1.183734 -5.367414
v -6.108311 -0.115024 -5.599962
v -5.962966 1.183734 -5.561802
v -5.997394 -0.115024 -5.827770
v -5.877717 1.183734 -5.736894
v -5.807742 -0.115024 -5.995791
v -5.731951 1.183734 -5.866034
v -5.568227 -0.115024 -6.078445
v -5.547862 1.183734 -5.929562
v -5.315314 -0.115024 -6.063150
v -5.353474 1.183734 -5.917806
v -5.087506 -0.115024 -5.952233
v -5.178382 1.183734 -5.832556
v -4.836831 1.183734 -5.523068
v -4.919486 1.183734 -5.762582
v -4.852126 1.183734 -5.270155
v -4.963043 1.183734 -5.042347
v -5.152694 1.183734 -4.874326
v -5.392209 1.183734 -4.791671
v -5.645122 1.183734 -4.806966
v -5.872930 1.183734 -4.917882
v -6.040951 1.183734 -5.107534
v -6.123606 1.183734 -5.347049
v -6.108311 1.183734 -5.599962
v -5.997394 1.183734 -5.827770
v -5.807742 1.183734 -5.995791
v -5.568227 1.183734 -6.078445
v -5.315314 1.183734 -6.063150
v -5.087506 1.183734 -5.952233
v -4.985715 0.903548 -5.502702
v -5.049243 0.903548 -5.686791
v -4.997470 0.903548 -5.308314
v -5.082720 0.903548 -5.133223
v -5.228485 0.903548 -5.004083
v -5.412575 0.903548 -4.940555
v -5.606962 0.903548 -4.952310
v -5.782054 0.903548 -5.037560
v -5.911194 0.903548 -5.183325
v -5.974722 0.903548 -5.367414
v -5.962966 0.903548 -5.561802
v -5.877717 0.903548 -5.736894
v -5.731951 0.903548 -5.866034
v -5.547862 0.903548 -5.929562
v -5.353474 0.903548 -5.917806
v -5.178382 0.903548 -5.832556
v -5.059144 0.299730 -5.681008
v -4.997075 0.299730 -5.501148
v -5.008561 0.299730 -5.311226
v -5.091852 0.299730 -5.140157
v -5.234268 0.299730 -5.013983
v -5.414128 0.299730 -4.951915
v -5.604050 0.299730 -4.963400
v -5.775120 0.299730 -5.046692
v -5.901293 0.299730 -5.189108
v -5.963362 0.299730 -5.368968
v -5.951876 0.299730 -5.558890
v -5.868585 0.299730 -5.729960
v -5.726168 0.299730 -5.856133
v -5.546308 0.299730 -5.918201
v -5.356386 0.299730 -5.906715
v -5.185317 0.299730 -5.823424
vt 0.937500 0.659673
vt 0.875000 0.659673
vt 0.875000 0.500000
vt 0.937500 0.500000
vt 0.812500 0.659673
vt 0.812500 0.500000
vt 0.750000 0.659673
vt 0.750000 0.500000
vt 0.687500 0.659673
vt 0.687500 0.500000
vt 0.625000 0.659673
vt 0.625000 0.500000
vt 0.562500 0.659673
vt 0.562500 0.500000
vt 0.500000 0.659673
vt 0.500000 0.500000
vt 0.437500 0.659673
vt 0.437500 0.500000
vt 0.375000 0.659673
vt 0.375000 0.500000
vt 0.312500 0.659673
vt 0.312500 0.500000
vt 0.250000 0.659673
vt 0.250000 0.500000
vt 0.187500 0.659673
vt 0.187500 0.500000
vt 0.125000 0.659673
vt 0.125000 0.500000
vt 0.062500 0.659673
vt 0.062500 0.500000
vt 0.000000 0.659673
vt 0.000000 0.500000
vt 0.119565 0.380435
vt 0.079579 0.320591
vt 0.079579 0.320591
vt 0.119565 0.380435
vt 0.750000 0.490000
vt 0.841844 0.471731
vt 0.919706 0.419706
vt 0.971731 0.341844
vt 0.990000 0.250000
vt 0.971731 0.158156
vt 0.919706 0.080294
vt 0.841844 0.028269
vt 0.750000 0.010000
vt 0.658156 0.028269
vt 0.580294 0.080294
vt 0.528269 0.158156
vt 0.510000 0.250000
vt 0.528269 0.341844
vt 0.580295 0.419706
vt 0.658156 0.471731
vt 1.000000 0.659673
vt 1.000000 0.500000
vt 0.250000 0.434463
vt 0.320591 0.420421
vt 0.341844 0.471731
vt 0.250000 0.490000
vt 0.380435 0.380435
vt 0.419706 0.419706
vt 0.420421 0.320591
vt 0.471731 0.341844
vt 0.434463 0.250000
vt 0.490000 0.250000
vt 0.420421 0.179409
vt 0.471731 0.158156
vt 0.380435 0.119565
vt 0.419706 0.080294
vt 0.320591 0.079579
vt 0.341844 0.028269
vt 0.250000 0.065537
vt 0.250000 0.010000
vt 0.179409 0.079579
vt 0.158156 0.028269
vt 0.119565 0.119565
vt 0.080294 0.080294
vt 0.079579 0.179409
vt 0.028269 0.158156
vt 0.065537 0.250000
vt 0.010000 0.250000
vt 0.028269 0.341844
vt 0.080295 0.419706
vt 0.179410 0.420421
vt 0.158156 0.471731
vt 0.250000 0.434463
vt 0.179410 0.420421
vt 0.065537 0.250000
vt 0.079579 0.179409
vt 0.119565 0.119565
vt 0.179409 0.079579
vt 0.250000 0.065537
vt 0.320591 0.079579
vt 0.380435 0.119565
vt 0.420421 0.179409
vt 0.434463 0.250000
vt 0.420421 0.320591
vt 0.380435 0.380435
vt 0.320591 0.420421
vt 1.000000 1.000000
vt 0.937500 1.000000
vt 0.062500 1.000000
vt 0.000000 1.000000
vt 0.125000 1.000000
vt 0.187500 1.000000
vt 0.250000 1.000000
vt 0.312500 1.000000
vt 0.375000 1.000000
vt 0.437500 1.000000
vt 0.500000 1.000000
vt 0.562500 1.000000
vt 0.625000 1.000000
vt 0.687500 1.000000
vt 0.750000 1.000000
vt 0.812500 1.000000
vt 0.875000 1.000000
vn 0.9323 0.3572 0.0564
vn 0.8398 0.3572 0.4089
vn 0.6194 0.3572 0.6991
vn 0.3047 0.3572 0.8829
vn -0.0564 0.3572 0.9323
vn -0.4089 0.3572 0.8398
vn -0.6991 0.3572 0.6194
vn -0.8829 0.3572 0.3047
vn -0.9323 0.3572 -0.0564
vn -0.8398 0.3572 -0.4089
vn -0.6194 0.3572 -0.6991
vn -0.3047 0.3572 -0.8829
vn 0.0564 0.3572 -0.9323
vn 0.4089 0.3572 -0.8398
vn 0.6991 0.3572 -0.6194
vn -0.0604 0.0000 0.9982
vn 0.0000 -1.0000 0.0000
vn 0.8829 0.3572 -0.3047
vn 0.0000 1.0000 0.0000
vn 0.4378 0.0000 -0.8991
vn -0.4378 0.0000 0.8991
vn 0.7485 0.0000 -0.6631
vn -0.9453 0.0000 0.3262
vn -0.7485 0.0000 0.6631
vn 0.9453 0.0000 -0.3262
vn -0.9982 0.0000 -0.0604
vn 0.9982 0.0000 0.0604
vn -0.8991 0.0000 -0.4378
vn 0.8991 0.0000 0.4378
vn -0.6631 0.0000 -0.7485
vn 0.6631 0.0000 0.7485
vn -0.3262 0.0000 -0.9453
vn 0.3262 0.0000 0.9453
vn 0.0604 0.0000 -0.9982
vn 0.9304 -0.1766 -0.3211
vn 0.7367 -0.1766 -0.6527
vn 0.4309 -0.1766 -0.8850
vn 0.0594 -0.1766 -0.9825
vn -0.3211 -0.1766 -0.9304
vn -0.6527 -0.1766 -0.7367
vn -0.8850 -0.1766 -0.4309
vn -0.9825 -0.1766 -0.0594
vn -0.9304 -0.1766 0.3211
vn -0.7367 -0.1766 0.6527
vn -0.4309 -0.1766 0.8850
vn -0.0594 -0.1766 0.9825
vn 0.3211 -0.1766 0.9304
vn 0.6527 -0.1766 0.7367
vn 0.8850 -0.1766 0.4309
vn 0.9825 -0.1766 0.0594
usemtl cimento
s off
f 166/120/68 167/121/68 105/122/68 103/123/68
f 167/121/69 168/124/69 107/125/69 105/122/69
f 168/124/70 169/126/70 109/127/70 107/125/70
f 169/126/71 170/128/71 111/129/71 109/127/71
f 170/128/72 171/130/72 113/131/72 111/129/72
f 171/130/73 172/132/73 115/133/73 113/131/73
f 172/132/74 173/134/74 117/135/74 115/133/74
f 173/134/75 174/136/75 119/137/75 117/135/75
f 174/136/76 175/138/76 121/139/76 119/137/76
f 175/138/77 176/140/77 123/141/77 121/139/77
f 176/140/78 177/142/78 125/143/78 123/141/78
f 177/142/79 178/144/79 127/145/79 125/143/79
f 178/144/80 179/146/80 129/147/80 127/145/80
f 179/146/81 180/148/81 131/149/81 129/147/81
f 180/148/82 165/150/82 101/151/82 131/149/82
f 130/152/83 128/153/83 162/154/83 163/155/83
f 101/156/84 103/157/84 105/158/84 107/159/84 109/160/84 111/161/84 113/162/84 115/163/84 117/164/84 119/165/84 121/166/84 123/167/84 125/168/84 127/169/84 129/170/84 131/171/84
f 165/172/85 166/120/85 103/123/85 101/173/85
f 102/174/86 104/175/86 133/176/86 134/177/86
f 104/175/86 106/178/86 135/179/86 133/176/86
f 106/178/86 108/180/86 136/181/86 135/179/86
f 108/180/86 110/182/86 137/183/86 136/181/86
f 110/182/86 112/184/86 138/185/86 137/183/86
f 112/184/86 114/186/86 139/187/86 138/185/86
f 114/186/86 116/188/86 140/189/86 139/187/86
f 116/188/86 118/190/86 141/191/86 140/189/86
f 118/190/86 120/192/86 142/193/86 141/191/86
f 120/192/86 122/194/86 143/195/86 142/193/86
f 122/194/86 124/196/86 144/197/86 143/195/86
f 124/196/86 126/198/86 145/199/86 144/197/86
f 126/198/86 128/153/86 146/200/86 145/199/86
f 128/153/86 130/152/86 147/201/86 146/200/86
f 130/152/86 132/202/86 148/203/86 147/201/86
f 132/202/86 102/174/86 134/177/86 148/203/86
f 150/204/86 164/205/86 163/155/86 162/154/86 161/206/86 160/207/86 159/208/86 158/209/86 157/210/86 156/211/86 155/212/86 154/213/86 153/214/86 152/215/86 151/216/86 149/217/86
f 116/188/87 114/186/87 155/212/87 156/211/87
f 132/202/88 130/152/88 163/155/88 164/205/88
f 118/190/89 116/188/89 156/211/89 157/210/89
f 104/175/90 102/174/90 150/204/90 149/217/90
f 102/174/91 132/202/91 164/205/91 150/204/91
f 120/192/92 118/190/92 157/210/92 158/209/92
f 106/178/93 104/175/93 149/217/93 151/216/93
f 122/194/94 120/192/94 158/209/94 159/208/94
f 108/180/95 106/178/95 151/216/95 152/215/95
f 124/196/96 122/194/96 159/208/96 160/207/96
f 110/182/97 108/180/97 152/215/97 153/214/97
f 126/198/98 124/196/98 160/207/98 161/206/98
f 112/184/99 110/182/99 153/214/99 154/213/99
f 128/153/100 126/198/100 161/206/100 162/154/100
f 114/186/101 112/184/101 154/213/101 155/212/101
f 134/218/102 133/219/102 166/120/102 165/172/102
f 148/220/103 134/221/103 165/150/103 180/148/103
f 147/222/104 148/220/104 180/148/104 179/146/104
f 146/223/105 147/222/105 179/146/105 178/144/105
f 145/224/106 146/223/106 178/144/106 177/142/106
f 144/225/107 145/224/107 177/142/107 176/140/107
f 143/226/108 144/225/108 176/140/108 175/138/108
f 142/227/109 143/226/109 175/138/109 174/136/109
f 141/228/110 142/227/110 174/136/110 173/134/110
f 140/229/111 141/228/111 173/134/111 172/132/111
f 139/230/112 140/229/112 172/132/112 171/130/112
f 138/231/113 139/230/113 171/130/113 170/128/113
f 137/232/114 138/231/114 170/128/114 169/126/114
f 136/233/115 137/232/115 169/126/115 168/124/115
f 135/234/116 136/233/116 168/124/116 167/121/116
f 133/219/117 135/234/117 167/121/117 166/120/117
