# Blender v2.82 (sub 7) OBJ File: 'models.blend'
# www.blender.org
mtllib tool_gardening_shovel.mtl
o Cube.004_Cube.032
v -0.075679 1.625826 0.075679
v -0.075679 1.625826 -0.075679
v 0.075679 1.625826 0.075679
v 0.075679 1.625826 -0.075679
v -0.070932 2.036223 0.014206
v -0.075679 2.036223 -0.140142
v 0.075679 2.036223 -0.140142
v 0.080426 2.036223 0.012949
v -0.240641 2.333690 -0.051714
v -0.233207 2.346053 -0.171424
v 0.252185 2.331868 -0.157811
v 0.240641 2.333690 -0.051714
v -0.071418 1.625826 0.071418
v -0.144901 1.702738 0.125944
v -0.117075 1.625826 0.117075
v -0.147512 1.657684 0.139660
v -0.144898 1.702804 -0.144898
v -0.071418 1.625826 -0.071418
v -0.147511 1.657711 -0.147511
v -0.117075 1.625826 -0.117075
v 0.144898 1.702804 -0.144898
v 0.071418 1.625826 -0.071418
v 0.147511 1.657711 -0.147511
v 0.117075 1.625826 -0.117075
v 0.144901 1.702738 0.125944
v 0.071418 1.625826 0.071418
v 0.147512 1.657684 0.139660
v 0.117075 1.625826 0.117075
v 0.308193 1.939391 -0.013281
v 0.333789 2.002999 -0.040946
v 0.336275 1.949738 -0.027317
v 0.346877 1.976085 -0.038776
v -0.333789 2.002999 -0.040946
v -0.308193 1.939391 -0.013281
v -0.346877 1.976085 -0.038776
v -0.336275 1.949738 -0.027317
v -0.308193 1.939391 -0.134888
v -0.335023 2.003579 -0.137134
v -0.336275 1.949738 -0.134888
v -0.347388 1.976326 -0.135818
v 0.334553 2.003363 -0.135982
v 0.308193 1.939391 -0.134888
v 0.347194 1.976236 -0.135341
v 0.336275 1.949738 -0.134888
v 0.001441 2.658258 -0.083358
v -0.093166 2.608729 -0.080959
v -0.032173 2.658258 -0.083358
v -0.060926 2.637742 -0.082364
v -0.089391 2.623590 -0.150184
v 0.004288 2.671991 -0.149605
v -0.057361 2.651943 -0.149845
v -0.028138 2.671991 -0.149605
v 0.088939 2.623105 -0.148764
v 0.028138 2.671991 -0.149605
v 0.057198 2.651741 -0.149257
v 0.093225 2.608729 -0.080959
v 0.060926 2.637742 -0.082364
v 0.032173 2.658258 -0.083358
v -0.206389 1.901879 0.037601
v -0.139296 1.799460 0.096497
v -0.058687 1.875534 0.073338
v -0.108225 1.942525 0.048685
v -0.164505 1.886446 0.058535
v -0.136714 1.844023 0.082931
v -0.139296 1.799460 -0.139296
v -0.206389 1.901879 -0.134888
v -0.108554 1.947001 -0.137225
v -0.058687 1.875534 -0.134888
v -0.136714 1.844023 -0.136714
v -0.164505 1.886446 -0.134888
v 0.206389 1.901879 -0.134888
v 0.139296 1.799460 -0.139296
v 0.058687 1.875534 -0.134888
v 0.108554 1.947001 -0.137225
v 0.164505 1.886446 -0.134888
v 0.136714 1.844023 -0.136714
v 0.139296 1.799460 0.096497
v 0.206389 1.901879 0.037601
v 0.111844 1.943524 0.047786
v 0.058687 1.875534 0.073338
v 0.136714 1.844023 0.082931
v 0.164505 1.886446 0.058535
v -0.036771 0.000287 0.036771
v -0.087916 0.123919 0.087916
v -0.066731 0.030653 0.066731
v -0.087916 0.074789 0.087916
v -0.036771 0.000287 -0.036771
v -0.087916 0.123919 -0.087916
v -0.066731 0.030653 -0.066731
v -0.087916 0.074789 -0.087916
v 0.036771 0.000287 0.036771
v 0.087916 0.123919 0.087916
v 0.066731 0.030653 0.066731
v 0.087916 0.074789 0.087916
v 0.036771 0.000287 -0.036771
v 0.087916 0.123919 -0.087916
v 0.066731 0.030653 -0.066731
v 0.087916 0.074789 -0.087916
vt 0.662589 0.511353
vt 0.702760 0.511353
vt 0.702760 0.553957
vt 0.662589 0.553957
vt 0.662589 0.468750
vt 0.702760 0.468750
vt 0.662589 0.426147
vt 0.702760 0.426147
vt 0.662589 0.383543
vt 0.702760 0.383543
vt 0.871212 0.516910
vt 0.871212 0.501964
vt 0.879132 0.506373
vt 0.879132 0.516910
vt 0.965878 0.433672
vt 0.956693 0.435593
vt 0.957145 0.415650
vt 0.962396 0.413885
vt 0.881285 0.447108
vt 0.880356 0.438933
vt 0.885494 0.431558
vt 0.893867 0.430379
vt 0.896177 0.430054
vt 0.897897 0.431656
vt 0.898021 0.434246
vt 0.903284 0.464661
vt 0.906066 0.430150
vt 0.925901 0.418214
vt 0.929255 0.426149
vt 0.926678 0.435529
vt 0.918644 0.440363
vt 0.910187 0.437623
vt 0.856992 0.448032
vt 0.865365 0.447598
vt 0.870834 0.453149
vt 0.869251 0.482938
vt 0.851779 0.460952
vt 0.849934 0.459370
vt 0.849738 0.456897
vt 0.851306 0.454980
vt 0.867954 0.530025
vt 0.867954 0.516910
vt 0.868284 0.517279
vt 0.868284 0.529655
vt 0.879701 0.516910
vt 0.879701 0.530025
vt 0.879370 0.529655
vt 0.879370 0.517279
vt 0.866246 0.440111
vt 0.874351 0.435426
vt 0.938034 0.500200
vt 0.938038 0.523667
vt 0.930874 0.521117
vt 0.930874 0.500686
vt 0.934488 0.447665
vt 0.932991 0.438853
vt 0.938079 0.432104
vt 0.946886 0.431696
vt 0.949316 0.431583
vt 0.951093 0.433315
vt 0.951178 0.435876
vt 0.956693 0.464239
vt 0.917493 0.501161
vt 0.917488 0.524629
vt 0.910327 0.524143
vt 0.910327 0.503712
vt 0.854111 0.430272
vt 0.874121 0.418705
vt 0.877194 0.426360
vt 0.857958 0.437479
vt 0.965642 0.460282
vt 0.958205 0.461205
vt 0.924116 0.453874
vt 0.923752 0.484061
vt 0.891421 0.501964
vt 0.891421 0.516910
vt 0.883501 0.516910
vt 0.883501 0.506373
vt 0.956693 0.491119
vt 0.955530 0.494610
vt 0.954303 0.497323
vt 0.952200 0.498589
vt 0.949899 0.499973
vt 0.947190 0.499629
vt 0.943936 0.498796
vt 0.903284 0.491737
vt 0.902088 0.495196
vt 0.900788 0.497904
vt 0.898549 0.499198
vt 0.896903 0.500150
vt 0.894170 0.499753
vt 0.890952 0.498817
vt 0.956813 0.495849
vt 0.965043 0.496553
vt 0.963112 0.517262
vt 0.957914 0.515769
vt 0.941374 0.499973
vt 0.941376 0.524855
vt 0.944376 0.502611
vt 0.944376 0.522899
vt 0.849738 0.520439
vt 0.849738 0.500150
vt 0.853290 0.504106
vt 0.853290 0.516483
vt 0.852317 0.426909
vt 0.872688 0.415134
vt 0.853256 0.423230
vt 0.869424 0.413885
vt 0.867954 0.500150
vt 0.864402 0.504106
vt 0.920831 0.499973
vt 0.920829 0.524855
vt 0.923830 0.501930
vt 0.923830 0.522218
vt 0.867954 0.520439
vt 0.864402 0.516483
vt 0.904147 0.426668
vt 0.924339 0.414517
vt 0.905318 0.423529
vt 0.921344 0.413885
vt 0.917885 0.447826
vt 0.965724 0.462294
vt 0.958217 0.463180
vt 0.965878 0.464763
vt 0.957553 0.465710
vt 0.881316 0.507589
vt 0.881316 0.516910
vt 0.964866 0.470773
vt 0.957491 0.470186
vt 0.957439 0.468211
vt 0.964934 0.468780
vt 0.956693 0.465710
vt 0.965043 0.466321
vt 0.881316 0.516910
vt 0.881316 0.507589
vt 0.899893 0.508348
vt 0.894679 0.508594
vt 0.894679 0.505785
vt 0.899893 0.505435
vt 0.894766 0.503253
vt 0.900079 0.502944
vt 0.894890 0.500477
vt 0.900342 0.500150
vt 0.899893 0.511011
vt 0.894679 0.510661
vt 0.900079 0.513502
vt 0.894813 0.513179
vt 0.900342 0.516301
vt 0.895003 0.515929
vt 0.909827 0.449105
vt 0.911937 0.445823
vt 0.912086 0.441067
vt 0.878611 0.429890
vt 0.882048 0.432042
vt 0.859331 0.445174
vt 0.859731 0.440802
vt 0.930801 0.429805
vt 0.934456 0.432272
vt 0.867954 0.516910
vt 0.867954 0.500150
vt 0.923830 0.517827
vt 0.923830 0.501068
vt 0.927572 0.500910
vt 0.927572 0.519942
vt 0.894679 0.500150
vt 0.894679 0.516910
vt 0.903284 0.523761
vt 0.903284 0.507002
vt 0.907026 0.504887
vt 0.907026 0.523919
vt 0.905487 0.463371
vt 0.903610 0.461888
vt 0.903284 0.459283
vt 0.904699 0.457083
vt 0.629945 0.481142
vt 0.629945 0.498961
vt 0.622686 0.506220
vt 0.622686 0.473883
vt 0.617553 0.511353
vt 0.617553 0.468750
vt 0.661164 0.426147
vt 0.661164 0.383543
vt 0.647764 0.481142
vt 0.655023 0.473883
vt 0.660156 0.468750
vt 0.661164 0.468750
vt 0.647764 0.498961
vt 0.655023 0.506220
vt 0.661164 0.511353
vt 0.660156 0.511353
vt 0.661164 0.553957
vn 0.0000 0.0081 1.0000
vn 1.0000 0.0081 0.0000
vn 0.0000 0.0081 -1.0000
vn -1.0000 0.0081 0.0000
vn -0.3457 -0.9383 0.0000
vn -0.8844 0.4664 0.0147
vn -0.0026 -0.0767 -0.9970
vn 0.0000 0.2912 0.9566
vn 0.0091 -0.0507 -0.9987
vn 0.0000 1.0000 -0.0000
vn 0.0000 -0.0327 -0.9995
vn -0.9983 0.0579 0.0000
vn 0.2396 0.2003 0.9500
vn 0.9983 0.0579 0.0000
vn 0.0000 0.0579 -0.9983
vn -0.9607 0.2775 -0.0110
vn 0.0019 0.2144 0.9767
vn 0.3457 -0.9383 -0.0000
vn 0.0195 -0.0812 -0.9965
vn -0.0000 0.1020 0.9948
vn 0.0228 0.0506 -0.9985
vn 0.8734 0.4817 0.0712
vn -0.7232 -0.6906 -0.0000
vn 0.0000 -1.0000 -0.0000
vn 0.0000 -0.6905 -0.7234
vn 0.7232 -0.6906 -0.0000
vn 0.0000 -0.5783 0.8158
vn 0.0033 0.3485 0.9373
vn -0.9048 0.4258 0.0100
vn -0.9253 -0.3792 0.0019
vn 0.9027 0.4301 0.0062
vn 0.9262 -0.3769 0.0012
vn 0.0000 0.9792 0.2030
vn -0.5666 0.8124 0.1375
vn -0.6598 0.7415 0.1222
vn 0.5688 0.8112 0.1358
vn 0.6626 0.7399 0.1164
vn 0.9641 0.2595 0.0571
vn -0.1126 0.3566 0.9274
vn -0.0023 0.0025 -1.0000
vn 0.0023 0.0025 -1.0000
vn 0.1129 0.3558 0.9277
vn -0.8365 -0.5480 -0.0000
vn 0.8365 -0.5480 0.0000
vn -0.2361 0.2011 0.9507
vn -0.7118 -0.7023 0.0000
vn -0.9015 -0.4327 0.0000
vn -1.0000 0.0000 0.0000
vn 0.0000 -0.7023 -0.7118
vn 0.0000 -0.4327 -0.9015
vn 0.0000 0.0000 -1.0000
vn 0.7118 -0.7023 0.0000
vn 0.9015 -0.4327 0.0000
vn 1.0000 0.0000 0.0000
vn 0.0000 -0.7023 0.7118
vn 0.0000 -0.4327 0.9015
vn 0.0000 0.0000 1.0000
usemtl mat_cute
s off
f 92/1/1 3/2/1 1/3/1 84/4/1
f 96/5/2 4/6/2 3/2/2 92/1/2
f 88/7/3 2/8/3 4/6/3 96/5/3
f 84/9/4 1/10/4 2/8/4 88/7/4
f 66/11/5 59/12/5 34/13/5 37/14/5
f 10/15/6 9/16/6 46/17/6 49/18/6
f 6/19/7 67/20/7 66/21/7 37/22/7 39/23/7 40/24/7 38/25/7 10/26/7
f 14/27/8 25/28/8 77/29/8 80/30/8 61/31/8 60/32/8
f 71/33/9 74/34/9 7/35/9 11/36/9 41/37/9 43/38/9 44/39/9 42/40/9
f 1/41/10 3/42/10 26/43/10 13/44/10
f 4/45/10 2/46/10 18/47/10 22/48/10
f 3/42/10 4/45/10 22/48/10 26/43/10
f 2/46/10 1/41/10 13/44/10 18/47/10
f 6/19/11 7/35/11 74/34/11 73/49/11 68/50/11 67/20/11
f 17/51/12 14/52/12 60/53/12 65/54/12
f 8/55/13 79/56/13 78/57/13 29/58/13 31/59/13 32/60/13 30/61/13 12/62/13
f 25/63/14 21/64/14 72/65/14 77/66/14
f 21/67/15 17/68/15 65/69/15 68/50/15 73/49/15 72/70/15
f 9/16/16 10/15/16 38/71/16 33/72/16
f 5/73/17 8/55/17 12/62/17 9/74/17
f 78/75/18 71/76/18 42/77/18 29/78/18
f 7/35/19 6/19/19 10/26/19 11/36/19
f 9/74/20 12/62/20 56/79/20 57/80/20 58/81/20 45/82/20 47/83/20 48/84/20 46/85/20
f 11/36/21 10/26/21 49/86/21 51/87/21 52/88/21 50/89/21 54/90/21 55/91/21 53/92/21
f 12/93/22 11/94/22 53/95/22 56/96/22
f 14/52/12 17/51/12 19/97/12 16/98/12
f 16/98/23 19/97/23 20/99/23 15/100/23
f 15/101/24 20/102/24 18/103/24 13/104/24
f 17/68/15 21/67/15 23/105/15 19/106/15
f 19/106/25 23/105/25 24/107/25 20/108/25
f 20/102/24 24/109/24 22/110/24 18/103/24
f 21/64/14 25/63/14 27/111/14 23/112/14
f 23/112/26 27/111/26 28/113/26 24/114/26
f 24/109/24 28/115/24 26/116/24 22/110/24
f 25/28/8 14/27/8 16/117/8 27/118/8
f 27/118/27 16/117/27 15/119/27 28/120/27
f 28/115/24 15/101/24 13/104/24 26/116/24
f 8/55/28 5/73/28 62/121/28 61/31/28 80/30/28 79/56/28
f 33/72/29 38/71/29 40/122/29 35/123/29
f 35/123/30 40/122/30 39/124/30 36/125/30
f 36/126/5 39/127/5 37/14/5 34/13/5
f 41/128/31 30/129/31 32/130/31 43/131/31
f 43/131/32 32/130/32 31/132/32 44/133/32
f 44/134/18 31/135/18 29/78/18 42/77/18
f 45/136/33 50/137/33 52/138/33 47/139/33
f 47/139/34 52/138/34 51/140/34 48/141/34
f 48/141/35 51/140/35 49/142/35 46/143/35
f 50/137/33 45/136/33 58/144/33 54/145/33
f 54/145/36 58/144/36 57/146/36 55/147/36
f 55/147/37 57/146/37 56/148/37 53/149/37
f 11/94/38 12/93/38 30/129/38 41/128/38
f 59/150/39 63/151/39 64/152/39 60/32/39 61/31/39 62/121/39
f 65/69/40 69/153/40 70/154/40 66/21/40 67/20/40 68/50/40
f 71/33/41 75/155/41 76/156/41 72/70/41 73/49/41 74/34/41
f 77/29/42 81/157/42 82/158/42 78/57/42 79/56/42 80/30/42
f 59/12/5 66/11/5 70/159/5 63/160/5
f 63/161/43 70/162/43 69/163/43 64/164/43
f 64/164/12 69/163/12 65/54/12 60/53/12
f 71/76/18 78/75/18 82/165/18 75/166/18
f 75/167/44 82/168/44 81/169/44 76/170/44
f 76/170/14 81/169/14 77/66/14 72/65/14
f 59/150/45 62/121/45 5/73/45 9/74/45 33/171/45 35/172/45 36/173/45 34/174/45
f 87/175/46 83/176/46 85/177/46 89/178/46
f 89/178/47 85/177/47 86/179/47 90/180/47
f 90/181/48 86/182/48 84/9/48 88/7/48
f 95/183/49 87/175/49 89/178/49 97/184/49
f 97/184/50 89/178/50 90/180/50 98/185/50
f 98/186/51 90/181/51 88/7/51 96/5/51
f 91/187/52 95/183/52 97/184/52 93/188/52
f 93/188/53 97/184/53 98/186/53 94/189/53
f 94/189/54 98/186/54 96/5/54 92/1/54
f 83/176/55 91/187/55 93/188/55 85/177/55
f 85/177/56 93/188/56 94/190/56 86/179/56
f 86/191/57 94/189/57 92/1/57 84/4/57
f 87/175/24 95/183/24 91/187/24 83/176/24
