# Blender v2.82 (sub 7) OBJ File: 'prantinhas.blend'
# www.blender.org
mtllib fx_water_up.mtl
o SpiroFit
v -20.351034 -0.390594 -2.820476
v -20.377258 0.160586 -2.783310
v -20.202415 -0.372656 -2.993674
v -20.227221 0.178707 -2.958299
v -19.926781 -0.341879 -3.286955
v -19.951908 0.209445 -3.251207
v -19.539261 -0.287550 -3.823353
v -19.566654 0.263443 -3.784323
v -19.249207 -0.217859 -4.556659
v -19.277958 0.332816 -4.514260
v -19.141878 -0.155322 -5.282172
v -19.170858 0.395222 -5.238248
v -19.183914 -0.099890 -5.978821
v -19.212570 0.450242 -5.929816
v -19.378794 -0.043876 -6.649930
v -19.404352 0.505337 -6.590099
v -19.692390 0.014888 -7.250975
v -19.712852 0.563143 -7.181222
v -20.093027 0.072939 -7.783811
v -20.108353 0.620462 -7.707317
v -20.607658 0.129258 -8.242193
v -20.613483 0.675726 -8.157301
v -21.211369 0.186173 -8.576448
v -21.200611 0.731047 -8.482295
v -21.848450 0.245731 -8.778355
v -21.820959 0.789051 -8.678778
v -22.500225 0.304649 -8.871694
v -22.457998 0.846649 -8.770103
v -23.180208 0.361832 -8.833191
v -23.117586 0.902085 -8.732831
v -23.834028 0.419401 -8.646291
v -23.745623 0.957347 -8.553197
v -24.417282 0.479399 -8.345077
v -24.307474 1.015170 -8.262862
v -24.936621 0.538832 -7.957755
v -24.809862 1.072670 -7.888350
v -25.385311 0.596631 -7.458122
v -25.239752 1.127994 -7.409808
v -25.712374 0.654802 -6.873124
v -25.549738 1.183094 -6.855098
v -25.909962 0.715341 -6.257841
v -25.737766 1.240787 -6.268941
v -26.002708 0.775348 -5.625937
v -25.826643 1.298200 -5.664598
v -25.967566 0.833682 -4.964643
v -25.793558 1.353283 -5.039506
v -25.788015 0.892286 -4.329891
v -25.625540 1.408008 -4.446080
v -25.497246 0.953235 -3.765262
v -25.351690 1.465399 -3.914828
v -25.121521 1.013671 -3.262146
v -24.996807 1.522537 -3.439263
v -24.636173 1.072412 -2.828003
v -24.544672 1.577199 -3.034608
v -24.070230 1.131345 -2.514139
v -24.023390 1.631389 -2.745718
v -23.476345 1.192719 -2.326906
v -23.471771 1.688426 -2.572102
v -22.866796 1.253637 -2.242309
v -22.903450 1.745261 -2.492968
v -22.231211 1.312768 -2.282434
v -22.320393 1.799416 -2.529594
v -21.627932 1.371735 -2.460173
v -21.773767 1.852754 -2.690869
v -21.094572 1.433014 -2.742111
v -21.285366 1.908930 -2.949400
v -20.621113 1.493903 -3.103910
v -20.849859 1.964956 -3.281823
v -20.215286 1.553137 -3.568307
v -20.483625 2.018284 -3.700593
v -19.926619 1.612073 -4.102371
v -20.226835 2.070643 -4.176202
v -19.756172 1.673529 -4.660963
v -20.073509 2.126088 -4.679826
v -19.682610 1.735187 -5.235131
v -20.006681 2.181859 -5.198689
v -19.726648 1.794704 -5.825441
v -20.045538 2.234476 -5.721623
v -19.889723 1.851965 -6.370386
v -20.188923 2.284590 -6.199552
v -20.135147 1.909748 -6.847678
v -20.408697 2.336303 -6.626117
v -20.447945 1.967794 -7.283607
v -20.689299 2.388478 -7.017822
v -20.853098 2.025110 -7.671384
v -21.042915 2.438418 -7.356720
v -21.329876 2.082550 -7.963084
v -21.452650 2.487641 -7.607142
v -21.837740 2.141718 -8.149527
v -21.897484 2.539510 -7.769973
v -22.375416 2.201140 -8.252354
v -22.371876 2.591998 -7.861094
v -22.936773 2.257872 -8.249014
v -22.852949 2.640475 -7.858556
v -23.474033 2.313415 -8.125386
v -23.305828 2.687145 -7.754036
v -23.959103 2.370702 -7.905713
v -23.723824 2.736602 -7.564203
v -24.410578 2.428876 -7.603599
v -24.116545 2.787239 -7.301955
v -24.801126 2.483845 -7.211052
v -24.445414 2.833331 -6.971894
v -25.088116 2.537106 -6.753881
v -24.682709 2.877249 -6.593206
v -25.272907 2.592286 -6.264936
v -24.839333 2.924242 -6.177271
v -25.377836 2.648549 -5.740368
v -24.929825 2.972569 -5.727497
v -25.377106 2.701287 -5.198363
v -24.929609 3.015981 -5.279496
v -25.259710 2.752242 -4.684645
v -24.833805 3.057202 -4.862050
v -25.048115 2.805470 -4.216848
v -24.655848 3.101912 -4.470058
v -24.755884 2.859801 -3.779413
v -24.409105 3.147956 -4.099692
v -24.380733 2.910239 -3.406614
v -24.104958 3.188692 -3.796844
v -23.945665 2.958870 -3.135235
v -23.757801 3.227257 -3.580817
v -23.474096 3.010203 -2.959623
v -23.367840 3.269771 -3.436281
v -22.968178 3.062650 -2.861590
v -22.946268 3.313575 -3.353956
v -22.455030 3.110842 -2.866528
v -22.537815 3.351721 -3.357437
v -21.973684 3.157061 -2.981585
v -22.161264 3.387660 -3.447960
v -21.530548 3.206245 -3.187306
v -21.799910 3.427891 -3.616475
v -21.117300 3.256530 -3.468644
v -21.459606 3.469347 -3.847330
v -20.772556 3.302376 -3.822132
v -21.190088 3.504917 -4.122984
v -20.524939 3.346280 -4.227606
v -21.000574 3.538359 -4.434353
v -20.363241 3.393435 -4.672045
v -20.871040 3.576432 -4.792542
v -20.273079 3.441670 -5.147748
v -20.797136 3.615687 -5.178560
v -20.278830 3.485204 -5.621348
v -20.801008 3.648771 -5.541084
v -20.385389 3.526795 -6.063403
v -20.881670 3.679778 -5.873219
v -20.578009 3.571902 -6.477607
v -21.035500 3.715735 -6.202140
v -20.840820 3.618107 -6.865672
v -21.245565 3.752882 -6.513700
v -21.164436 3.659311 -7.183834
v -21.487946 3.783541 -6.752816
v -21.534786 3.698606 -7.411989
v -21.760633 3.812169 -6.920092
v -21.949306 3.741745 -7.564592
v -22.085770 3.846082 -7.038893
v -22.395370 3.786034 -7.651675
v -22.438450 3.881223 -7.108582
v -22.830139 3.824954 -7.648920
v -22.757830 3.909544 -7.107179
v -23.234484 3.861911 -7.553506
v -23.048763 3.935862 -7.037844
v -23.622025 3.902988 -7.375395
v -23.348475 3.967781 -6.899117
v -23.988016 3.945273 -7.130765
v -23.635250 4.000971 -6.708483
v -24.281422 3.981876 -6.835893
v -23.846909 4.027030 -6.496736
v -24.491013 4.016554 -6.499081
v -23.993853 4.051136 -6.259281
v -24.635040 4.055694 -6.112457
v -24.103054 4.081170 -5.963427
v -24.719183 4.096066 -5.693740
v -24.168999 4.112497 -5.639932
v -24.718782 4.130403 -5.295782
v -24.169453 4.136381 -5.359581
v -24.632967 4.162831 -4.927194
v -24.109690 4.158368 -5.106159
v -24.466721 4.200076 -4.564442
v -23.983219 4.186621 -4.832608
v -24.237404 4.238535 -4.220304
v -23.808811 4.216131 -4.569121
v -23.968319 4.270642 -3.952562
v -23.624022 4.237921 -4.384137
v -23.662184 4.300887 -3.763415
v -23.418009 4.257888 -4.257782
v -23.300615 4.336321 -3.630873
v -23.147955 4.284447 -4.159903
v -22.909708 4.372890 -3.554519
v -22.853537 4.312139 -4.101348
v -22.550030 4.402853 -3.557683
v -22.611900 4.331924 -4.102669
v -22.219639 4.431000 -3.638276
v -22.395206 4.350040 -4.156435
v -21.884972 4.464645 -3.795815
v -22.147972 4.375073 -4.274015
v -21.569201 4.499328 -4.009943
v -21.911657 4.401096 -4.432959
v -21.332535 4.527218 -4.252058
v -21.755823 4.419034 -4.591161
v -21.167381 4.553380 -4.525496
v -21.650860 4.435413 -4.766748
v -21.048222 4.585320 -4.858786
v -21.564510 4.458974 -5.011596
v -20.979471 4.618247 -5.217325
v -21.512569 4.483460 -5.276534
v -20.982855 4.644159 -5.535079
v -21.513832 4.499670 -5.479822
v -21.054468 4.668405 -5.825519
v -21.559460 4.514409 -5.660788
v -21.198900 4.698689 -6.131416
v -21.665600 4.536578 -5.882861
v -21.394421 4.729972 -6.421639
v -21.808214 4.559687 -6.096608
v -21.606665 4.753985 -6.631126
v -21.940008 4.574293 -6.228062
v -21.845617 4.776364 -6.776541
v -22.085390 4.587456 -6.315357
v -22.149630 4.805033 -6.886349
v -22.304848 4.608250 -6.393346
v -22.478838 4.834741 -6.951562
v -22.544268 4.630017 -6.441979
v -22.758545 4.856935 -6.950441
v -22.714338 4.643112 -6.442313
v -23.013048 4.877546 -6.888798
v -22.864487 4.654873 -6.404841
v -23.293871 4.904706 -6.757545
v -23.065493 4.674502 -6.309529
v -23.563068 4.932946 -6.578812
v -23.261539 4.695141 -6.180820
v -23.748972 4.953426 -6.393054
v -23.372850 4.706905 -6.071143
v -23.877140 4.972356 -6.184206
v -23.445660 4.717360 -5.950392
v -23.979122 4.998077 -5.904719
v -23.517277 4.735867 -5.750409
v -24.041515 5.024906 -5.599628
v -23.563602 4.755409 -5.530054
v -24.042110 5.043744 -5.352765
v -23.565102 4.765922 -5.386631
v -23.988607 5.061085 -5.129696
v -23.533955 4.775198 -5.261711
v -23.880331 5.083121 -4.892861
v -23.467384 4.788903 -5.113720
v -23.738672 5.104139 -4.707332
v -23.397736 4.799798 -5.018793
v -23.548290 5.122994 -4.572397
v -23.277924 4.811136 -4.940520
v -23.245512 5.149703 -4.399015
v -22.984575 4.836964 -4.773147
v -22.853565 5.187389 -4.135461
v -22.550175 4.878826 -4.479860
vt 0.000147 -0.000011
vt 0.007920 -0.000011
vt 0.007920 0.999361
vt 0.000147 0.999361
vt 0.018025 -0.000011
vt 0.018025 0.999361
vt 0.029553 -0.000011
vt 0.029553 0.999361
vt 0.042868 -0.000011
vt 0.042868 0.999361
vt 0.054480 -0.000011
vt 0.054480 0.999361
vt 0.066398 -0.000011
vt 0.066398 0.999361
vt 0.078766 -0.000011
vt 0.078766 0.999361
vt 0.090769 -0.000011
vt 0.090769 0.999361
vt 0.102595 -0.000011
vt 0.102595 0.999361
vt 0.114779 -0.000011
vt 0.114779 0.999361
vt 0.126924 -0.000011
vt 0.126924 0.999361
vt 0.138700 -0.000011
vt 0.138700 0.999361
vt 0.150324 -0.000011
vt 0.150324 0.999361
vt 0.162297 -0.000011
vt 0.162297 0.999361
vt 0.174196 -0.000011
vt 0.174196 0.999361
vt 0.185705 -0.000011
vt 0.185705 0.999361
vt 0.197086 -0.000011
vt 0.197086 0.999361
vt 0.208821 -0.000011
vt 0.208821 0.999361
vt 0.220475 -0.000011
vt 0.220475 0.999361
vt 0.231745 -0.000011
vt 0.231745 0.999361
vt 0.242905 -0.000011
vt 0.242905 0.999361
vt 0.254405 -0.000011
vt 0.254405 0.999361
vt 0.265800 -0.000011
vt 0.265800 0.999361
vt 0.276812 -0.000011
vt 0.276812 0.999361
vt 0.287723 -0.000011
vt 0.287723 0.999361
vt 0.298955 -0.000011
vt 0.298955 0.999361
vt 0.310055 -0.000011
vt 0.310055 0.999361
vt 0.320787 -0.000011
vt 0.320787 0.999361
vt 0.331413 -0.000011
vt 0.331413 0.999361
vt 0.342318 -0.000011
vt 0.342318 0.999361
vt 0.353025 -0.000011
vt 0.353025 0.999361
vt 0.363357 -0.000011
vt 0.363357 0.999361
vt 0.373581 -0.000011
vt 0.373581 0.999361
vt 0.384060 -0.000011
vt 0.384060 0.999361
vt 0.394313 -0.000011
vt 0.394313 0.999361
vt 0.404242 -0.000011
vt 0.404242 0.999361
vt 0.414097 -0.000011
vt 0.414097 0.999361
vt 0.424074 -0.000011
vt 0.424074 0.999361
vt 0.433617 -0.000011
vt 0.433617 0.999361
vt 0.442709 -0.000011
vt 0.442709 0.999361
vt 0.451818 -0.000011
vt 0.451818 0.999361
vt 0.461209 -0.000011
vt 0.461209 0.999361
vt 0.470498 -0.000011
vt 0.470498 0.999361
vt 0.479575 -0.000011
vt 0.479575 0.999361
vt 0.488793 -0.000011
vt 0.488793 0.999361
vt 0.498110 -0.000011
vt 0.498110 0.999361
vt 0.507191 -0.000011
vt 0.507191 0.999361
vt 0.516059 -0.000011
vt 0.516059 0.999361
vt 0.525141 -0.000011
vt 0.525141 0.999361
vt 0.534253 -0.000011
vt 0.534253 0.999361
vt 0.543069 -0.000011
vt 0.543069 0.999361
vt 0.551718 -0.000011
vt 0.551718 0.999361
vt 0.560603 -0.000011
vt 0.560603 0.999361
vt 0.569448 -0.000011
vt 0.569448 0.999361
vt 0.577982 -0.000011
vt 0.577982 0.999361
vt 0.586421 -0.000011
vt 0.586421 0.999361
vt 0.595103 -0.000011
vt 0.595103 0.999361
vt 0.603661 -0.000011
vt 0.603661 0.999361
vt 0.611894 -0.000011
vt 0.611894 0.999361
vt 0.620109 -0.000011
vt 0.620109 0.999361
vt 0.628555 -0.000011
vt 0.628555 0.999361
vt 0.636786 -0.000011
vt 0.636786 0.999361
vt 0.644665 -0.000011
vt 0.644665 0.999361
vt 0.652595 -0.000011
vt 0.652595 0.999361
vt 0.660739 -0.000011
vt 0.660739 0.999361
vt 0.668591 -0.000011
vt 0.668591 0.999361
vt 0.676089 -0.000011
vt 0.676089 0.999361
vt 0.683720 -0.000011
vt 0.683720 0.999361
vt 0.691559 -0.000011
vt 0.691559 0.999361
vt 0.699026 -0.000011
vt 0.699026 0.999361
vt 0.706138 -0.000011
vt 0.706138 0.999361
vt 0.713465 -0.000011
vt 0.713465 0.999361
vt 0.721010 -0.000011
vt 0.721010 0.999361
vt 0.728103 -0.000011
vt 0.728103 0.999361
vt 0.734843 -0.000011
vt 0.734843 0.999361
vt 0.741882 -0.000011
vt 0.741882 0.999361
vt 0.749155 -0.000011
vt 0.749155 0.999361
vt 0.755888 -0.000011
vt 0.755888 0.999361
vt 0.762267 -0.000011
vt 0.762267 0.999361
vt 0.769028 -0.000011
vt 0.769028 0.999361
vt 0.776037 -0.000011
vt 0.776037 0.999361
vt 0.782423 -0.000011
vt 0.782423 0.999361
vt 0.788457 -0.000011
vt 0.788457 0.999361
vt 0.794959 -0.000011
vt 0.794959 0.999361
vt 0.801723 -0.000011
vt 0.801723 0.999361
vt 0.807777 -0.000011
vt 0.807777 0.999361
vt 0.813479 -0.000011
vt 0.813479 0.999361
vt 0.819734 -0.000011
vt 0.819734 0.999361
vt 0.826250 -0.000011
vt 0.826250 0.999361
vt 0.831970 -0.000011
vt 0.831970 0.999361
vt 0.837338 -0.000011
vt 0.837338 0.999361
vt 0.843343 -0.000011
vt 0.843343 0.999361
vt 0.849580 -0.000011
vt 0.849580 0.999361
vt 0.854946 -0.000011
vt 0.854946 0.999361
vt 0.859972 -0.000011
vt 0.859972 0.999361
vt 0.865720 -0.000011
vt 0.865720 0.999361
vt 0.871670 -0.000011
vt 0.871670 0.999361
vt 0.876672 -0.000011
vt 0.876672 0.999361
vt 0.881347 -0.000011
vt 0.881347 0.999361
vt 0.886826 -0.000011
vt 0.886826 0.999361
vt 0.892496 -0.000011
vt 0.892496 0.999361
vt 0.897145 -0.000011
vt 0.897145 0.999361
vt 0.901478 -0.000011
vt 0.901478 0.999361
vt 0.906696 -0.000011
vt 0.906696 0.999361
vt 0.912115 -0.000011
vt 0.912115 0.999361
vt 0.916436 -0.000011
vt 0.916436 0.999361
vt 0.920443 -0.000011
vt 0.920443 0.999361
vt 0.925408 -0.000011
vt 0.925408 0.999361
vt 0.930586 -0.000011
vt 0.930586 0.999361
vt 0.934597 -0.000011
vt 0.934597 0.999361
vt 0.938314 -0.000011
vt 0.938314 0.999361
vt 0.943067 -0.000011
vt 0.943067 0.999361
vt 0.948045 -0.000011
vt 0.948045 0.999361
vt 0.951782 -0.000011
vt 0.951782 0.999361
vt 0.955225 -0.000011
vt 0.955225 0.999361
vt 0.959777 -0.000011
vt 0.959777 0.999361
vt 0.964566 -0.000011
vt 0.964566 0.999361
vt 0.968046 -0.000011
vt 0.968046 0.999361
vt 0.971240 -0.000011
vt 0.971240 0.999361
vt 0.975704 -0.000011
vt 0.975704 0.999361
vt 0.980685 -0.000011
vt 0.980685 0.999361
vt 0.986197 -0.000011
vt 0.986197 0.999361
vt 0.992859 -0.000011
vt 0.992859 0.999361
vt 0.999980 -0.000011
vt 0.999980 0.999361
vn -0.7594 0.0077 -0.6506
vn -0.7445 0.0094 -0.6675
vn -0.7445 0.0094 -0.6676
vn -0.7715 0.0061 -0.6362
vn -0.8766 -0.0095 -0.4812
vn -0.9648 -0.0302 -0.2612
vn -0.9648 -0.0302 -0.2611
vn -0.9977 -0.0487 -0.0472
vn -0.9977 -0.0487 -0.0473
vn -0.9840 -0.0660 0.1651
vn -0.9841 -0.0660 0.1649
vn -0.9274 -0.0829 0.3648
vn -0.8462 -0.0981 0.5237
vn -0.7375 -0.1137 0.6657
vn -0.7376 -0.1136 0.6656
vn -0.5820 -0.1309 0.8025
vn -0.5822 -0.1309 0.8024
vn -0.4025 -0.1482 0.9033
vn -0.2340 -0.1637 0.9583
vn -0.2339 -0.1637 0.9583
vn -0.0577 -0.1796 0.9820
vn -0.0579 -0.1796 0.9820
vn 0.1470 -0.1972 0.9693
vn 0.1468 -0.1971 0.9693
vn 0.3424 -0.2146 0.9147
vn 0.4978 -0.2302 0.8361
vn 0.6371 -0.2463 0.7304
vn 0.6369 -0.2462 0.7305
vn 0.7711 -0.2640 0.5794
vn 0.7709 -0.2640 0.5796
vn 0.8694 -0.2815 0.4059
vn 0.8695 -0.2815 0.4059
vn 0.9233 -0.2973 0.2432
vn 0.9233 -0.2973 0.2431
vn 0.9468 -0.3135 0.0725
vn 0.9468 -0.3135 0.0728
vn 0.9351 -0.3313 -0.1253
vn 0.9351 -0.3313 -0.1251
vn 0.8831 -0.3489 -0.3135
vn 0.8831 -0.3489 -0.3136
vn 0.8077 -0.3646 -0.4632
vn 0.8077 -0.3646 -0.4633
vn 0.7056 -0.3809 -0.5975
vn 0.7057 -0.3809 -0.5973
vn 0.5605 -0.3988 -0.7258
vn 0.5607 -0.3988 -0.7257
vn 0.3950 -0.4163 -0.8189
vn 0.3949 -0.4163 -0.8190
vn 0.2398 -0.4320 -0.8694
vn 0.0766 -0.4484 -0.8905
vn 0.0768 -0.4484 -0.8905
vn -0.1107 -0.4662 -0.8777
vn -0.1105 -0.4662 -0.8777
vn -0.2855 -0.4834 -0.8275
vn -0.2857 -0.4834 -0.8274
vn -0.4234 -0.4988 -0.7562
vn -0.4235 -0.4988 -0.7562
vn -0.5474 -0.5150 -0.6596
vn -0.5472 -0.5150 -0.6598
vn -0.6645 -0.5326 -0.5242
vn -0.6644 -0.5326 -0.5243
vn -0.7476 -0.5495 -0.3729
vn -0.7477 -0.5495 -0.3727
vn -0.7920 -0.5647 -0.2317
vn -0.8098 -0.5810 -0.0819
vn -0.8097 -0.5810 -0.0822
vn -0.7967 -0.5982 0.0857
vn -0.7538 -0.6138 0.2345
vn -0.7537 -0.6139 0.2347
vn -0.6975 -0.6271 0.3468
vn -0.6218 -0.6411 0.4499
vn -0.6219 -0.6410 0.4497
vn -0.5117 -0.6568 0.5537
vn -0.5119 -0.6568 0.5536
vn -0.3852 -0.6723 0.6322
vn -0.3850 -0.6723 0.6323
vn -0.2656 -0.6859 0.6774
vn -0.2656 -0.6859 0.6775
vn -0.1383 -0.7001 0.7005
vn -0.1386 -0.7001 0.7005
vn 0.0085 -0.7153 0.6988
vn 0.0084 -0.7153 0.6988
vn 0.1453 -0.7295 0.6684
vn 0.1455 -0.7295 0.6683
vn 0.2536 -0.7419 0.6207
vn 0.2537 -0.7419 0.6206
vn 0.3533 -0.7550 0.5524
vn 0.3531 -0.7550 0.5525
vn 0.4493 -0.7689 0.4548
vn 0.4492 -0.7689 0.4549
vn 0.5184 -0.7816 0.3468
vn 0.5185 -0.7816 0.3466
vn 0.5573 -0.7927 0.2471
vn 0.5776 -0.8044 0.1391
vn 0.5776 -0.8043 0.1393
vn 0.5767 -0.8168 0.0146
vn 0.5521 -0.8280 -0.0981
vn 0.5520 -0.8280 -0.0982
vn 0.5136 -0.8377 -0.1856
vn 0.4577 -0.8480 -0.2671
vn 0.4579 -0.8480 -0.2669
vn 0.3782 -0.8589 -0.3453
vn 0.2922 -0.8686 -0.4001
vn 0.2921 -0.8686 -0.4001
vn 0.2141 -0.8770 -0.4302
vn 0.1282 -0.8860 -0.4456
vn 0.1284 -0.8860 -0.4456
vn 0.0302 -0.8954 -0.4442
vn 0.0303 -0.8954 -0.4442
vn -0.0547 -0.9036 -0.4249
vn -0.0548 -0.9036 -0.4248
vn -0.1189 -0.9105 -0.3959
vn -0.1796 -0.9181 -0.3533
vn -0.1795 -0.9181 -0.3533
vn -0.2374 -0.9260 -0.2935
vn -0.2758 -0.9327 -0.2324
vn -0.2758 -0.9327 -0.2323
vn -0.2960 -0.9383 -0.1787
vn -0.3065 -0.9445 -0.1182
vn -0.3064 -0.9445 -0.1184
vn -0.3053 -0.9509 -0.0500
vn -0.2927 -0.9562 0.0057
vn -0.2745 -0.9605 0.0461
vn -0.2466 -0.9653 0.0858
vn -0.2466 -0.9653 0.0857
vn -0.2083 -0.9703 0.1231
vn -0.1728 -0.9741 0.1457
vn -0.1433 -0.9771 0.1569
vn -0.1078 -0.9807 0.1631
vn -0.1079 -0.9807 0.1631
vn -0.0692 -0.9842 0.1628
vn -0.0428 -0.9866 0.1571
vn -0.0258 -0.9884 0.1494
vn -0.0067 -0.9907 0.1360
vn 0.0100 -0.9928 0.1192
vn 0.0166 -0.9938 0.1093
vn 0.0186 -0.9944 0.1036
vn 0.0204 -0.9955 0.0928
vn 0.0206 -0.9962 0.0840
vn 0.0216 -0.9959 0.0872
vn 0.0240 -0.9953 0.0933
vn 0.0246 -0.9952 0.0945
vn 0.0291 -0.9947 0.0986
vn 0.0450 -0.9931 0.1083
vn 0.0628 -0.9913 0.1154
vn 0.0763 -0.9901 0.1181
vn 0.0974 -0.9883 0.1174
vn 0.1300 -0.9854 0.1096
vn 0.1586 -0.9825 0.0970
vn 0.1796 -0.9803 0.0825
vn 0.2042 -0.9773 0.0566
vn 0.2294 -0.9732 0.0155
vn 0.2293 -0.9732 0.0156
vn 0.2447 -0.9693 -0.0243
vn 0.2512 -0.9660 -0.0605
vn 0.2500 -0.9619 -0.1104
vn 0.2356 -0.9567 -0.1711
vn 0.2356 -0.9567 -0.1710
vn 0.2138 -0.9518 -0.2200
vn 0.1869 -0.9476 -0.2589
vn 0.1868 -0.9476 -0.2590
vn 0.1409 -0.9424 -0.3032
vn 0.1409 -0.9424 -0.3031
vn 0.0759 -0.9360 -0.3436
vn 0.0761 -0.9361 -0.3435
vn 0.0159 -0.9302 -0.3668
vn -0.0410 -0.9252 -0.3772
vn -0.0411 -0.9252 -0.3772
vn -0.1186 -0.9190 -0.3759
vn -0.1185 -0.9190 -0.3759
vn -0.2064 -0.9115 -0.3557
vn -0.2061 -0.9115 -0.3558
vn -0.2742 -0.9048 -0.3258
vn -0.3299 -0.8991 -0.2877
vn -0.3301 -0.8991 -0.2875
vn -0.3933 -0.8920 -0.2226
vn -0.3933 -0.8920 -0.2227
vn -0.4486 -0.8834 -0.1348
vn -0.4484 -0.8835 -0.1352
vn -0.4791 -0.8759 -0.0566
vn -0.4935 -0.8695 0.0190
vn -0.4935 -0.8695 0.0193
vn -0.4923 -0.8616 0.1232
vn -0.4923 -0.8616 0.1230
vn -0.4684 -0.8520 0.2338
vn -0.4684 -0.8520 0.2336
vn -0.4210 -0.8426 0.3359
vn -0.4206 -0.8425 0.3366
vn -0.3287 -0.8312 0.4484
vn -0.3294 -0.8313 0.4478
vn -0.2474 -0.8204 0.5155
vn -0.2478 -0.8204 0.5153
vn -0.2450 -0.8209 0.5158
vn -0.2615 -0.8222 0.5055
usemtl fx_mat
s 1
f 2/1/1 4/2/2 3/3/3 1/4/1
f 4/2/2 6/5/4 5/6/4 3/3/3
f 6/5/4 8/7/5 7/8/5 5/6/4
f 8/7/5 10/9/6 9/10/7 7/8/5
f 10/9/6 12/11/8 11/12/9 9/10/7
f 12/11/8 14/13/10 13/14/11 11/12/9
f 14/13/10 16/15/12 15/16/12 13/14/11
f 16/15/12 18/17/13 17/18/13 15/16/12
f 18/17/13 20/19/14 19/20/15 17/18/13
f 20/19/14 22/21/16 21/22/17 19/20/15
f 22/21/16 24/23/18 23/24/18 21/22/17
f 24/23/18 26/25/19 25/26/20 23/24/18
f 26/25/19 28/27/21 27/28/22 25/26/20
f 28/27/21 30/29/23 29/30/24 27/28/22
f 30/29/23 32/31/25 31/32/25 29/30/24
f 32/31/25 34/33/26 33/34/26 31/32/25
f 34/33/26 36/35/27 35/36/28 33/34/26
f 36/35/27 38/37/29 37/38/30 35/36/28
f 38/37/29 40/39/31 39/40/32 37/38/30
f 40/39/31 42/41/33 41/42/34 39/40/32
f 42/41/33 44/43/35 43/44/36 41/42/34
f 44/43/35 46/45/37 45/46/38 43/44/36
f 46/45/37 48/47/39 47/48/40 45/46/38
f 48/47/39 50/49/41 49/50/42 47/48/40
f 50/49/41 52/51/43 51/52/44 49/50/42
f 52/51/43 54/53/45 53/54/46 51/52/44
f 54/53/45 56/55/47 55/56/48 53/54/46
f 56/55/47 58/57/49 57/58/49 55/56/48
f 58/57/49 60/59/50 59/60/51 57/58/49
f 60/59/50 62/61/52 61/62/53 59/60/51
f 62/61/52 64/63/54 63/64/55 61/62/53
f 64/63/54 66/65/56 65/66/57 63/64/55
f 66/65/56 68/67/58 67/68/59 65/66/57
f 68/67/58 70/69/60 69/70/61 67/68/59
f 70/69/60 72/71/62 71/72/63 69/70/61
f 72/71/62 74/73/64 73/74/64 71/72/63
f 74/73/64 76/75/65 75/76/66 73/74/64
f 76/75/65 78/77/67 77/78/67 75/76/66
f 78/77/67 80/79/68 79/80/69 77/78/67
f 80/79/68 82/81/70 81/82/70 79/80/69
f 82/81/70 84/83/71 83/84/72 81/82/70
f 84/83/71 86/85/73 85/86/74 83/84/72
f 86/85/73 88/87/75 87/88/76 85/86/74
f 88/87/75 90/89/77 89/90/78 87/88/76
f 90/89/77 92/91/79 91/92/80 89/90/78
f 92/91/79 94/93/81 93/94/82 91/92/80
f 94/93/81 96/95/83 95/96/84 93/94/82
f 96/95/83 98/97/85 97/98/86 95/96/84
f 98/97/85 100/99/87 99/100/88 97/98/86
f 100/99/87 102/101/89 101/102/90 99/100/88
f 102/101/89 104/103/91 103/104/92 101/102/90
f 104/103/91 106/105/93 105/106/93 103/104/92
f 106/105/93 108/107/94 107/108/95 105/106/93
f 108/107/94 110/109/96 109/110/96 107/108/95
f 110/109/96 112/111/97 111/112/98 109/110/96
f 112/111/97 114/113/99 113/114/99 111/112/98
f 114/113/99 116/115/100 115/116/101 113/114/99
f 116/115/100 118/117/102 117/118/102 115/116/101
f 118/117/102 120/119/103 119/120/104 117/118/102
f 120/119/103 122/121/105 121/122/105 119/120/104
f 122/121/105 124/123/106 123/124/107 121/122/105
f 124/123/106 126/125/108 125/126/109 123/124/107
f 126/125/108 128/127/110 127/128/111 125/126/109
f 128/127/110 130/129/112 129/130/112 127/128/111
f 130/129/112 132/131/113 131/132/114 129/130/112
f 132/131/113 134/133/115 133/134/115 131/132/114
f 134/133/115 136/135/116 135/136/117 133/134/115
f 136/135/116 138/137/118 137/138/118 135/136/117
f 138/137/118 140/139/119 139/140/120 137/138/118
f 140/139/119 142/141/121 141/142/121 139/140/120
f 142/141/121 144/143/122 143/144/122 141/142/121
f 144/143/122 146/145/123 145/146/123 143/144/122
f 146/145/123 148/147/124 147/148/125 145/146/123
f 148/147/124 150/149/126 149/150/126 147/148/125
f 150/149/126 152/151/127 151/152/127 149/150/126
f 152/151/127 154/153/128 153/154/128 151/152/127
f 154/153/128 156/155/129 155/156/130 153/154/128
f 156/155/129 158/157/131 157/158/131 155/156/130
f 158/157/131 160/159/132 159/160/132 157/158/131
f 160/159/132 162/161/133 161/162/133 159/160/132
f 162/161/133 164/163/134 163/164/134 161/162/133
f 164/163/134 166/165/135 165/166/135 163/164/134
f 166/165/135 168/167/136 167/168/136 165/166/135
f 168/167/136 170/169/137 169/170/137 167/168/136
f 170/169/137 172/171/138 171/172/138 169/170/137
f 172/171/138 174/173/139 173/174/139 171/172/138
f 174/173/139 176/175/140 175/176/140 173/174/139
f 176/175/140 178/177/141 177/178/141 175/176/140
f 178/177/141 180/179/142 179/180/142 177/178/141
f 180/179/142 182/181/143 181/182/143 179/180/142
f 182/181/143 184/183/144 183/184/144 181/182/143
f 184/183/144 186/185/145 185/186/145 183/184/144
f 186/185/145 188/187/146 187/188/146 185/186/145
f 188/187/146 190/189/147 189/190/147 187/188/146
f 190/189/147 192/191/148 191/192/148 189/190/147
f 192/191/148 194/193/149 193/194/149 191/192/148
f 194/193/149 196/195/150 195/196/150 193/194/149
f 196/195/150 198/197/151 197/198/151 195/196/150
f 198/197/151 200/199/152 199/200/153 197/198/151
f 200/199/152 202/201/154 201/202/154 199/200/153
f 202/201/154 204/203/155 203/204/155 201/202/154
f 204/203/155 206/205/156 205/206/156 203/204/155
f 206/205/156 208/207/157 207/208/158 205/206/156
f 208/207/157 210/209/159 209/210/159 207/208/158
f 210/209/159 212/211/160 211/212/161 209/210/159
f 212/211/160 214/213/162 213/214/163 211/212/161
f 214/213/162 216/215/164 215/216/165 213/214/163
f 216/215/164 218/217/166 217/218/166 215/216/165
f 218/217/166 220/219/167 219/220/168 217/218/166
f 220/219/167 222/221/169 221/222/170 219/220/168
f 222/221/169 224/223/171 223/224/172 221/222/170
f 224/223/171 226/225/173 225/226/173 223/224/172
f 226/225/173 228/227/174 227/228/175 225/226/173
f 228/227/174 230/229/176 229/230/177 227/228/175
f 230/229/176 232/231/178 231/232/179 229/230/177
f 232/231/178 234/233/180 233/234/180 231/232/179
f 234/233/180 236/235/181 235/236/182 233/234/180
f 236/235/181 238/237/183 237/238/184 235/236/182
f 238/237/183 240/239/185 239/240/186 237/238/184
f 240/239/185 242/241/187 241/242/188 239/240/186
f 242/241/187 244/243/189 243/244/190 241/242/188
f 244/243/189 246/245/191 245/246/192 243/244/190
f 246/245/191 248/247/193 247/248/193 245/246/192
f 248/247/193 250/249/194 249/250/194 247/248/193
