# Blender v2.82 (sub 7) OBJ File: 'prantinhas.blend'
# www.blender.org
mtllib quadro_04.mtl
o Cube.010_Cube.015
v -0.047163 1.933810 0.646216
v -0.058952 0.078928 0.640917
v -0.035185 1.937459 -0.657585
v -0.046974 0.082577 -0.662884
v 0.091662 2.005215 0.734100
v 0.078950 0.005263 0.728386
v 0.105228 2.009347 -0.742502
v 0.092516 0.009396 -0.748216
v -0.033930 2.010235 -0.743778
v -0.047495 2.006103 0.732823
v -0.060207 0.006152 0.727110
v -0.046642 0.010284 -0.749492
v 0.012671 1.937153 -0.657146
v 0.000693 1.933504 0.646655
v -0.011097 0.078623 0.641356
v 0.000881 0.082272 -0.662445
vt 0.619958 0.244958
vt 0.619958 0.244958
vt 0.380042 0.244958
vt 0.380042 0.244958
vt 0.375000 0.250000
vt 0.375000 0.500000
vt 0.625000 0.500000
vt 0.625000 0.250000
vt 0.375000 0.750000
vt 0.625000 0.750000
vt 0.375000 1.000000
vt 0.625000 1.000000
vt 0.125000 0.500000
vt 0.125000 0.750000
vt 0.875000 0.750000
vt 0.875000 0.500000
vt 0.380042 0.005042
vt 0.375000 0.000000
vt 0.619958 0.005042
vt 0.625000 0.000000
vt 0.380042 0.005042
vt 0.619958 0.005042
vn -0.0092 -0.0028 1.0000
vn 0.0092 0.0028 -1.0000
vn 0.9999 -0.0064 0.0092
vn 0.0064 1.0000 0.0029
vn -0.0064 -1.0000 -0.0029
vn -0.9999 0.0064 -0.0092
usemtl quadro04_frame
s off
f 4/1/1 16/2/1 13/3/1 3/4/1
f 9/5/2 7/6/2 8/7/2 12/8/2
f 7/6/3 5/9/3 6/10/3 8/7/3
f 5/9/1 10/11/1 11/12/1 6/10/1
f 9/13/4 10/14/4 5/9/4 7/6/4
f 8/7/5 6/10/5 11/15/5 12/16/5
f 1/17/6 10/18/6 9/5/6 3/4/6
f 2/19/6 11/20/6 10/18/6 1/17/6
f 4/1/6 12/8/6 11/20/6 2/19/6
f 3/4/6 9/5/6 12/8/6 4/1/6
f 1/17/2 14/21/2 15/22/2 2/19/2
f 2/19/4 15/22/4 16/2/4 4/1/4
f 3/4/5 13/3/5 14/21/5 1/17/5
usemtl quadro04_img
f 14/21/6 13/3/6 16/2/6 15/22/6
