# Blender v2.82 (sub 7) OBJ File: 'prantinhas.blend'
# www.blender.org
mtllib quadro_01.mtl
o Cube.007_Cube.012
v 0.046441 0.089947 0.644025
v 0.046440 1.944873 0.644025
v 0.046441 0.089946 -0.659836
v 0.046441 1.944873 -0.659836
v -0.092726 0.017410 0.730429
v -0.092726 2.017410 0.730429
v -0.092725 0.017410 -0.746241
v -0.092725 2.017410 -0.746241
v 0.046441 0.017410 -0.746241
v 0.046441 0.017410 0.730429
v 0.046440 2.017410 0.730429
v 0.046441 2.017410 -0.746241
v -0.001417 0.089946 -0.659836
v -0.001418 0.089947 0.644025
v -0.001418 1.944873 0.644025
v -0.001417 1.944873 -0.659836
vt 0.076070 0.530434
vt 0.116620 0.600554
vt 0.116620 0.430696
vt 0.080869 0.494961
vt 0.375000 0.250000
vt 0.375000 0.500000
vt 0.625000 0.500000
vt 0.625000 0.250000
vt 0.375000 0.750000
vt 0.625000 0.750000
vt 0.375000 1.000000
vt 0.625000 1.000000
vt 0.125000 0.500000
vt 0.125000 0.750000
vt 0.875000 0.750000
vt 0.875000 0.500000
vt 0.335929 0.066405
vt 0.354788 0.032493
vt 0.032493 0.032493
vt 0.051352 0.066405
vt 0.335929 0.332033
vt 0.354788 0.365944
vt 0.051352 0.332033
vt 0.032493 0.365945
vt 0.065156 0.491642
vt 0.028131 0.439334
vt 0.027519 0.581180
vt 0.059883 0.531141
vt 0.380042 0.005042
vt 0.380042 0.244958
vt 0.619958 0.244958
vt 0.619958 0.005042
vn 0.0000 0.0000 1.0000
vn 0.0000 -0.0000 -1.0000
vn -1.0000 -0.0000 -0.0000
vn 0.0000 -1.0000 0.0000
vn 0.0000 1.0000 -0.0000
vn 1.0000 0.0000 0.0000
usemtl quadr01_frame
s off
f 4/1/1 16/2/1 13/3/1 3/4/1
f 9/5/2 7/6/2 8/7/2 12/8/2
f 7/6/3 5/9/3 6/10/3 8/7/3
f 5/9/1 10/11/1 11/12/1 6/10/1
f 9/13/4 10/14/4 5/9/4 7/6/4
f 8/7/5 6/10/5 11/15/5 12/16/5
f 1/17/6 10/18/6 9/19/6 3/20/6
f 2/21/6 11/22/6 10/18/6 1/17/6
f 4/23/6 12/24/6 11/22/6 2/21/6
f 3/20/6 9/19/6 12/24/6 4/23/6
f 1/25/2 14/26/2 15/27/2 2/28/2
f 2/28/4 15/27/4 16/2/4 4/1/4
f 3/4/5 13/3/5 14/26/5 1/25/5
usemtl quadro01_img
f 14/29/6 13/30/6 16/31/6 15/32/6
