# Blender v2.82 (sub 7) OBJ File: 'prantinhas.blend'
# www.blender.org
mtllib quadro_05.mtl
o Cube.011_Cube.016
v -0.061506 0.081080 -0.256219
v -0.040185 0.765563 -0.255625
v -0.053899 0.080411 0.241247
v -0.032578 0.764895 0.241841
v 0.073997 0.004364 -0.344809
v 0.099834 0.833850 -0.344089
v 0.084246 0.003463 0.325445
v 0.110083 0.832949 0.326165
v -0.054836 0.007794 0.327578
v -0.065085 0.008695 -0.342676
v -0.039248 0.838181 -0.341956
v -0.028999 0.837280 0.328298
v -0.006069 0.078922 0.240513
v -0.013676 0.079591 -0.256952
v 0.007644 0.764074 -0.256358
v 0.015251 0.763405 0.241107
vt 0.619958 0.244958
vt 0.619958 0.244958
vt 0.380042 0.244958
vt 0.380042 0.244958
vt 0.375000 0.250000
vt 0.375000 0.500000
vt 0.625000 0.500000
vt 0.625000 0.250000
vt 0.375000 0.750000
vt 0.625000 0.750000
vt 0.375000 1.000000
vt 0.625000 1.000000
vt 0.125000 0.500000
vt 0.125000 0.750000
vt 0.875000 0.750000
vt 0.875000 0.500000
vt 0.380042 0.005042
vt 0.375000 0.000000
vt 0.619958 0.005042
vt 0.625000 0.000000
vt 0.380042 0.005042
vt 0.619958 0.005042
vn -0.0153 0.0013 -0.9999
vn 0.0153 -0.0013 0.9999
vn 0.9994 -0.0311 -0.0153
vn -0.0311 -0.9995 -0.0009
vn 0.0311 0.9995 0.0009
vn -0.9994 0.0311 0.0153
usemtl quadr01_frame
s off
f 4/1/1 16/2/1 13/3/1 3/4/1
f 9/5/2 7/6/2 8/7/2 12/8/2
f 7/6/3 5/9/3 6/10/3 8/7/3
f 5/9/1 10/11/1 11/12/1 6/10/1
f 9/13/4 10/14/4 5/9/4 7/6/4
f 8/7/5 6/10/5 11/15/5 12/16/5
f 1/17/6 10/18/6 9/5/6 3/4/6
f 2/19/6 11/20/6 10/18/6 1/17/6
f 4/1/6 12/8/6 11/20/6 2/19/6
f 3/4/6 9/5/6 12/8/6 4/1/6
f 1/17/2 14/21/2 15/22/2 2/19/2
f 2/19/4 15/22/4 16/2/4 4/1/4
f 3/4/5 13/3/5 14/21/5 1/17/5
usemtl quadro05_pqn_img
f 14/21/6 13/3/6 16/2/6 15/22/6
